SplineFontDB: 3.0
FontName: Jones-it-LightItalic
FullName: Jones* Light Italic
FamilyName: Jones* Light
Weight: Light
Copyright: 
UComments: "2016-1-29: Created with FontForge (http://fontforge.org)"
Version: 002.000
ItalicAngle: -9
UnderlinePosition: -150
UnderlineWidth: 50
Ascent: 784
Descent: 216
InvalidEm: 0
LayerCount: 2
Layer: 0 0 "Back" 1
Layer: 1 0 "Fore" 0
XUID: [1021 31 -699969567 4970488]
FSType: 0
OS2Version: 2
OS2_WeightWidthSlopeOnly: 0
OS2_UseTypoMetrics: 0
CreationTime: 1454127431
ModificationTime: 1456604016
PfmFamily: 17
TTFWeight: 300
TTFWidth: 5
LineGap: 0
VLineGap: 0
OS2TypoAscent: 784
OS2TypoAOffset: 0
OS2TypoDescent: -216
OS2TypoDOffset: 0
OS2TypoLinegap: 200
OS2WinAscent: 850
OS2WinAOffset: 0
OS2WinDescent: 300
OS2WinDOffset: 0
HheadAscent: 850
HheadAOffset: 0
HheadDescent: -300
HheadDOffset: 0
OS2SubXSize: 650
OS2SubYSize: 600
OS2SubXOff: 0
OS2SubYOff: 75
OS2SupXSize: 650
OS2SupYSize: 600
OS2SupXOff: 0
OS2SupYOff: 350
OS2StrikeYSize: 50
OS2StrikeYPos: 314
OS2CapHeight: 700
OS2XHeight: 520
OS2Vendor: 'PfEd'
Lookup: 5 0 0 "lig" { "lig-1"  } ['calt' ('DFLT' <'dflt' > 'grek' <'dflt' > 'latn' <'dflt' > ) ]
Lookup: 1 0 0 "fi" { "fi-1"  } ['ss01' ('DFLT' <'dflt' > 'grek' <'dflt' > 'latn' <'dflt' > ) ]
Lookup: 258 0 0 "kern" { "kerning" [150,0,2] } ['kern' ('DFLT' <'dflt' > 'grek' <'dflt' > 'latn' <'dflt' > ) ]
MarkAttachClasses: 1
DEI: 91125
KernClass2: 13 10 "kerning"
 3 A L
 5 D O Q
 3 F P
 3 K X
 3 V W
 13 b e h m n o p
 15 a c g q r s u z
 14 d f i j l t fi
 3 k x
 3 v w
 3 R B
 3 T Y
 1 A
 7 C G O Q
 3 T Y
 3 V W
 15 a m n p r s u z
 11 c d e g o q
 18 b f h i j k l t fi
 5 v w y
 1 x

StartChar: E
Encoding: 69 69 0
Width: 670
VWidth: 0
Flags: HW
AnchorPoint: "ced" 495 0 basechar 0
AnchorPoint: "dot" 365 760 basechar 0
LayerCount: 2
Fore
SplineSet
164 393 m 1
 624 393 l 1
 613 323 l 1
 153 323 l 1
 164 393 l 1
214 700 m 1
 724 700 l 1
 713 630 l 1
 203 630 l 1
 214 700 l 1
111 70 m 5
 621 70 l 5
 610 0 l 1
 100 0 l 1
 111 70 l 5
214 700 m 1
 284 700 l 1
 170 0 l 1
 100 0 l 1
 214 700 l 1
EndSplineSet
EndChar

StartChar: I
Encoding: 73 73 1
Width: 300
VWidth: 0
Flags: HW
AnchorPoint: "ced" 155 0 basechar 0
AnchorPoint: "dot" 150 760 basechar 0
LayerCount: 2
Fore
SplineSet
229 700 m 1
 299 700 l 5
 185 0 l 5
 115 0 l 1
 229 700 l 1
EndSplineSet
EndChar

StartChar: F
Encoding: 70 70 2
Width: 665
VWidth: 0
Flags: HW
AnchorPoint: "ced" 145 0 basechar 0
AnchorPoint: "dot" 365 760 basechar 0
LayerCount: 2
Fore
SplineSet
161 373 m 1
 621 373 l 1
 609 303 l 1
 149 303 l 1
 161 373 l 1
214 700 m 1
 724 700 l 1
 713 630 l 1
 203 630 l 1
 214 700 l 1
214 700 m 1
 294 700 l 5
 180 0 l 5
 100 0 l 1
 214 700 l 1
EndSplineSet
EndChar

StartChar: H
Encoding: 72 72 3
Width: 765
VWidth: 0
Flags: HW
AnchorPoint: "ced" 625 0 basechar 0
AnchorPoint: "dot" 380 760 basechar 0
LayerCount: 2
Fore
SplineSet
709 700 m 1xf8
 779 700 l 1
 665 0 l 1
 595 0 l 1
 709 700 l 1xf8
164 393 m 5
 674 393 l 5
 663 323 l 1xf4
 153 323 l 1
 164 393 l 5
214 700 m 1
 284 700 l 1
 170 0 l 1
 100 0 l 1
 214 700 l 1
EndSplineSet
EndChar

StartChar: L
Encoding: 76 76 4
Width: 655
VWidth: 0
Flags: HW
AnchorPoint: "ced" 365 0 basechar 0
AnchorPoint: "dot" 385 760 basechar 0
LayerCount: 2
Fore
SplineSet
111 70 m 5
 621 70 l 5
 610 0 l 1
 100 0 l 1
 111 70 l 5
214 700 m 1
 284 700 l 1
 170 0 l 1
 100 0 l 1
 214 700 l 1
EndSplineSet
EndChar

StartChar: T
Encoding: 84 84 5
Width: 690
VWidth: 0
Flags: HW
AnchorPoint: "ced" 347 0 basechar 0
AnchorPoint: "dot" 345 760 basechar 0
LayerCount: 2
Fore
SplineSet
164 700 m 1
 754 700 l 1
 743 630 l 1
 153 630 l 1
 164 700 l 1
424 700 m 1
 494 700 l 1
 380 0 l 1
 310 0 l 1
 424 700 l 1
EndSplineSet
EndChar

StartChar: O
Encoding: 79 79 7
Width: 850
VWidth: 0
Flags: HMW
AnchorPoint: "ced" 425 0 basechar 0
AnchorPoint: "dot" 425 760 basechar 0
LayerCount: 2
Fore
SplineSet
190 350 m 4
 167 190 273 60 433 60 c 4
 593 60 737 190 760 350 c 4
 783 510 676 640 516 640 c 4
 356 640 213 510 190 350 c 4
120 350 m 4
 148 549 330 710 525 710 c 4
 720 710 858 549 830 350 c 4
 802 151 619 -10 424 -10 c 4
 229 -10 92 151 120 350 c 4
EndSplineSet
EndChar

StartChar: C
Encoding: 67 67 8
Width: 732
VWidth: 0
Flags: HMW
AnchorPoint: "ced" 425 0 basechar 0
AnchorPoint: "dot" 425 760 basechar 0
LayerCount: 2
Fore
SplineSet
190 350 m 4
 167 184 272 60 433 60 c 0
 521 60 605 100 667 161 c 1
 708 113 l 1
 632 38 530 -10 424 -10 c 0
 229 -10 92 151 120 350 c 4
 148 549 330 710 525 710 c 0
 631 710 721 662 775 587 c 1
 720 539 l 1
 676 600 604 640 516 640 c 0
 355 640 213 516 190 350 c 4
EndSplineSet
EndChar

StartChar: A
Encoding: 65 65 9
Width: 800
VWidth: 0
InSpiro: 1
Flags: HW
AnchorPoint: "ced" 707 0 basechar 0
AnchorPoint: "ring" 400 700 basechar 0
AnchorPoint: "dot" 400 760 basechar 0
LayerCount: 2
Fore
SplineSet
484 700 m 1
 544 700 l 1
 532 690 l 1
 482 690 l 1
 484 700 l 1
  Spiro
    484 700 v
    544 700 v
    532 690 v
    482 690 v
    0 0 z
  EndSpiro
236 260 m 1
 648 260 l 1
 637 190 l 1
 225 190 l 1
 236 260 l 1
  Spiro
    236 260 v
    648 260 v
    637 190 v
    225 190 v
    0 0 z
  EndSpiro
676 0 m 1
 478 690 l 1
 544 700 l 1
 755 0 l 1
 676 0 l 1
  Spiro
    676 0 v
    478 690 v
    544 700 v
    755 0 v
    0 0 z
  EndSpiro
484 700 m 1
 546 690 l 1
 124 0 l 1
 45 0 l 1
 484 700 l 1
  Spiro
    484 700 v
    546 690 v
    124 0 v
    45 0 v
    0 0 z
  EndSpiro
EndSplineSet
EndChar

StartChar: V
Encoding: 86 86 10
Width: 780
VWidth: 0
Flags: HW
AnchorPoint: "ced" 390 0 basechar 0
AnchorPoint: "dot" 389 760 basechar 0
LayerCount: 2
Fore
SplineSet
430 0 m 1
 370 0 l 1
 382 10 l 1
 432 10 l 1
 430 0 l 1
229 700 m 5
 436 10 l 1
 370 0 l 1
 154 700 l 1
 229 700 l 5
430 0 m 1
 368 10 l 1
 787 700 l 1
 854 700 l 1
 430 0 l 1
EndSplineSet
EndChar

StartChar: G
Encoding: 71 71 11
Width: 782
VWidth: 0
Flags: HMW
AnchorPoint: "ced" 425 0 basechar 0
AnchorPoint: "dot" 425 760 basechar 0
LayerCount: 2
Fore
SplineSet
754 370 m 1
 744 300 l 1
 467 300 l 1
 477 370 l 1
 754 370 l 1
718 113 m 1
 648 113 l 1
 684 370 l 1
 754 370 l 1
 718 113 l 1
190 350 m 4
 167 184 272 60 433 60 c 4
 516 60 610 105 672 166 c 5
 718 113 l 1
 642 38 530 -10 424 -10 c 0
 229 -10 92 151 120 350 c 0
 148 549 330 710 525 710 c 0
 631 710 721 662 775 587 c 1
 720 539 l 1
 676 600 599 640 516 640 c 4
 355 640 213 516 190 350 c 4
EndSplineSet
EndChar

StartChar: D
Encoding: 68 68 12
Width: 810
VWidth: 0
Flags: HW
AnchorPoint: "ced" 325 0 basechar 0
AnchorPoint: "dot" 345 760 basechar 0
LayerCount: 2
Fore
SplineSet
214 700 m 1
 494 700 l 1
 483 630 l 1
 203 630 l 1
 214 700 l 1
111 70 m 5
 391 70 l 5
 380 0 l 1
 100 0 l 1
 111 70 l 5
214 700 m 1
 284 700 l 1
 170 0 l 1
 100 0 l 1
 214 700 l 1
391 70 m 5
 552 70 700 184 727 350 c 0
 754 516 644 630 483 630 c 1
 494 700 l 1
 689 700 829 549 797 350 c 0
 765 151 575 0 380 0 c 1
 391 70 l 5
EndSplineSet
EndChar

StartChar: U
Encoding: 85 85 13
Width: 760
VWidth: 0
Flags: HW
AnchorPoint: "ced" 380 0 basechar 0
AnchorPoint: "dot" 380 760 basechar 0
LayerCount: 2
Fore
SplineSet
651 280 m 1
 719 700 l 1
 784 700 l 1
 716 280 l 1
 651 280 l 1
136 280 m 1
 204 700 l 1
 269 700 l 1
 201 280 l 1
 136 280 l 1
651 280 m 1
 716 280 l 1
 688 111 537 -10 378 -10 c 0
 219 -10 108 111 136 280 c 1
 201 280 l 1
 180 151 262 55 389 55 c 0
 516 55 630 151 651 280 c 1
EndSplineSet
EndChar

StartChar: o
Encoding: 111 111 14
Width: 650
VWidth: 0
Flags: HMW
AnchorPoint: "ced" 325 0 basechar 0
AnchorPoint: "dot" 325 673 basechar 0
LayerCount: 2
Fore
SplineSet
157 260 m 0
 141 144 219 50 332 50 c 0
 445 50 551 144 567 260 c 0
 583 376 504 470 391 470 c 0
 278 470 173 376 157 260 c 0
92 260 m 0
 113 409 251 530 400 530 c 0
 549 530 653 409 632 260 c 0
 611 111 473 -10 324 -10 c 0
 175 -10 71 111 92 260 c 0
EndSplineSet
EndChar

StartChar: B
Encoding: 66 66 15
Width: 695
VWidth: 0
Flags: HW
AnchorPoint: "ced" 317 0 basechar 0
AnchorPoint: "dot" 298 760 basechar 0
LayerCount: 2
Fore
SplineSet
413 388 m 5xde
 506 388 586 412 601 507 c 4
 616 602 546 630 453 630 c 5
 464 700 l 5
 593 700 691 631 671 507 c 4
 651 384 543 330 404 330 c 5xbe
 413 388 l 5xde
214 700 m 1
 284 700 l 1
 170 0 l 1
 100 0 l 1
 214 700 l 1
111 70 m 1
 401 70 l 5
 390 0 l 5
 100 0 l 1
 111 70 l 1
214 700 m 1
 464 700 l 5
 453 630 l 5
 203 630 l 1
 214 700 l 1
163 388 m 1xdc
 453 388 l 5
 442 318 l 5
 152 318 l 1
 163 388 l 1xdc
401 70 m 5
 494 70 581 95 597 195 c 4
 613 295 535 318 442 318 c 5xdd
 451 375 l 5
 590 375 688 324 667 195 c 4xbd
 646 66 529 0 390 0 c 5
 401 70 l 5
EndSplineSet
EndChar

StartChar: K
Encoding: 75 75 16
Width: 745
VWidth: 0
Flags: HW
AnchorPoint: "ced" 665 0 basechar 0
AnchorPoint: "dot" 355 760 basechar 0
LayerCount: 2
Fore
SplineSet
366 413 m 5
 445 413 l 1
 720 0 l 1
 641 0 l 5
 366 413 l 5
699 700 m 1
 784 700 l 1
 204 207 l 1
 142 230 l 1
 699 700 l 1
214 700 m 1
 284 700 l 1
 170 0 l 1
 100 0 l 1
 214 700 l 1
EndSplineSet
EndChar

StartChar: R
Encoding: 82 82 17
Width: 718
VWidth: 0
Flags: HW
AnchorPoint: "ced" 610 0 basechar 0
AnchorPoint: "dot" 340 760 basechar 0
LayerCount: 2
Fore
SplineSet
454 333 m 1xdc
 552 333 631 387 646 477 c 0
 661 567 601 630 503 630 c 1
 514 700 l 1
 643 700 736 602 716 477 c 0
 696 353 572 263 443 263 c 1
 454 333 l 1xdc
400 320 m 5xbc
 485 320 l 1
 673 0 l 1
 588 0 l 5
 400 320 l 5xbc
214 700 m 1
 284 700 l 1
 170 0 l 1
 100 0 l 1
 214 700 l 1
219 700 m 1
 514 700 l 1
 503 630 l 1
 208 630 l 1
 219 700 l 1
159 333 m 1xdc
 454 333 l 1
 443 263 l 1
 148 263 l 1
 159 333 l 1xdc
EndSplineSet
EndChar

StartChar: P
Encoding: 80 80 18
Width: 643
VWidth: 0
Flags: HW
AnchorPoint: "ced" 140 0 basechar 0
AnchorPoint: "dot" 315 760 basechar 0
LayerCount: 2
Fore
SplineSet
409 333 m 5
 507 333 586 387 601 477 c 4
 616 567 556 630 458 630 c 5
 469 700 l 5
 598 700 691 602 671 477 c 4
 651 353 527 263 398 263 c 5
 409 333 l 5
214 700 m 1
 284 700 l 1
 170 0 l 1
 100 0 l 1
 214 700 l 1
219 700 m 1
 469 700 l 5
 458 630 l 5
 208 630 l 1
 219 700 l 1
159 333 m 1
 409 333 l 5
 398 263 l 5
 148 263 l 1
 159 333 l 1
EndSplineSet
EndChar

StartChar: Q
Encoding: 81 81 19
Width: 849
VWidth: 0
Flags: HMW
AnchorPoint: "ced" 425 0 basechar 0
AnchorPoint: "dot" 425 760 basechar 0
LayerCount: 2
Fore
SplineSet
190 350 m 0
 167 190 273 60 433 60 c 0
 593 60 737 190 760 350 c 0
 783 510 676 640 516 640 c 0
 356 640 213 510 190 350 c 0
740 -34 m 5
 510 234 l 5
 565 282 l 1
 795 15 l 1
 740 -34 l 5
120 350 m 0
 148 549 330 710 525 710 c 0
 720 710 858 549 830 350 c 0
 802 151 619 -10 424 -10 c 0
 229 -10 92 151 120 350 c 0
EndSplineSet
EndChar

StartChar: J
Encoding: 74 74 20
Width: 599
VWidth: 0
Flags: HW
AnchorPoint: "ced" 265 0 basechar 0
AnchorPoint: "dot" 265 760 basechar 0
LayerCount: 2
Fore
SplineSet
466 260 m 5
 538 700 l 5
 603 700 l 5
 531 260 l 5
 466 260 l 5
466 260 m 5
 531 260 l 5
 503 91 402 -10 263 -10 c 0
 155 -10 81 51 56 157 c 1
 116 187 l 1
 137 104 186 54 274 54 c 0
 371 54 445 131 466 260 c 5
EndSplineSet
EndChar

StartChar: S
Encoding: 83 83 21
Width: 625
VWidth: 0
Flags: HMW
AnchorPoint: "ced" 315 0 basechar 0
AnchorPoint: "dot" 335 760 basechar 0
LayerCount: 2
Fore
SplineSet
528 195 m 1
 593 195 l 1
 575 66 476 -10 327 -10 c 0
 198 -10 120 56 66 113 c 1
 117 166 l 1
 159 122 228 55 336 55 c 0
 429 55 514 95 528 195 c 1
229 532 m 1
 165 527 l 1
 181 638 296 710 415 710 c 0
 514 710 591 674 636 622 c 1
 587 574 l 1
 548 618 474 645 416 645 c 0
 313 645 238 599 229 532 c 1
384 397 m 4
 508 377 612 330 593 195 c 1
 528 195 l 1
 539 276 468 319 371 332 c 0
 243 349 149 412 165 527 c 1
 229 532 l 1
 217 447 280 414 384 397 c 4
EndSplineSet
EndChar

StartChar: M
Encoding: 77 77 22
Width: 932
VWidth: 0
Flags: HW
AnchorPoint: "ced" 790 0 basechar 0
AnchorPoint: "dot" 470 760 basechar 0
LayerCount: 2
Fore
SplineSet
511 130 m 1
 463 130 l 1
 471 180 l 5
 519 180 l 5
 511 130 l 1
866 640 m 1
 886 700 l 1
 946 700 l 1
 943 680 l 1
 866 640 l 1
923 650 m 1
 511 130 l 1
 471 180 l 5
 886 700 l 1
 923 650 l 1
943 680 m 1
 832 0 l 1
 762 0 l 1
 866 640 l 1
 943 680 l 1
274 640 m 1
 211 680 l 1
 214 700 l 1
 274 700 l 1
 274 640 l 1
221 650 m 1
 274 700 l 1
 519 180 l 5
 463 130 l 1
 221 650 l 1
211 680 m 1
 274 640 l 1
 170 0 l 1
 100 0 l 1
 211 680 l 1
EndSplineSet
EndChar

StartChar: Y
Encoding: 89 89 23
Width: 680
VWidth: 0
Flags: HW
AnchorPoint: "ced" 345 0 basechar 0
AnchorPoint: "dot" 337 760 basechar 0
LayerCount: 2
Fore
SplineSet
353 295 m 1
 423 295 l 1
 375 0 l 1
 305 0 l 1
 353 295 l 1
144 700 m 1
 224 700 l 1
 413 295 l 1
 370 217 l 1
 144 700 l 1
684 700 m 5
 764 700 l 1
 380 217 l 1
 363 295 l 5
 684 700 l 5
EndSplineSet
EndChar

StartChar: W
Encoding: 87 87 24
Width: 1065
VWidth: 0
Flags: HW
AnchorPoint: "ced" 750 0 basechar 0
AnchorPoint: "dot" 530 760 basechar 0
LayerCount: 2
Fore
SplineSet
614 700 m 1
 679 700 l 1
 673 690 l 1
 616 690 l 1
 614 700 l 1
780 0 m 1
 720 0 l 1
 722 10 l 1
 782 10 l 1
 780 0 l 1
679 700 m 1
 782 10 l 1
 720 0 l 1
 616 690 l 1
 679 700 l 1
780 0 m 1
 722 10 l 1
 1064 700 l 1
 1134 700 l 1
 780 0 l 1
345 0 m 1
 285 0 l 1
 287 10 l 1
 347 10 l 1
 345 0 l 1
229 700 m 5
 347 10 l 1
 285 0 l 1
 159 700 l 1
 229 700 l 5
345 0 m 1
 287 10 l 1
 614 700 l 1
 673 690 l 1
 345 0 l 1
EndSplineSet
EndChar

StartChar: N
Encoding: 78 78 25
Width: 790
VWidth: 0
Flags: HW
AnchorPoint: "ced" 650 0 basechar 0
AnchorPoint: "dot" 400 760 basechar 0
LayerCount: 2
Fore
SplineSet
690 0 m 1
 630 0 l 5
 634 24 l 5
 692 14 l 1
 690 0 l 1
274 700 m 1
 271 680 l 1
 211 680 l 1
 214 700 l 1
 274 700 l 1
208 665 m 1
 274 700 l 1
 696 35 l 1
 630 0 l 5
 208 665 l 1
734 700 m 5
 804 700 l 1
 690 0 l 1
 623 20 l 5
 734 700 l 5
214 700 m 1
 281 680 l 1
 170 0 l 1
 100 0 l 1
 214 700 l 1
EndSplineSet
EndChar

StartChar: X
Encoding: 88 88 26
Width: 750
VWidth: 0
Flags: HW
AnchorPoint: "ced" 645 0 basechar 0
AnchorPoint: "dot" 374 760 basechar 0
LayerCount: 2
Fore
SplineSet
179 700 m 1
 264 700 l 1
 705 0 l 1
 620 0 l 5
 179 700 l 1
714 700 m 5
 799 700 l 1
 130 0 l 1
 45 0 l 1
 714 700 l 5
EndSplineSet
EndChar

StartChar: Z
Encoding: 90 90 27
Width: 680
VWidth: 0
Flags: HW
AnchorPoint: "ced" 495 0 basechar 0
AnchorPoint: "dot" 335 760 basechar 0
LayerCount: 2
Fore
SplineSet
699 640 m 1x18
 689 640 l 1x18
 699 700 l 1
 709 700 l 1x28
 699 640 l 1x18
75 60 m 1x48
 85 60 l 1x48
 75 0 l 1
 65 0 l 1x88
 75 60 l 1x48
199 700 m 1x28
 699 700 l 1
 688 630 l 1
 188 630 l 1
 199 700 l 1x28
86 70 m 1x48
 626 70 l 1
 615 0 l 1
 75 0 l 1x88
 86 70 l 1x48
614 640 m 5x58
 699 640 l 1
 160 60 l 1
 75 60 l 1
 614 640 l 5x58
EndSplineSet
EndChar

StartChar: l
Encoding: 108 108 28
Width: 265
VWidth: 0
Flags: HMW
AnchorPoint: "ced" 133 0 basechar 0
AnchorPoint: "dot" 133 793 basechar 0
LayerCount: 2
Fore
SplineSet
219 730 m 1
 284 730 l 5
 165 0 l 5
 100 0 l 1
 219 730 l 1
EndSplineSet
EndChar

StartChar: b
Encoding: 98 98 29
Width: 655
VWidth: 0
Flags: HMW
AnchorPoint: "ced" 356 0 basechar 0
AnchorPoint: "dot" 360 673 basechar 0
LayerCount: 2
Fore
SplineSet
192 260 m 4
 171 131 246 50 353 50 c 4
 460 50 556 131 577 260 c 4
 598 389 529 470 422 470 c 4
 315 470 213 389 192 260 c 4
157 260 m 4
 183 419 282 530 441 530 c 4
 570 530 668 419 642 260 c 4
 616 101 482 -10 353 -10 c 4
 194 -10 131 101 157 260 c 4
204 730 m 5
 269 730 l 5
 150 0 l 5
 85 0 l 5
 204 730 l 5
EndSplineSet
EndChar

StartChar: c
Encoding: 99 99 30
Width: 573
VWidth: 0
Flags: HMW
AnchorPoint: "ced" 325 0 basechar 0
AnchorPoint: "dot" 325 673 basechar 0
LayerCount: 2
Fore
SplineSet
157 260 m 4
 140 141 215 50 332 50 c 4
 404 50 466 85 510 134 c 5
 546 92 l 5
 490 28 411 -10 324 -10 c 4
 175 -10 71 111 92 260 c 4
 113 409 251 530 400 530 c 4
 487 530 555 491 593 428 c 5
 546 386 l 5
 516 435 463 470 391 470 c 4
 274 470 174 379 157 260 c 4
EndSplineSet
EndChar

StartChar: d
Encoding: 100 100 31
Width: 655
VWidth: 0
Flags: HMW
AnchorPoint: "ced" 300 0 basechar 0
AnchorPoint: "dot" 295 673 basechar 0
LayerCount: 2
Fore
SplineSet
547 260 m 4
 568 389 494 470 387 470 c 4
 280 470 183 389 162 260 c 4
 141 131 211 50 318 50 c 4
 425 50 526 131 547 260 c 4
582 260 m 4
 556 101 457 -10 298 -10 c 4
 169 -10 71 101 97 260 c 4
 123 419 257 530 386 530 c 4
 545 530 608 419 582 260 c 4
689 730 m 1
 570 0 l 1
 505 0 l 1
 624 730 l 1
 689 730 l 1
EndSplineSet
EndChar

StartChar: k
Encoding: 107 107 32
Width: 615
VWidth: 0
Flags: W
HStem: 0 21G<85 153.26 500.254 590> 500 20G<545.284 655> 710 20G<200.74 269>
AnchorPoint: "ced" 535 0 basechar 0
AnchorPoint: "dot" 325 673 basechar 0
LayerCount: 2
Fore
SplineSet
314 291 m 5
 381 311 l 1
 590 0 l 1
 514 0 l 5
 314 291 l 5
569 520 m 1
 655 520 l 1
 168 110 l 1
 135 154 l 1
 569 520 l 1
204 730 m 1
 269 730 l 1
 150 0 l 1
 85 0 l 1
 204 730 l 1
EndSplineSet
EndChar

StartChar: e
Encoding: 101 101 33
Width: 615
VWidth: 0
Flags: HMW
AnchorPoint: "ced" 320 0 basechar 0
AnchorPoint: "dot" 310 673 basechar 0
LayerCount: 2
Fore
SplineSet
607 260 m 1
 604 240 l 1
 539 240 l 1
 542 260 l 1
 607 260 l 1
539 240 m 1
 133 240 l 1
 142 297 l 1
 548 297 l 1
 539 240 l 1
542 260 m 1
 563 389 504 470 387 470 c 0
 270 470 183 389 162 260 c 1
 97 260 l 1
 123 419 257 530 396 530 c 0
 535 530 633 419 607 260 c 1
 542 260 l 1
97 260 m 1
 162 260 l 1
 141 131 211 50 328 50 c 0
 402 50 473 85 518 134 c 5
 553 92 l 1
 496 28 405 -10 318 -10 c 0
 169 -10 71 101 97 260 c 1
EndSplineSet
EndChar

StartChar: p
Encoding: 112 112 34
Width: 655
VWidth: 0
Flags: HMW
AnchorPoint: "ced" 355 0 basechar 0
AnchorPoint: "dot" 360 673 basechar 0
LayerCount: 2
Fore
SplineSet
192 260 m 0
 171 131 246 50 353 50 c 0
 460 50 556 131 577 260 c 0
 598 389 529 470 422 470 c 0
 315 470 213 389 192 260 c 0
157 260 m 0
 183 419 282 530 441 530 c 0
 570 530 668 419 642 260 c 0
 616 101 482 -10 353 -10 c 0
 194 -10 131 101 157 260 c 0
52 -200 m 5
 170 520 l 1
 235 520 l 1
 117 -200 l 5
 52 -200 l 5
EndSplineSet
EndChar

StartChar: q
Encoding: 113 113 35
Width: 655
VWidth: 0
Flags: HMW
AnchorPoint: "ced" 300 0 basechar 0
AnchorPoint: "dot" 295 673 basechar 0
LayerCount: 2
Fore
SplineSet
547 260 m 0
 568 389 494 470 387 470 c 0
 280 470 183 389 162 260 c 0
 141 131 211 50 318 50 c 0
 425 50 526 131 547 260 c 0
582 260 m 0
 556 101 457 -10 298 -10 c 0
 169 -10 71 101 97 260 c 0
 123 419 257 530 386 530 c 0
 545 530 608 419 582 260 c 0
537 -200 m 1
 472 -200 l 1
 590 520 l 1
 655 520 l 1
 537 -200 l 1
EndSplineSet
EndChar

StartChar: h
Encoding: 104 104 36
Width: 635
VWidth: 0
Flags: HMW
AnchorPoint: "ced" 510 0 basechar 0
AnchorPoint: "dot" 350 673 basechar 0
LayerCount: 2
Fore
SplineSet
604 300 m 1
 555 0 l 1
 490 0 l 1
 539 300 l 1
 604 300 l 1
539 300 m 1
 554 390 522 470 407 470 c 0
 299 470 214 390 196 280 c 1
 161 280 l 1
 180 399 272 530 431 530 c 0
 560 530 625 429 604 300 c 1
 539 300 l 1
204 730 m 1
 269 730 l 1
 150 0 l 1
 85 0 l 1
 204 730 l 1
EndSplineSet
EndChar

StartChar: n
Encoding: 110 110 37
Width: 635
VWidth: 0
Flags: HMW
AnchorPoint: "ced" 530 0 basechar 0
AnchorPoint: "dot" 330 673 basechar 0
LayerCount: 2
Fore
SplineSet
604 300 m 5
 555 0 l 5
 490 0 l 5
 539 300 l 5
 604 300 l 5
170 520 m 5
 235 520 l 5
 150 0 l 5
 85 0 l 5
 170 520 l 5
539 300 m 5
 554 390 522 470 407 470 c 4
 299 470 214 390 196 280 c 5
 161 280 l 5
 180 399 272 530 431 530 c 4
 560 530 625 429 604 300 c 5
 539 300 l 5
EndSplineSet
EndChar

StartChar: m
Encoding: 109 109 38
Width: 900
VWidth: 0
Flags: HMW
AnchorPoint: "ced" 795 0 basechar 0
AnchorPoint: "dot" 450 673 basechar 0
LayerCount: 2
Fore
SplineSet
874 300 m 1
 825 0 l 1
 760 0 l 1
 809 300 l 1
 874 300 l 1
809 300 m 1
 824 390 812 475 707 475 c 0
 624 475 551 390 533 280 c 1
 498 280 l 1
 521 419 602 530 736 530 c 4
 860 530 895 429 874 300 c 1
 809 300 l 1
536 300 m 1
 487 0 l 1
 423 0 l 1
 472 300 l 1
 536 300 l 1
170 520 m 1
 235 520 l 1
 150 0 l 1
 85 0 l 1
 170 520 l 1
472 300 m 1
 487 390 477 475 372 475 c 4
 289 475 214 390 196 280 c 1
 161 280 l 1
 184 419 267 530 401 530 c 4
 525 530 557 429 536 300 c 1
 472 300 l 1
EndSplineSet
EndChar

StartChar: r
Encoding: 114 114 39
Width: 410
VWidth: 0
Flags: HMW
AnchorPoint: "ced" 120 0 basechar 0
AnchorPoint: "dot" 220 673 basechar 0
LayerCount: 2
Fore
SplineSet
170 520 m 1
 235 520 l 1
 150 0 l 1
 85 0 l 1
 170 520 l 1
455 460 m 1
 435 460 l 2
 311 460 212 380 194 270 c 1
 159 270 l 5
 183 419 286 520 465 520 c 1
 455 460 l 1
EndSplineSet
EndChar

StartChar: u
Encoding: 117 117 40
Width: 635
VWidth: 0
Flags: HMW
AnchorPoint: "ced" 285 0 basechar 0
AnchorPoint: "dot" 305 673 basechar 0
LayerCount: 2
Fore
SplineSet
550 0 m 1
 485 0 l 1
 570 520 l 1
 635 520 l 1
 550 0 l 1
181 220 m 1
 166 130 198 50 313 50 c 0
 421 50 506 130 524 240 c 1
 559 240 l 1
 540 121 447 -10 288 -10 c 0
 159 -10 95 91 116 220 c 1
 181 220 l 1
116 220 m 1
 165 520 l 1
 230 520 l 1
 181 220 l 1
 116 220 l 1
EndSplineSet
EndChar

StartChar: g
Encoding: 103 103 41
Width: 655
VWidth: 0
Flags: HMW
AnchorPoint: "dot" 300 673 basechar 0
LayerCount: 2
Fore
SplineSet
547 260 m 0
 568 389 494 470 387 470 c 0
 280 470 183 389 162 260 c 0
 141 131 211 50 318 50 c 0
 425 50 526 131 547 260 c 0
582 260 m 0
 556 101 457 -10 298 -10 c 0
 169 -10 71 101 97 260 c 0
 123 419 257 530 386 530 c 0
 545 530 608 419 582 260 c 0
297 -160 m 1
 287 -220 l 1
 150 -220 76 -172 39 -108 c 1
 87 -66 l 5
 121 -111 174 -160 297 -160 c 1
573 20 m 1
 508 20 l 1
 590 520 l 1
 655 520 l 1
 573 20 l 1
508 20 m 1
 573 20 l 1
 550 -119 416 -220 287 -220 c 1
 297 -160 l 1
 384 -160 490 -89 508 20 c 1
EndSplineSet
EndChar

StartChar: i
Encoding: 105 105 42
Width: 255
VWidth: 0
Flags: HMW
AnchorPoint: "ced" 125 0 basechar 0
LayerCount: 2
Fore
SplineSet
192 692 m 4
 196 718 222 740 248 740 c 4
 274 740 292 718 288 692 c 4
 284 666 258 644 232 644 c 4
 206 644 188 666 192 692 c 4
180 520 m 1
 245 520 l 1
 160 0 l 1
 95 0 l 1
 180 520 l 1
EndSplineSet
EndChar

StartChar: t
Encoding: 116 116 43
Width: 420
VWidth: 0
Flags: HMW
AnchorPoint: "ced" 257 0 basechar 0
AnchorPoint: "dot" 285 673 basechar 0
LayerCount: 2
Fore
SplineSet
125 520 m 1
 455 520 l 1
 445 460 l 1
 115 460 l 1
 125 520 l 1
208 140 m 1
 143 140 l 1
 230 673 l 1
 295 673 l 1
 208 140 l 1
272 50 m 1
 321 50 357 74 377 93 c 1
 399 42 l 1
 367 13 318 -10 256 -10 c 1
 272 50 l 1
208 140 m 1
 200 90 214 50 272 50 c 1
 256 -10 l 5
 157 -10 130 61 143 140 c 1
 208 140 l 1
EndSplineSet
EndChar

StartChar: a
Encoding: 97 97 44
Width: 580
VWidth: 0
Flags: HMW
AnchorPoint: "ced" 467 0 basechar 0
AnchorPoint: "ring" 285 673 basechar 0
AnchorPoint: "dot" 285 673 basechar 0
LayerCount: 2
Fore
SplineSet
371 312 m 1
 521 312 l 1
 513 263 l 1
 393 263 l 1
 371 312 l 1
494 330 m 1
 509 420 481 475 365 475 c 1
 380 530 l 1
 523 530 578 449 559 330 c 1
 494 330 l 1
365 475 m 1
 283 475 236 443 180 403 c 1
 153 450 l 1
 218 499 278 530 380 530 c 1
 365 475 l 1
494 330 m 1
 559 330 l 1
 505 0 l 1
 440 0 l 1
 494 330 l 1
134 160 m 1
 121 82 170 50 278 50 c 4
 366 50 456 100 469 180 c 1
 504 180 l 1
 486 71 387 -10 238 -10 c 0
 139 -10 50 41 69 160 c 1
 134 160 l 1
371 312 m 1
 393 263 l 1
 244 263 148 245 134 160 c 1
 69 160 l 1
 91 295 234 312 371 312 c 1
EndSplineSet
EndChar

StartChar: j
Encoding: 106 106 45
Width: 255
VWidth: 0
Flags: HMW
LayerCount: 2
Fore
SplineSet
196 692 m 0
 200 718 226 740 252 740 c 0
 278 740 296 718 292 692 c 0
 288 666 262 644 236 644 c 0
 210 644 192 666 196 692 c 0
184 520 m 1
 249 520 l 1
 154 -60 l 1
 89 -60 l 1
 184 520 l 1
2 -150 m 1
 -2 -210 l 1
 -59 -210 -107 -192 -128 -158 c 1
 -91 -108 l 1
 -77 -127 -41 -150 2 -150 c 1
89 -60 m 1
 154 -60 l 1
 141 -139 87 -210 -2 -210 c 1
 2 -150 l 1
 49 -150 81 -110 89 -60 c 1
EndSplineSet
EndChar

StartChar: s
Encoding: 115 115 46
Width: 520
VWidth: 0
Flags: HMW
AnchorPoint: "ced" 265 0 basechar 0
AnchorPoint: "dot" 265 673 basechar 0
LayerCount: 2
Fore
SplineSet
431 150 m 1
 496 150 l 1
 485 71 413 -10 274 -10 c 0
 165 -10 106 37 60 104 c 1
 114 148 l 1
 153 98 194 50 282 50 c 0
 365 50 421 80 431 150 c 1
190 388 m 1
 125 388 l 1
 136 464 221 530 330 530 c 0
 439 530 486 496 521 448 c 1
 473 400 l 1
 446 432 409 470 321 470 c 0
 233 470 196 430 190 388 c 1
323 302 m 0
 437 283 512 260 496 150 c 1
 431 150 l 1
 439 210 395 227 289 242 c 0
 188 257 112 293 125 388 c 1
 190 388 l 1
 183 338 228 318 323 302 c 0
EndSplineSet
EndChar

StartChar: v
Encoding: 118 118 47
Width: 590
VWidth: 0
Flags: HW
AnchorPoint: "ced" 297 0 basechar 0
AnchorPoint: "dot" 293 673 basechar 0
LayerCount: 2
Fore
SplineSet
335 0 m 1
 255 0 l 1
 256 5 l 1
 336 5 l 1
 335 0 l 1
271 5 m 5
 570 520 l 5
 640 520 l 1
 335 0 l 1
 271 5 l 5
120 520 m 1
 190 520 l 1
 321 5 l 1
 255 0 l 1
 120 520 l 1
EndSplineSet
EndChar

StartChar: f
Encoding: 102 102 48
Width: 375
VWidth: 0
Flags: HMW
AnchorPoint: "ced" 155 0 basechar 0
LayerCount: 2
Fore
SplineSet
130 520 m 1
 433 520 l 1
 423 460 l 1
 120 460 l 1
 130 520 l 1
286 590 m 1
 190 0 l 1
 125 0 l 1
 221 590 l 1
 286 590 l 1
384 680 m 1
 388 740 l 1
 450 740 486 718 507 688 c 1
 471 639 l 1
 455 660 432 680 384 680 c 1
286 590 m 1
 221 590 l 1
 234 669 299 740 388 740 c 1
 384 680 l 1
 319 680 294 639 286 590 c 1
EndSplineSet
Substitution2: "fi-1" fi
EndChar

StartChar: y
Encoding: 121 121 49
Width: 579
VWidth: 0
Flags: HW
AnchorPoint: "dot" 295 673 basechar 0
LayerCount: 2
Fore
SplineSet
124 520 m 1
 194 520 l 1
 348 -8 l 1
 282 -13 l 1
 124 520 l 1
145 -150 m 5
 135 -210 l 1
 78 -210 32 -184 11 -150 c 1
 49 -99 l 1
 63 -118 94 -150 145 -150 c 5
254 -60 m 2
 564 520 l 1
 629 520 l 1
 319 -60 l 2
 277 -140 224 -210 135 -210 c 1
 145 -150 l 5
 203 -150 233 -100 254 -60 c 2
EndSplineSet
EndChar

StartChar: w
Encoding: 119 119 50
Width: 795
VWidth: 0
Flags: HW
AnchorPoint: "ced" 565 0 basechar 0
AnchorPoint: "dot" 398 673 basechar 0
LayerCount: 2
Fore
SplineSet
465 520 m 1
 500 520 l 1
 492 470 l 1
 457 470 l 1
 465 520 l 1
605 0 m 1
 555 0 l 1
 561 35 l 1
 609 25 l 1
 605 0 l 1
561 35 m 1
 770 520 l 1
 840 520 l 1
 605 0 l 1
 561 35 l 1
452 470 m 1
 500 520 l 1
 609 25 l 1
 555 0 l 1
 452 470 l 1
240 0 m 1
 190 0 l 1
 194 25 l 1
 246 35 l 1
 240 0 l 1
194 25 m 1
 465 520 l 1
 497 470 l 1
 240 0 l 1
 194 25 l 1
125 520 m 1
 195 520 l 1
 246 35 l 1
 190 0 l 1
 125 520 l 1
EndSplineSet
EndChar

StartChar: x
Encoding: 120 120 51
Width: 615
VWidth: 0
Flags: HW
AnchorPoint: "ced" 515 0 basechar 0
AnchorPoint: "dot" 305 673 basechar 0
LayerCount: 2
Fore
SplineSet
40 0 m 1
 555 520 l 1
 640 520 l 1
 125 0 l 1
 40 0 l 1
145 520 m 1
 230 520 l 1
 575 0 l 1
 490 0 l 1
 145 520 l 1
EndSplineSet
EndChar

StartChar: z
Encoding: 122 122 52
Width: 570
VWidth: 0
Flags: HMW
AnchorPoint: "ced" 445 0 basechar 0
AnchorPoint: "dot" 290 673 basechar 0
LayerCount: 2
Fore
SplineSet
63 50 m 1
 83 50 l 1
 75 0 l 1
 55 0 l 1
 63 50 l 1
85 60 m 1
 525 60 l 1
 515 0 l 1
 75 0 l 1
 85 60 l 1
570 520 m 1
 590 520 l 1
 582 470 l 1
 562 470 l 1
 570 520 l 1
160 520 m 1
 570 520 l 1
 560 460 l 1
 150 460 l 1
 160 520 l 1
502 470 m 1
 582 470 l 1
 143 50 l 5
 63 50 l 1
 502 470 l 1
EndSplineSet
EndChar

StartChar: zero
Encoding: 48 48 53
Width: 600
VWidth: 0
Flags: HMW
LayerCount: 2
Fore
SplineSet
142 350 m 0
 116 193 178 60 310 60 c 4
 442 60 546 193 572 350 c 0
 598 507 536 640 404 640 c 0
 272 640 168 507 142 350 c 0
72 350 m 0
 104 549 241 710 416 710 c 0
 591 710 674 549 642 350 c 0
 610 151 473 -10 298 -10 c 0
 123 -10 40 151 72 350 c 0
EndSplineSet
EndChar

StartChar: one
Encoding: 49 49 54
Width: 600
VWidth: 0
Flags: HMW
LayerCount: 2
Fore
SplineSet
494 700 m 1
 490 676 l 1
 430 676 l 1
 434 700 l 1
 494 700 l 1
434 700 m 1
 459 643 l 5
 238 513 l 5
 213 570 l 1
 434 700 l 1
422 690 m 1
 494 700 l 1
 380 0 l 1
 310 0 l 1
 422 690 l 1
EndSplineSet
EndChar

StartChar: six
Encoding: 54 54 55
Width: 600
VWidth: 0
Flags: HMW
LayerCount: 2
Fore
SplineSet
146 220 m 1
 111 220 l 1
 132 349 253 445 402 445 c 1
 364 390 l 1
 262 390 162 320 146 220 c 1
146 220 m 0
 130 120 206 50 308 50 c 0
 420 50 510 120 526 220 c 0
 542 320 476 390 364 390 c 1
 402 445 l 1
 531 445 607 349 586 220 c 0
 565 91 447 -10 298 -10 c 0
 149 -10 65 91 86 220 c 0
 95 277 127 327 169 377 c 2
 443 700 l 1
 527 700 l 1
 219 352 l 1
 228 385 l 1
 185 356 154 271 146 220 c 0
EndSplineSet
EndChar

StartChar: period
Encoding: 46 46 56
Width: 230
VWidth: 0
Flags: HMW
LayerCount: 2
Fore
SplineSet
68 45 m 4
 73 75 101 100 131 100 c 4
 161 100 181 75 176 45 c 4
 171 15 143 -10 113 -10 c 4
 83 -10 63 15 68 45 c 4
EndSplineSet
EndChar

StartChar: semicolon
Encoding: 59 59 57
Width: 254
VWidth: 0
Flags: HMW
LayerCount: 2
Fore
SplineSet
78 45 m 0
 83 75 111 100 143 100 c 4
 173 100 196 80 190 45 c 0
 188 31 181 19 172 7 c 2
 69 -130 l 1
 34 -130 l 1
 109 -8 l 1
 88 -1 74 20 78 45 c 0
146 459 m 4
 151 489 179 514 209 514 c 4
 239 514 259 489 254 459 c 4
 249 429 221 404 191 404 c 4
 161 404 141 429 146 459 c 4
EndSplineSet
EndChar

StartChar: comma
Encoding: 44 44 58
Width: 254
VWidth: 0
Flags: HMW
LayerCount: 2
Fore
SplineSet
88 45 m 0
 93 75 121 100 153 100 c 4
 183 100 206 80 200 45 c 0
 198 31 191 19 182 7 c 2
 79 -130 l 1
 44 -130 l 1
 119 -8 l 1
 98 -1 84 20 88 45 c 0
EndSplineSet
EndChar

StartChar: colon
Encoding: 58 58 59
Width: 230
VWidth: 0
Flags: HMW
LayerCount: 2
Fore
SplineSet
68 45 m 4
 73 75 101 100 131 100 c 4
 161 100 181 75 176 45 c 4
 171 15 143 -10 113 -10 c 4
 83 -10 63 15 68 45 c 4
136 459 m 4
 141 489 169 514 199 514 c 4
 229 514 249 489 244 459 c 4
 239 429 211 404 181 404 c 4
 151 404 131 429 136 459 c 4
EndSplineSet
EndChar

StartChar: two
Encoding: 50 50 60
Width: 600
VWidth: 0
Flags: HMW
LayerCount: 2
Fore
SplineSet
59 55 m 1
 79 55 l 1
 70 0 l 1
 50 0 l 1
 59 55 l 1
537 516 m 5
 548 585 502 645 405 645 c 0
 306 645 237 580 188 497 c 1
 135 523 l 1
 194 629 298 710 416 710 c 0
 545 710 620 615 604 516 c 1
 537 516 l 5
70 0 m 1
 81 65 l 1
 561 65 l 1
 550 0 l 1
 70 0 l 1
401 255 m 2
 149 55 l 1
 59 55 l 1
 362 300 l 2
 473 389 525 445 537 516 c 5
 604 516 l 1
 586 406 519 349 401 255 c 2
EndSplineSet
EndChar

StartChar: nine
Encoding: 57 57 61
Width: 600
VWidth: 0
Flags: HMW
LayerCount: 2
Fore
SplineSet
568 480 m 1
 603 480 l 1
 582 351 461 255 312 255 c 1
 350 310 l 1
 452 310 552 380 568 480 c 1
568 480 m 0
 584 580 508 650 406 650 c 0
 294 650 204 580 188 480 c 0
 172 380 238 310 350 310 c 1
 312 255 l 1
 183 255 107 351 128 480 c 0
 149 609 267 710 416 710 c 0
 565 710 649 609 628 480 c 0
 619 423 587 373 545 323 c 2
 271 0 l 1
 187 0 l 1
 495 348 l 1
 486 315 l 1
 529 344 560 429 568 480 c 0
EndSplineSet
EndChar

StartChar: three
Encoding: 51 51 62
Width: 600
VWidth: 0
Flags: HMW
LayerCount: 2
Fore
SplineSet
313 384 m 5
 490 384 608 357 582 197 c 4
 559 57 425 -10 298 -10 c 0
 208 -10 118 14 66 99 c 1
 120 144 l 1
 152 89 231 54 309 54 c 4
 402 54 502 106 517 197 c 4
 533 296 458 335 305 335 c 5
 313 384 l 5
173 602 m 1
 231 660 302 710 416 710 c 0
 550 710 622 629 606 530 c 4
 585 401 481 350 307 350 c 1
 315 400 l 1
 445 400 529 452 540 520 c 0
 553 598 505 645 405 645 c 0
 322 645 262 605 214 557 c 1
 173 602 l 1
EndSplineSet
EndChar

StartChar: eight
Encoding: 56 56 63
Width: 600
VWidth: 0
Flags: HMW
LayerCount: 2
Fore
SplineSet
230 520 m 0
 217 442 284 395 364 395 c 0
 454 395 527 442 540 520 c 0
 553 598 495 645 405 645 c 0
 315 645 243 598 230 520 c 0
166 530 m 0
 182 629 292 710 416 710 c 0
 540 710 622 629 606 530 c 0
 587 411 481 350 357 350 c 0
 233 350 147 411 166 530 c 0
80 187 m 0
 103 327 226 384 363 384 c 0
 500 384 603 327 580 187 c 0
 560 67 435 -10 298 -10 c 0
 161 -10 60 67 80 187 c 0
147 197 m 0
 131 98 206 54 309 54 c 0
 412 54 501 98 517 197 c 0
 533 296 458 340 355 340 c 0
 252 340 163 296 147 197 c 0
EndSplineSet
EndChar

StartChar: four
Encoding: 52 52 64
Width: 600
VWidth: 0
Flags: HMW
LayerCount: 2
Fore
SplineSet
73 200 m 1
 93 200 l 1
 84 145 l 1
 64 145 l 1
 73 200 l 1
94 210 m 1
 584 210 l 1
 574 145 l 1
 84 145 l 1
 94 210 l 1
584 700 m 1
 580 676 l 1
 505 676 l 1
 509 700 l 1
 584 700 l 1
509 700 m 1
 567 679 l 5
 148 200 l 1
 73 200 l 1
 509 700 l 1
516 680 m 1
 584 700 l 1
 470 0 l 1
 405 0 l 1
 516 680 l 1
EndSplineSet
EndChar

StartChar: five
Encoding: 53 53 65
Width: 600
VWidth: 0
Flags: HMW
LayerCount: 2
Fore
SplineSet
121 311 m 1
 136 346 l 1
 171 346 l 1
 166 311 l 1
 121 311 l 1
394 455 m 1
 521 455 609 360 586 220 c 0
 562 70 425 -10 298 -10 c 0
 208 -10 118 14 66 99 c 1
 120 146 l 1
 152 91 226 56 309 56 c 0
 402 56 503 111 521 220 c 4
 537 319 487 390 364 390 c 5
 394 455 l 1
121 311 m 1
 244 700 l 1
 304 700 l 1
 196 341 l 1
 121 311 l 1
244 700 m 1
 624 700 l 1
 613 635 l 1
 233 635 l 1
 244 700 l 1
364 390 m 5
 277 390 214 360 166 311 c 1
 151 311 l 1
 195 400 255 455 394 455 c 1
 364 390 l 5
EndSplineSet
EndChar

StartChar: seven
Encoding: 55 55 66
Width: 600
VWidth: 0
Flags: HMW
LayerCount: 2
Fore
SplineSet
657 650 m 1
 241 0 l 1
 170 0 l 5
 586 650 l 5
 657 650 l 1
644 700 m 1
 665 700 l 1
 657 650 l 1
 636 650 l 1
 644 700 l 1
164 700 m 1
 644 700 l 1
 633 635 l 1
 153 635 l 1
 164 700 l 1
EndSplineSet
EndChar

StartChar: exclam
Encoding: 33 33 67
Width: 230
VWidth: 0
Flags: HMW
LayerCount: 2
Fore
SplineSet
68 45 m 4
 73 75 101 100 131 100 c 4
 161 100 181 75 176 45 c 4
 171 15 143 -10 113 -10 c 4
 83 -10 63 15 68 45 c 4
156 490 m 1
 234 490 l 1
 173 250 l 5
 139 250 l 1
 156 490 l 1
195 730 m 1
 273 730 l 1
 234 490 l 1
 156 490 l 1
 195 730 l 1
EndSplineSet
EndChar

StartChar: quotedbl
Encoding: 34 34 68
Width: 340
VWidth: 0
Flags: HMW
LayerCount: 2
Fore
SplineSet
147 689 m 4
 152 719 176 740 206 740 c 0
 236 740 252 719 247 689 c 4
 246 683 245 678 243 672 c 6
 180 480 l 1
 146 480 l 1
 146 672 l 6
 146 678 146 683 147 689 c 4
317 689 m 4
 322 719 346 740 376 740 c 0
 406 740 422 719 417 689 c 4
 416 683 415 678 413 672 c 6
 350 480 l 1
 316 480 l 1
 316 672 l 6
 316 678 316 683 317 689 c 4
EndSplineSet
EndChar

StartChar: quotesingle
Encoding: 39 39 69
Width: 170
VWidth: 0
Flags: HMW
LayerCount: 2
Fore
SplineSet
147 689 m 4
 152 719 176 740 206 740 c 0
 236 740 252 719 247 689 c 4
 246 683 245 678 243 672 c 6
 180 480 l 1
 146 480 l 1
 146 672 l 6
 146 678 146 683 147 689 c 4
EndSplineSet
EndChar

StartChar: numbersign
Encoding: 35 35 70
Width: 810
VWidth: 0
Flags: HMW
LayerCount: 2
Fore
SplineSet
747 230 m 5
 739 175 l 1
 89 175 l 1
 97 230 l 5
 747 230 l 5
836 525 m 1
 827 470 l 1
 177 470 l 1
 186 525 l 1
 836 525 l 1
689 700 m 1
 749 700 l 1
 515 0 l 1
 455 0 l 1
 689 700 l 1
409 700 m 1
 469 700 l 1
 235 0 l 1
 175 0 l 1
 409 700 l 1
EndSplineSet
EndChar

StartChar: percent
Encoding: 37 37 71
Width: 940
VWidth: 0
Flags: HMW
LayerCount: 2
Fore
SplineSet
609 180 m 0
 596 100 646 35 726 35 c 0
 806 35 876 100 889 180 c 0
 902 260 853 325 773 325 c 0
 693 325 622 260 609 180 c 0
170 550 m 0
 157 470 206 405 286 405 c 0
 366 405 437 470 450 550 c 0
 463 630 413 695 333 695 c 0
 253 695 183 630 170 550 c 0
120 550 m 0
 137 655 236 740 341 740 c 0
 446 740 517 655 500 550 c 0
 483 445 384 360 279 360 c 0
 174 360 103 445 120 550 c 0
559 180 m 0
 576 285 675 370 780 370 c 0
 885 370 956 285 939 180 c 0
 922 75 823 -10 718 -10 c 0
 613 -10 542 75 559 180 c 0
829 730 m 1
 889 730 l 1
 230 0 l 1
 170 0 l 1
 829 730 l 1
EndSplineSet
EndChar

StartChar: dollar
Encoding: 36 36 72
Width: 600
VWidth: 0
Flags: HMW
LayerCount: 2
Fore
SplineSet
522 195 m 1
 587 195 l 1
 566 66 465 -10 316 -10 c 0
 187 -10 111 56 58 113 c 1
 111 166 l 1
 152 122 219 55 327 55 c 0
 420 55 506 95 522 195 c 1
231 532 m 1
 166 527 l 1
 184 638 302 710 421 710 c 0
 520 710 595 674 639 622 c 1
 589 574 l 1
 551 618 478 645 420 645 c 0
 317 645 242 599 231 532 c 1
383 397 m 4
 506 377 609 330 587 195 c 1
 522 195 l 1
 535 276 465 319 368 332 c 0
 240 349 147 412 166 527 c 1
 231 532 l 1
 217 447 280 414 383 397 c 4
418 780 m 1
 468 780 l 5
 328 -80 l 5
 278 -80 l 1
 418 780 l 1
EndSplineSet
EndChar

StartChar: asterisk
Encoding: 42 42 73
Width: 324
VWidth: 0
Flags: HMW
LayerCount: 2
Fore
SplineSet
121 488 m 5
 107 522 l 5
 391 672 l 5
 406 638 l 5
 121 488 l 5
126 638 m 5
 151 672 l 5
 387 522 l 5
 361 488 l 5
 126 638 l 5
261 730 m 5
 301 730 l 5
 252 430 l 5
 212 430 l 5
 261 730 l 5
EndSplineSet
EndChar

StartChar: slash
Encoding: 47 47 74
Width: 430
VWidth: 0
Flags: HMW
LayerCount: 2
Fore
SplineSet
527 780 m 1
 577 780 l 1
 17 -80 l 5
 -33 -80 l 1
 527 780 l 1
EndSplineSet
EndChar

StartChar: ampersand
Encoding: 38 38 75
Width: 715
VWidth: 0
Flags: HMW
LayerCount: 2
Fore
SplineSet
368 385 m 0
 448 406 530 460 541 530 c 1
 601 530 l 1
 586 435 487 367 391 345 c 0
 289 322 177 291 161 190 c 1
 101 190 l 1
 124 330 258 356 368 385 c 0
301 530 m 1
 241 530 l 1
 259 639 342 710 451 710 c 0
 560 710 619 639 601 530 c 1
 541 530 l 1
 554 609 507 645 440 645 c 0
 373 645 314 609 301 530 c 1
348 291 m 2
 272 392 226 440 241 530 c 1
 301 530 l 1
 288 449 331 422 401 326 c 2
 665 0 l 1
 585 0 l 1
 348 291 l 2
644 307 m 5
 696 284 l 1
 638 115 487 -10 318 -10 c 0
 169 -10 82 71 101 190 c 1
 161 190 l 1
 148 111 221 50 338 50 c 0
 465 50 576 138 644 307 c 5
EndSplineSet
EndChar

StartChar: parenleft
Encoding: 40 40 76
Width: 275
VWidth: 0
Flags: HMW
LayerCount: 2
Fore
SplineSet
336 740 m 1
 372 720 l 5
 150 460 86 70 224 -190 c 5
 181 -210 l 1
 11 100 66 430 336 740 c 1
EndSplineSet
EndChar

StartChar: parenright
Encoding: 41 41 77
Width: 275
VWidth: 0
Flags: HMW
LayerCount: 2
Fore
SplineSet
26 -210 m 1
 -11 -190 l 5
 211 70 275 460 137 720 c 5
 181 740 l 1
 351 430 296 100 26 -210 c 1
EndSplineSet
EndChar

StartChar: hyphen
Encoding: 45 45 78
Width: 430
VWidth: 0
Flags: HMW
LayerCount: 2
Fore
SplineSet
118 325 m 5
 418 325 l 5
 409 270 l 1
 109 270 l 1
 118 325 l 5
EndSplineSet
EndChar

StartChar: plus
Encoding: 43 43 79
Width: 510
VWidth: 0
Flags: HMW
LayerCount: 2
Fore
SplineSet
381 589 m 1
 307 134 l 1
 247 134 l 1
 321 589 l 1
 381 589 l 1
93 389 m 1
 543 389 l 1
 534 334 l 5
 84 334 l 5
 93 389 l 1
EndSplineSet
EndChar

StartChar: equal
Encoding: 61 61 80
Width: 510
VWidth: 0
Flags: HMW
LayerCount: 2
Fore
SplineSet
73 265 m 1
 523 265 l 1
 514 210 l 1
 64 210 l 1
 73 265 l 1
111 500 m 1
 561 500 l 1
 552 445 l 1
 102 445 l 1
 111 500 l 1
EndSplineSet
EndChar

StartChar: backslash
Encoding: 92 92 81
Width: 430
VWidth: 0
Flags: HMW
LayerCount: 2
Fore
SplineSet
157 780 m 1
 437 -80 l 1
 387 -80 l 5
 107 780 l 1
 157 780 l 1
EndSplineSet
EndChar

StartChar: less
Encoding: 60 60 82
Width: 510
VWidth: 0
Flags: HMW
LayerCount: 2
Fore
SplineSet
94 395 m 5
 512 195 l 5
 500 120 l 5
 82 320 l 5
 94 395 l 5
94 395 m 5
 577 595 l 5
 565 520 l 5
 82 320 l 5
 94 395 l 5
EndSplineSet
EndChar

StartChar: greater
Encoding: 62 62 83
Width: 510
VWidth: 0
Flags: HMW
LayerCount: 2
Fore
SplineSet
538 320 m 5
 121 520 l 5
 133 595 l 5
 550 395 l 5
 538 320 l 5
538 320 m 5
 56 120 l 5
 68 195 l 5
 550 395 l 5
 538 320 l 5
EndSplineSet
EndChar

StartChar: question
Encoding: 63 63 84
Width: 555
VWidth: 0
Flags: HMW
LayerCount: 2
Fore
SplineSet
213 45 m 4
 218 75 246 100 276 100 c 4
 306 100 326 75 321 45 c 4
 316 15 288 -10 258 -10 c 4
 228 -10 208 15 213 45 c 4
407 436 m 0
 467 464 516 494 526 556 c 1
 591 556 l 1
 576 461 517 422 433 384 c 0
 370 356 339 331 326 250 c 1
 266 250 l 1
 270 400 332 401 407 436 c 0
526 556 m 1
 537 625 492 675 395 675 c 0
 296 675 234 623 189 560 c 1
 137 593 l 1
 193 679 283 740 406 740 c 0
 540 740 607 655 591 556 c 1
 526 556 l 1
EndSplineSet
EndChar

StartChar: at
Encoding: 64 64 85
Width: 1050
VWidth: 0
Flags: HMW
LayerCount: 2
Fore
SplineSet
762 260 m 0
 783 389 709 470 602 470 c 0
 495 470 398 389 377 260 c 0
 356 131 426 50 533 50 c 0
 640 50 741 131 762 260 c 0
797 260 m 0
 771 101 672 -10 513 -10 c 0
 384 -10 286 101 312 260 c 0
 338 419 472 530 601 530 c 0
 760 530 823 419 797 260 c 0
865 520 m 1
 800 120 l 1
 736 100 l 1
 805 520 l 1
 865 520 l 1
97 260 m 0
 139 519 365 730 644 730 c 0
 903 730 1086 559 1044 300 c 0
 1006 64 882 -10 806 -10 c 4
 742 -10 727 43 736 100 c 1
 800 120 l 1
 790 61 797 33 833 33 c 4
 894 33 983 116 1013 300 c 0
 1053 543 882 701 639 701 c 0
 376 701 168 503 128 260 c 0
 88 17 253 -181 496 -181 c 1
 491 -210 l 1
 232 -210 55 1 97 260 c 0
EndSplineSet
EndChar

StartChar: bracketleft
Encoding: 91 91 86
Width: 295
VWidth: 0
Flags: HMW
LayerCount: 2
Fore
SplineSet
215 674 m 1
 224 730 l 1
 394 730 l 1
 385 674 l 1
 215 674 l 1
72 -200 m 1
 82 -144 l 5
 252 -144 l 5
 242 -200 l 1
 72 -200 l 1
164 730 m 1
 224 730 l 1
 72 -200 l 1
 12 -200 l 1
 164 730 l 1
EndSplineSet
EndChar

StartChar: bracketright
Encoding: 93 93 87
Width: 295
VWidth: 0
Flags: HMW
LayerCount: 2
Fore
SplineSet
167 -144 m 1
 157 -200 l 1
 -13 -200 l 1
 -3 -144 l 1
 167 -144 l 1
309 730 m 1
 300 674 l 5
 130 674 l 5
 139 730 l 1
 309 730 l 1
217 -200 m 1
 157 -200 l 1
 309 730 l 1
 369 730 l 1
 217 -200 l 1
EndSplineSet
EndChar

StartChar: asciicircum
Encoding: 94 94 88
Width: 510
VWidth: 0
Flags: HMW
LayerCount: 2
Fore
SplineSet
510 430 m 5
 349 730 l 1
 399 730 l 1
 560 430 l 1
 510 430 l 5
349 730 m 1
 399 730 l 1
 140 430 l 1
 90 430 l 1
 349 730 l 1
EndSplineSet
EndChar

StartChar: underscore
Encoding: 95 95 89
Width: 600
VWidth: 0
Flags: HMW
LayerCount: 2
Fore
SplineSet
-17 -90 m 5
 587 -90 l 5
 578 -150 l 1
 -26 -150 l 1
 -17 -90 l 5
EndSplineSet
EndChar

StartChar: braceleft
Encoding: 123 123 90
Width: 349
VWidth: 0
Flags: HMW
LayerCount: 2
Fore
SplineSet
93 295 m 1
 111 295 l 1
 101 235 l 1
 83 235 l 1
 93 295 l 1
171 150 m 1
 231 150 l 1
 199 -50 l 1
 139 -50 l 1
 171 150 l 1
241 580 m 1
 301 580 l 1
 269 380 l 1
 209 380 l 1
 241 580 l 1
209 380 m 1
 269 380 l 1
 256 301 211 250 92 250 c 1
 93 295 l 1
 181 295 202 340 209 380 c 1
171 150 m 1
 178 190 161 235 83 235 c 1
 97 280 l 1
 216 280 244 229 231 150 c 1
 171 150 l 1
301 580 m 5
 241 580 l 1
 254 659 323 730 442 730 c 1
 439 675 l 1
 361 675 311 640 301 580 c 5
199 -50 m 5
 189 -110 227 -145 305 -145 c 5
 290 -200 l 1
 171 -200 126 -129 139 -50 c 1
 199 -50 l 5
EndSplineSet
EndChar

StartChar: braceright
Encoding: 125 125 91
Width: 349
VWidth: 0
Flags: HMW
LayerCount: 2
Fore
SplineSet
367 235 m 1
 349 235 l 1
 359 295 l 1
 377 295 l 1
 367 235 l 1
289 380 m 1
 229 380 l 1
 261 580 l 1
 321 580 l 1
 289 380 l 1
219 -50 m 1
 159 -50 l 1
 191 150 l 1
 251 150 l 1
 219 -50 l 1
251 150 m 1
 191 150 l 1
 204 229 250 280 369 280 c 1
 367 235 l 1
 279 235 258 190 251 150 c 1
289 380 m 1
 282 340 299 295 377 295 c 1
 364 250 l 1
 245 250 216 301 229 380 c 1
 289 380 l 1
159 -50 m 5
 219 -50 l 1
 206 -129 137 -200 18 -200 c 1
 21 -145 l 1
 99 -145 149 -110 159 -50 c 5
261 580 m 5
 271 640 233 675 155 675 c 5
 170 730 l 1
 289 730 334 659 321 580 c 1
 261 580 l 5
EndSplineSet
EndChar

StartChar: bar
Encoding: 124 124 92
Width: 300
VWidth: 0
Flags: HMW
LayerCount: 2
Fore
SplineSet
312 780 m 5
 172 -80 l 5
 102 -80 l 5
 242 780 l 5
 312 780 l 5
EndSplineSet
EndChar

StartChar: asciitilde
Encoding: 126 126 93
Width: 470
VWidth: 0
Flags: HMW
LayerCount: 2
Fore
SplineSet
143 174 m 5
 77 194 l 5
 94 272 148 311 199 311 c 4
 263 311 308 247 352 247 c 4
 397 247 410 277 416 314 c 5
 473 294 l 5
 454 206 403 177 353 177 c 4
 291 177 250 241 207 241 c 4
 163 241 149 211 143 174 c 5
EndSplineSet
EndChar

StartChar: quoteleft
Encoding: 8216 8216 94
Width: 214
VWidth: 0
Flags: HMW
LayerCount: 2
Fore
SplineSet
223 555 m 0
 218 525 190 500 158 500 c 4
 128 500 105 520 111 555 c 0
 113 569 121 581 130 593 c 2
 233 730 l 1
 268 730 l 1
 193 608 l 1
 214 601 227 580 223 555 c 0
EndSplineSet
EndChar

StartChar: quoteright
Encoding: 8217 8217 95
Width: 214
VWidth: 0
Flags: HMW
LayerCount: 2
Fore
SplineSet
189 665 m 0
 194 695 222 720 254 720 c 4
 284 720 307 700 301 665 c 0
 299 651 292 639 283 627 c 2
 180 490 l 1
 145 490 l 1
 220 612 l 1
 199 619 185 640 189 665 c 0
EndSplineSet
EndChar

StartChar: quotedblleft
Encoding: 8220 8220 96
Width: 384
VWidth: 0
Flags: HMW
LayerCount: 2
Fore
SplineSet
223 555 m 0
 218 525 190 500 158 500 c 4
 128 500 105 520 111 555 c 0
 113 569 121 581 130 593 c 2
 233 730 l 1
 268 730 l 1
 193 608 l 1
 214 601 227 580 223 555 c 0
393 555 m 0
 388 525 360 500 328 500 c 4
 298 500 275 520 281 555 c 0
 283 569 291 581 300 593 c 2
 403 730 l 1
 438 730 l 1
 363 608 l 1
 384 601 397 580 393 555 c 0
EndSplineSet
EndChar

StartChar: quotedblright
Encoding: 8221 8221 97
Width: 384
VWidth: 0
Flags: HMW
LayerCount: 2
Fore
SplineSet
359 665 m 0
 364 695 392 720 424 720 c 4
 454 720 477 700 471 665 c 0
 469 651 462 639 453 627 c 2
 350 490 l 1
 315 490 l 1
 390 612 l 1
 369 619 355 640 359 665 c 0
189 665 m 0
 194 695 222 720 254 720 c 4
 284 720 307 700 301 665 c 0
 299 651 292 639 283 627 c 2
 180 490 l 1
 145 490 l 1
 220 612 l 1
 199 619 185 640 189 665 c 0
EndSplineSet
EndChar

StartChar: tilde
Encoding: 732 732 98
Width: 500
VWidth: 0
Flags: HMW
AnchorPoint: "dot" 250 610 basechar 0
LayerCount: 2
Fore
SplineSet
218 600 m 1
 161 620 l 1
 178 698 232 737 283 737 c 0
 347 737 401 663 445 663 c 4
 490 663 505 703 511 740 c 1
 557 720 l 1
 538 632 487 603 437 603 c 0
 375 603 326 677 283 677 c 0
 239 677 224 637 218 600 c 1
EndSplineSet
EndChar

StartChar: dotaccent
Encoding: 729 729 99
Width: 500
VWidth: 0
Flags: HMW
AnchorPoint: "dot" 250 590 basechar 0
LayerCount: 2
Fore
SplineSet
299 635 m 0
 304 665 332 690 362 690 c 0
 392 690 412 665 407 635 c 0
 402 605 374 580 344 580 c 0
 314 580 294 605 299 635 c 0
EndSplineSet
EndChar

StartChar: ring
Encoding: 730 730 100
Width: 500
VWidth: 0
Flags: HMW
AnchorPoint: "ring" 250 590 basechar 0
LayerCount: 2
Fore
SplineSet
311 680 m 0
 306 651 324 630 353 630 c 0
 382 630 406 651 411 680 c 0
 416 709 398 730 369 730 c 4
 340 730 316 709 311 680 c 0
261 680 m 0
 270 735 322 780 377 780 c 0
 432 780 470 735 461 680 c 0
 452 625 399 580 344 580 c 0
 289 580 252 625 261 680 c 0
EndSplineSet
EndChar

StartChar: breve
Encoding: 728 728 101
Width: 500
VWidth: 0
Flags: HMW
AnchorPoint: "dot" 244 579 basechar 0
LayerCount: 2
Fore
SplineSet
350 649 m 1
 290 649 250 683 258 731 c 1
 192 725 l 1
 178 636 239 579 338 579 c 1
 350 649 l 1
350 649 m 1
 338 579 l 1
 437 579 518 636 532 725 c 1
 468 731 l 5
 460 683 410 649 350 649 c 1
EndSplineSet
EndChar

StartChar: circumflex
Encoding: 710 710 102
Width: 500
VWidth: 0
Flags: HMW
AnchorPoint: "dot" 250 630 basechar 0
LayerCount: 2
Fore
SplineSet
418 630 m 1
 334 730 l 1
 404 730 l 1
 488 630 l 1
 418 630 l 1
334 730 m 1
 404 730 l 1
 288 630 l 1
 218 630 l 1
 334 730 l 1
EndSplineSet
EndChar

StartChar: caron
Encoding: 711 711 103
Width: 500
VWidth: 0
Flags: HMW
AnchorPoint: "dot" 250 630 basechar 0
LayerCount: 2
Fore
SplineSet
304 730 m 1
 388 630 l 1
 318 630 l 1
 234 730 l 1
 304 730 l 1
388 630 m 1
 318 630 l 1
 434 730 l 1
 504 730 l 1
 388 630 l 1
EndSplineSet
EndChar

StartChar: exclamdown
Encoding: 161 161 104
Width: 190
VWidth: 0
Flags: HMW
LayerCount: 2
Fore
SplineSet
226 475 m 4
 221 445 193 420 163 420 c 4
 133 420 113 445 118 475 c 4
 123 505 151 530 181 530 c 4
 211 530 231 505 226 475 c 4
139 30 m 1
 61 30 l 1
 122 270 l 5
 156 270 l 1
 139 30 l 1
100 -210 m 1
 22 -210 l 1
 61 30 l 1
 139 30 l 1
 100 -210 l 1
EndSplineSet
EndChar

StartChar: cent
Encoding: 162 162 105
Width: 600
VWidth: 0
Flags: HMW
LayerCount: 2
Fore
SplineSet
172 260 m 4
 153 141 226 50 343 50 c 4
 415 50 478 85 523 134 c 5
 558 92 l 5
 501 28 420 -10 333 -10 c 4
 184 -10 83 111 107 260 c 4
 131 409 272 530 421 530 c 4
 508 530 575 491 612 428 c 5
 564 386 l 5
 535 435 484 470 412 470 c 4
 295 470 191 379 172 260 c 4
413 600 m 1
 453 600 l 1
 342 -80 l 1
 302 -80 l 1
 413 600 l 1
EndSplineSet
EndChar

StartChar: questiondown
Encoding: 191 191 106
Width: 555
VWidth: 0
Flags: HMW
LayerCount: 2
Fore
SplineSet
426 475 m 4
 421 445 393 420 363 420 c 4
 333 420 313 445 318 475 c 4
 323 505 351 530 381 530 c 4
 411 530 431 505 426 475 c 4
233 84 m 0
 173 56 124 26 114 -36 c 1
 49 -36 l 1
 64 59 123 98 207 136 c 0
 270 164 301 189 314 270 c 1
 374 270 l 1
 370 120 308 119 233 84 c 0
114 -36 m 1
 103 -105 148 -155 245 -155 c 0
 344 -155 405 -103 450 -40 c 1
 503 -73 l 1
 447 -159 357 -220 234 -220 c 0
 100 -220 33 -135 49 -36 c 1
 114 -36 l 1
EndSplineSet
EndChar

StartChar: uni0203
Encoding: 515 515 107
Width: 580
VWidth: 0
Flags: HMW
LayerCount: 2
Fore
SplineSet
371 312 m 1
 521 312 l 1
 513 263 l 1
 393 263 l 1
 371 312 l 1
494 330 m 1
 509 420 481 475 365 475 c 1
 380 530 l 1
 523 530 578 449 559 330 c 1
 494 330 l 1
365 475 m 1
 283 475 236 443 180 403 c 1
 153 450 l 1
 218 499 278 530 380 530 c 1
 365 475 l 1
494 330 m 1
 559 330 l 1
 505 0 l 1
 440 0 l 1
 494 330 l 1
134 160 m 1
 121 82 170 50 278 50 c 4
 366 50 456 100 469 180 c 1
 504 180 l 1
 486 71 387 -10 238 -10 c 0
 139 -10 50 41 69 160 c 1
 134 160 l 1
371 312 m 1
 393 263 l 1
 244 263 148 245 134 160 c 1
 69 160 l 1
 91 295 234 312 371 312 c 1
403 672 m 1
 343 672 293 638 285 590 c 1
 221 596 l 1
 235 685 316 742 415 742 c 1
 403 672 l 1
403 672 m 1
 415 742 l 1
 514 742 575 685 561 596 c 1
 495 590 l 5
 503 638 463 672 403 672 c 1
EndSplineSet
EndChar

StartChar: sterling
Encoding: 163 163 108
Width: 600
VWidth: 0
Flags: HMW
LayerCount: 2
Fore
SplineSet
151 35 m 1
 77 -1 l 1
 292 273 160 279 201 530 c 1
 261 530 l 1
 231 346 329 210 151 35 c 1
141 -25 m 1
 77 -1 l 1
 164 77 202 92 273 92 c 0
 337 92 367 28 411 28 c 4
 466 28 495 55 521 92 c 5
 566 70 l 1
 527 -18 459 -32 409 -32 c 0
 327 -32 282 42 239 42 c 0
 195 42 167 12 141 -25 c 1
106 375 m 1
 404 375 l 1
 394 315 l 1
 96 315 l 1
 106 375 l 1
410 645 m 1
 415 710 l 1
 497 710 559 669 586 610 c 1
 546 561 l 1
 525 600 484 645 410 645 c 1
261 530 m 1
 201 530 l 1
 217 629 306 710 415 710 c 1
 410 645 l 1
 325 645 271 589 261 530 c 1
EndSplineSet
EndChar

StartChar: currency
Encoding: 164 164 109
Width: 600
VWidth: 0
Flags: HMW
LayerCount: 2
Fore
SplineSet
186 316 m 0
 171 225 234 151 325 151 c 0
 416 151 501 225 516 316 c 0
 531 407 469 481 378 481 c 0
 287 481 201 407 186 316 c 0
170 194 m 1
 204 153 l 1
 92 57 l 1
 58 98 l 1
 170 194 l 1
442 158 m 1
 489 199 l 1
 574 98 l 1
 526 57 l 1
 442 158 l 1
610 573 m 1
 645 532 l 1
 513 419 l 1
 479 460 l 1
 610 573 l 1
129 532 m 1
 176 573 l 5
 271 460 l 5
 223 419 l 1
 129 532 l 1
135 315 m 0
 154 434 267 531 386 531 c 0
 505 531 586 434 567 315 c 0
 548 196 435 99 316 99 c 0
 197 99 116 196 135 315 c 0
EndSplineSet
EndChar

StartChar: yen
Encoding: 165 165 110
Width: 600
VWidth: 0
Flags: HMW
LayerCount: 2
Fore
SplineSet
320 295 m 1
 381 295 l 1
 333 0 l 1
 271 0 l 1
 320 295 l 1
144 700 m 1
 214 700 l 1
 372 295 l 1
 333 217 l 1
 144 700 l 1
618 700 m 5
 688 700 l 1
 342 217 l 1
 328 295 l 5
 618 700 l 5
55 152 m 1
 595 152 l 1
 589 116 l 1
 49 116 l 1
 55 152 l 1
79 304 m 1
 619 304 l 1
 614 268 l 1
 74 268 l 1
 79 304 l 1
EndSplineSet
EndChar

StartChar: brokenbar
Encoding: 166 166 111
Width: 300
VWidth: 0
Flags: HMW
LayerCount: 2
Fore
SplineSet
260 460 m 5
 190 460 l 5
 242 780 l 1
 312 780 l 1
 260 460 l 5
231 280 m 1
 172 -80 l 1
 102 -80 l 1
 161 280 l 1
 231 280 l 1
EndSplineSet
EndChar

StartChar: section
Encoding: 167 167 112
Width: 520
VWidth: 0
Flags: HMW
LayerCount: 2
Fore
SplineSet
438 140 m 1
 498 140 l 1
 485 61 412 -10 273 -10 c 0
 164 -10 106 37 62 104 c 1
 111 143 l 1
 149 93 196 55 284 55 c 0
 367 55 428 80 438 140 c 1
315 277 m 0
 429 258 518 260 498 140 c 1
 438 140 l 1
 448 200 398 208 292 223 c 0
 191 238 63 328 227 473 c 1
 277 473 l 1
 156 343 220 293 315 277 c 0
243 573 m 1
 183 573 l 1
 195 649 282 710 391 710 c 0
 500 710 545 670 580 628 c 1
 534 583 l 1
 501 616 469 649 381 649 c 0
 293 649 248 605 243 573 c 1
375 493 m 0
 489 474 615 396 451 246 c 5
 401 246 l 5
 522 376 457 422 351 437 c 0
 250 452 168 478 183 573 c 1
 243 573 l 1
 235 523 280 509 375 493 c 0
EndSplineSet
EndChar

StartChar: dieresis
Encoding: 168 168 113
Width: 500
VWidth: 0
Flags: HMW
AnchorPoint: "dot" 250 590 basechar 0
LayerCount: 2
Fore
SplineSet
189 635 m 0
 194 665 222 690 252 690 c 0
 282 690 302 665 297 635 c 0
 292 605 264 580 234 580 c 0
 204 580 184 605 189 635 c 0
409 635 m 0
 414 665 442 690 472 690 c 0
 502 690 522 665 517 635 c 0
 512 605 484 580 454 580 c 0
 424 580 404 605 409 635 c 0
EndSplineSet
EndChar

StartChar: copyright
Encoding: 169 169 114
Width: 850
VWidth: 0
Flags: HMW
LayerCount: 2
Fore
SplineSet
348 350 m 4
 334 267 386 205 466 205 c 0
 510 205 553 226 584 256 c 1
 604 232 l 1
 565 194 514 170 461 170 c 0
 363 170 297 250 313 350 c 4
 329 450 421 530 519 530 c 0
 572 530 617 506 643 468 c 1
 615 444 l 1
 593 474 558 495 514 495 c 0
 434 495 362 433 348 350 c 4
170 350 m 0
 141 174 259 30 430 30 c 0
 601 30 765 174 794 350 c 0
 823 526 705 670 534 670 c 0
 363 670 199 526 170 350 c 0
127 350 m 0
 159 549 346 710 541 710 c 0
 736 710 869 549 837 350 c 0
 805 151 618 -10 423 -10 c 0
 228 -10 95 151 127 350 c 0
EndSplineSet
EndChar

StartChar: ordfeminine
Encoding: 170 170 115
Width: 535
VWidth: 0
Flags: HMW
LayerCount: 2
Fore
SplineSet
377 547 m 1
 490 547 l 1
 484 510 l 1
 394 510 l 1
 377 547 l 1
469 560 m 1
 480 628 460 669 373 669 c 1
 384 710 l 1
 491 710 533 649 518 560 c 1
 469 560 l 1
373 669 m 1
 311 669 276 645 234 615 c 1
 214 650 l 1
 263 687 308 710 384 710 c 1
 373 669 l 1
469 560 m 1
 518 560 l 1
 478 313 l 1
 429 313 l 1
 469 560 l 1
200 433 m 1
 190 375 227 350 308 350 c 4
 374 350 441 388 451 448 c 1
 477 448 l 1
 464 366 390 306 278 306 c 0
 204 306 136 344 151 433 c 1
 200 433 l 1
377 547 m 1
 394 510 l 1
 282 510 210 497 200 433 c 1
 151 433 l 1
 167 534 274 547 377 547 c 1
130 248 m 5
 463 248 l 5
 457 207 l 1
 124 207 l 1
 130 248 l 5
EndSplineSet
EndChar

StartChar: registered
Encoding: 174 174 116
Width: 850
VWidth: 0
Flags: HMW
LayerCount: 2
Fore
SplineSet
508 342 m 1
 557 342 596 369 603 414 c 0
 610 459 581 490 532 490 c 1
 538 525 l 1
 602 525 648 476 638 414 c 0
 628 352 566 306 502 306 c 1
 508 342 l 1
481 335 m 5
 523 335 l 1
 617 175 l 1
 575 175 l 5
 481 335 l 5
388 525 m 1
 423 525 l 1
 366 175 l 1
 331 175 l 1
 388 525 l 1
390 525 m 1
 538 525 l 1
 532 490 l 1
 384 490 l 1
 390 525 l 1
360 342 m 1
 508 342 l 1
 502 306 l 1
 354 306 l 1
 360 342 l 1
170 350 m 0
 141 174 259 30 430 30 c 0
 601 30 765 174 794 350 c 0
 823 526 705 670 534 670 c 0
 363 670 199 526 170 350 c 0
127 350 m 0
 159 549 346 710 541 710 c 0
 736 710 869 549 837 350 c 0
 805 151 618 -10 423 -10 c 0
 228 -10 95 151 127 350 c 0
EndSplineSet
EndChar

StartChar: ordmasculine
Encoding: 186 186 117
Width: 535
VWidth: 0
Flags: HMW
LayerCount: 2
Fore
SplineSet
112 248 m 5
 498 248 l 5
 492 207 l 1
 106 207 l 1
 112 248 l 5
194 510 m 0
 180 423 237 352 322 352 c 0
 407 352 488 423 502 510 c 0
 516 597 459 668 374 668 c 0
 289 668 208 597 194 510 c 0
146 510 m 0
 164 622 269 712 381 712 c 0
 493 712 569 622 551 510 c 0
 533 398 427 308 315 308 c 0
 203 308 128 398 146 510 c 0
EndSplineSet
EndChar

StartChar: plusminus
Encoding: 177 177 118
Width: 510
VWidth: 0
Flags: HMW
LayerCount: 2
Fore
SplineSet
381 589 m 1
 316 189 l 1
 256 189 l 1
 321 589 l 1
 381 589 l 1
97 413 m 1
 547 413 l 1
 539 365 l 5
 89 365 l 5
 97 413 l 1
52 135 m 5
 502 135 l 5
 493 80 l 1
 43 80 l 1
 52 135 l 5
EndSplineSet
EndChar

StartChar: degree
Encoding: 176 176 119
Width: 400
VWidth: 0
Flags: HMW
LayerCount: 2
Fore
SplineSet
241 680 m 0
 235 641 260 610 299 610 c 0
 338 610 375 641 381 680 c 0
 387 719 361 750 322 750 c 0
 283 750 247 719 241 680 c 0
211 680 m 0
 220 735 272 780 327 780 c 0
 382 780 420 735 411 680 c 0
 402 625 349 580 294 580 c 0
 239 580 202 625 211 680 c 0
EndSplineSet
EndChar

StartChar: mu
Encoding: 181 181 120
Width: 635
VWidth: 0
Flags: HMW
LayerCount: 2
Fore
SplineSet
550 0 m 1
 485 0 l 1
 570 520 l 1
 635 520 l 1
 550 0 l 1
181 220 m 1
 166 130 198 50 313 50 c 0
 421 50 506 130 524 240 c 1
 559 240 l 1
 540 121 447 -10 288 -10 c 0
 159 -10 95 91 116 220 c 1
 181 220 l 1
116 220 m 1
 165 520 l 1
 230 520 l 1
 181 220 l 1
 116 220 l 1
116 220 m 1
 196 220 l 1
 128 -198 l 1
 48 -198 l 1
 116 220 l 1
EndSplineSet
EndChar

StartChar: uni00B2
Encoding: 178 178 121
Width: 300
VWidth: 0
Flags: HMW
LayerCount: 2
Fore
SplineSet
87 383 m 1
 97 383 l 1
 93 356 l 1
 83 356 l 1
 87 383 l 1
326 614 m 5
 332 648 308 678 260 678 c 0
 210 678 176 646 152 604 c 1
 125 617 l 1
 155 670 207 710 266 710 c 0
 330 710 368 664 360 614 c 1
 326 614 l 5
93 356 m 1
 98 388 l 1
 338 388 l 1
 333 356 l 1
 93 356 l 1
258 483 m 2
 132 383 l 1
 87 383 l 1
 239 506 l 2
 294 550 320 578 326 614 c 5
 360 614 l 1
 351 559 317 530 258 483 c 2
EndSplineSet
EndChar

StartChar: uni00B3
Encoding: 179 179 122
Width: 300
VWidth: 0
Flags: HMW
LayerCount: 2
Fore
SplineSet
214 547 m 5
 302 547 362 534 349 454 c 4
 338 384 271 350 207 350 c 0
 162 350 117 362 91 404 c 1
 118 427 l 1
 134 399 173 382 212 382 c 4
 258 382 309 408 316 454 c 4
 324 504 286 522 210 522 c 5
 214 547 l 5
144 656 m 1
 173 685 209 710 266 710 c 0
 333 710 369 670 361 620 c 4
 350 556 298 530 211 530 c 1
 215 555 l 1
 280 555 322 581 328 615 c 0
 334 654 310 678 260 678 c 0
 218 678 189 658 165 634 c 1
 144 656 l 1
EndSplineSet
EndChar

StartChar: grave
Encoding: 96 96 123
Width: 320
VWidth: 0
Flags: HMW
AnchorPoint: "dot" 200 590 basechar 0
LayerCount: 2
Fore
SplineSet
286 590 m 1
 189 730 l 1
 279 730 l 5
 336 590 l 5
 286 590 l 1
EndSplineSet
EndChar

StartChar: acute
Encoding: 180 180 124
Width: 320
VWidth: 0
Flags: HMW
AnchorPoint: "dot" 120 590 basechar 0
LayerCount: 2
Fore
SplineSet
226 590 m 1
 176 590 l 5
 279 730 l 5
 369 730 l 1
 226 590 l 1
EndSplineSet
EndChar

StartChar: uni00AD
Encoding: 173 173 125
Width: 470
VWidth: 0
Flags: HMW
LayerCount: 2
Fore
SplineSet
118 325 m 5
 458 325 l 5
 449 270 l 1
 109 270 l 1
 118 325 l 5
EndSplineSet
EndChar

StartChar: logicalnot
Encoding: 172 172 126
Width: 540
VWidth: 0
Flags: HMW
LayerCount: 2
Fore
SplineSet
134 425 m 5
 474 425 l 5
 465 370 l 1
 125 370 l 1
 134 425 l 5
474 425 m 5
 544 425 l 5
 520 275 l 1
 450 275 l 1
 474 425 l 5
EndSplineSet
EndChar

StartChar: macron
Encoding: 175 175 127
Width: 300
VWidth: 0
Flags: HMW
LayerCount: 2
Fore
SplineSet
127 790 m 5
 431 790 l 5
 421 730 l 1
 117 730 l 1
 127 790 l 5
EndSplineSet
EndChar

StartChar: periodcentered
Encoding: 183 183 128
Width: 190
VWidth: 0
Flags: HMW
LayerCount: 2
Fore
SplineSet
109 295 m 4
 114 325 142 350 172 350 c 4
 202 350 222 325 217 295 c 4
 212 265 184 240 154 240 c 4
 124 240 104 265 109 295 c 4
EndSplineSet
EndChar

StartChar: uni00B9
Encoding: 185 185 129
Width: 600
VWidth: 0
Flags: HMW
LayerCount: 2
Fore
SplineSet
428 700 m 1
 426 688 l 1
 396 688 l 1
 398 700 l 1
 428 700 l 1
398 700 m 1
 410 672 l 5
 300 606 l 5
 287 635 l 1
 398 700 l 1
392 695 m 1
 428 700 l 1
 371 350 l 1
 336 350 l 1
 392 695 l 1
EndSplineSet
EndChar

StartChar: paragraph
Encoding: 182 182 130
Width: 600
VWidth: 0
Flags: HMW
LayerCount: 2
Fore
SplineSet
579 700 m 5
 572 656 l 5
 460 656 l 1
 467 700 l 1
 579 700 l 5
639 700 m 1
 525 0 l 1
 465 0 l 5
 579 700 l 5
 639 700 l 1
469 700 m 1
 355 0 l 1
 295 0 l 1
 409 700 l 1
 469 700 l 1
337 260 m 1
 238 260 132 351 153 480 c 0
 174 609 310 700 409 700 c 1
 380 520 366 440 337 260 c 1
EndSplineSet
EndChar

StartChar: cedilla
Encoding: 184 184 131
Width: 320
VWidth: 0
Flags: HMW
AnchorPoint: "ced" 146 -1 basechar 0
LayerCount: 2
Fore
SplineSet
89 30 m 5
 129 30 l 5
 173 -4 231 -44 222 -102 c 4
 214 -149 187 -184 120 -184 c 4
 83 -184 48 -170 29 -155 c 5
 54 -125 l 5
 63 -128 80 -140 110 -140 c 4
 141 -140 167 -131 172 -99 c 4
 178 -64 130 -9 89 30 c 5
EndSplineSet
EndChar

StartChar: guillemotleft
Encoding: 171 171 132
Width: 592
VWidth: 0
Flags: HMW
LayerCount: 2
Fore
SplineSet
94 395 m 5
 344 195 l 5
 332 120 l 5
 82 320 l 5
 94 395 l 5
94 395 m 5
 409 595 l 5
 397 520 l 5
 82 320 l 5
 94 395 l 5
344 395 m 5
 594 195 l 5
 582 120 l 5
 332 320 l 5
 344 395 l 5
344 395 m 5
 659 595 l 5
 647 520 l 5
 332 320 l 5
 344 395 l 5
EndSplineSet
EndChar

StartChar: guillemotright
Encoding: 187 187 133
Width: 592
VWidth: 0
Flags: HMW
LayerCount: 2
Fore
SplineSet
614 320 m 5
 365 520 l 5
 377 595 l 5
 626 395 l 5
 614 320 l 5
614 320 m 5
 300 120 l 5
 312 195 l 5
 626 395 l 5
 614 320 l 5
364 320 m 5
 115 520 l 5
 127 595 l 5
 376 395 l 5
 364 320 l 5
364 320 m 5
 50 120 l 5
 62 195 l 5
 376 395 l 5
 364 320 l 5
EndSplineSet
EndChar

StartChar: Agrave
Encoding: 192 192 134
Width: 800
VWidth: 0
Flags: HW
LayerCount: 2
Fore
SplineSet
484 700 m 1
 544 700 l 1
 532 690 l 1
 482 690 l 1
 484 700 l 1
236 260 m 1
 648 260 l 1
 637 190 l 1
 225 190 l 1
 236 260 l 1
676 0 m 1
 478 690 l 1
 544 700 l 1
 755 0 l 1
 676 0 l 1
484 700 m 1
 546 690 l 1
 124 0 l 1
 45 0 l 1
 484 700 l 1
493 770 m 1
 396 910 l 1
 486 910 l 5
 543 770 l 5
 493 770 l 1
EndSplineSet
EndChar

StartChar: Aacute
Encoding: 193 193 135
Width: 800
VWidth: 0
Flags: HW
LayerCount: 2
Fore
SplineSet
484 700 m 1
 544 700 l 1
 532 690 l 1
 482 690 l 1
 484 700 l 1
236 260 m 1
 648 260 l 1
 637 190 l 1
 225 190 l 1
 236 260 l 1
676 0 m 1
 478 690 l 1
 544 700 l 1
 755 0 l 1
 676 0 l 1
484 700 m 1
 546 690 l 1
 124 0 l 1
 45 0 l 1
 484 700 l 1
553 770 m 1
 503 770 l 5
 606 910 l 5
 696 910 l 1
 553 770 l 1
EndSplineSet
EndChar

StartChar: Acircumflex
Encoding: 194 194 136
Width: 800
VWidth: 0
Flags: HW
LayerCount: 2
Fore
SplineSet
484 700 m 1
 544 700 l 1
 532 690 l 1
 482 690 l 1
 484 700 l 1
236 260 m 1
 648 260 l 1
 637 190 l 1
 225 190 l 1
 236 260 l 1
676 0 m 1
 478 690 l 1
 544 700 l 1
 755 0 l 1
 676 0 l 1
484 700 m 1
 546 690 l 1
 124 0 l 1
 45 0 l 1
 484 700 l 1
588 770 m 1
 504 870 l 1
 574 870 l 1
 658 770 l 1
 588 770 l 1
504 870 m 1
 574 870 l 1
 458 770 l 1
 388 770 l 1
 504 870 l 1
EndSplineSet
EndChar

StartChar: Atilde
Encoding: 195 195 137
Width: 800
VWidth: 0
Flags: HW
LayerCount: 2
Fore
SplineSet
484 700 m 1
 544 700 l 1
 532 690 l 1
 482 690 l 1
 484 700 l 1
236 260 m 1
 648 260 l 1
 637 190 l 1
 225 190 l 1
 236 260 l 1
676 0 m 1
 478 690 l 1
 544 700 l 1
 755 0 l 1
 676 0 l 1
484 700 m 1
 546 690 l 1
 124 0 l 1
 45 0 l 1
 484 700 l 1
393 770 m 1
 336 790 l 1
 353 868 407 907 458 907 c 0
 522 907 576 833 620 833 c 4
 665 833 680 873 686 910 c 1
 732 890 l 1
 713 802 662 773 612 773 c 0
 550 773 501 847 458 847 c 0
 414 847 399 807 393 770 c 1
EndSplineSet
EndChar

StartChar: Adieresis
Encoding: 196 196 138
Width: 800
VWidth: 0
Flags: HW
LayerCount: 2
Fore
SplineSet
484 700 m 1
 544 700 l 1
 532 690 l 1
 482 690 l 1
 484 700 l 1
236 260 m 1
 648 260 l 1
 637 190 l 1
 225 190 l 1
 236 260 l 1
676 0 m 1
 478 690 l 1
 544 700 l 1
 755 0 l 1
 676 0 l 1
484 700 m 1
 546 690 l 1
 124 0 l 1
 45 0 l 1
 484 700 l 1
368 825 m 0
 373 855 401 880 431 880 c 0
 461 880 481 855 476 825 c 0
 471 795 443 770 413 770 c 0
 383 770 363 795 368 825 c 0
588 825 m 0
 593 855 621 880 651 880 c 0
 681 880 701 855 696 825 c 0
 691 795 663 770 633 770 c 0
 603 770 583 795 588 825 c 0
EndSplineSet
EndChar

StartChar: Aring
Encoding: 197 197 139
Width: 800
VWidth: 0
Flags: HW
LayerCount: 2
Fore
SplineSet
484 700 m 1
 544 700 l 1
 532 690 l 1
 482 690 l 1
 484 700 l 1
236 260 m 1
 648 260 l 1
 637 190 l 1
 225 190 l 1
 236 260 l 1
676 0 m 1
 478 690 l 1
 544 700 l 1
 755 0 l 1
 676 0 l 1
484 700 m 1
 546 690 l 1
 124 0 l 1
 45 0 l 1
 484 700 l 1
471 760 m 0
 466 731 484 710 513 710 c 0
 542 710 566 731 571 760 c 0
 576 789 558 810 529 810 c 4
 500 810 476 789 471 760 c 0
421 760 m 0
 430 815 483 860 538 860 c 0
 593 860 630 815 621 760 c 0
 612 705 560 660 505 660 c 0
 450 660 412 705 421 760 c 0
EndSplineSet
EndChar

StartChar: Ccedilla
Encoding: 199 199 140
Width: 732
VWidth: 0
Flags: HW
LayerCount: 2
Fore
SplineSet
197 350 m 4
 170 184 274 60 435 60 c 0
 523 60 607 100 670 161 c 1
 710 113 l 1
 633 38 529 -10 423 -10 c 0
 228 -10 95 151 127 350 c 4
 159 549 346 710 541 710 c 0
 647 710 735 662 788 587 c 1
 732 539 l 1
 689 600 617 640 529 640 c 0
 368 640 224 516 197 350 c 4
405 -3 m 5
 445 -3 l 5
 489 -37 547 -77 538 -135 c 4
 530 -182 503 -217 436 -217 c 4
 399 -217 363 -203 344 -188 c 5
 369 -158 l 5
 378 -161 396 -173 426 -173 c 4
 457 -173 483 -164 488 -132 c 4
 494 -97 446 -42 405 -3 c 5
EndSplineSet
EndChar

StartChar: Egrave
Encoding: 200 200 141
Width: 670
VWidth: 0
Flags: HW
LayerCount: 2
Fore
SplineSet
164 393 m 1
 624 393 l 1
 613 323 l 1
 153 323 l 1
 164 393 l 1
214 700 m 1
 724 700 l 1
 713 630 l 1
 203 630 l 1
 214 700 l 1
111 70 m 5
 621 70 l 5
 610 0 l 1
 100 0 l 1
 111 70 l 5
214 700 m 1
 284 700 l 1
 170 0 l 1
 100 0 l 1
 214 700 l 1
450 770 m 1
 353 910 l 1
 443 910 l 5
 500 770 l 5
 450 770 l 1
EndSplineSet
EndChar

StartChar: Eacute
Encoding: 201 201 142
Width: 670
VWidth: 0
Flags: HW
LayerCount: 2
Fore
SplineSet
164 393 m 1
 624 393 l 1
 613 323 l 1
 153 323 l 1
 164 393 l 1
214 700 m 1
 724 700 l 1
 713 630 l 1
 203 630 l 1
 214 700 l 1
111 70 m 5
 621 70 l 5
 610 0 l 1
 100 0 l 1
 111 70 l 5
214 700 m 1
 284 700 l 1
 170 0 l 1
 100 0 l 1
 214 700 l 1
510 770 m 1
 460 770 l 5
 563 910 l 5
 653 910 l 1
 510 770 l 1
EndSplineSet
EndChar

StartChar: Ecircumflex
Encoding: 202 202 143
Width: 670
VWidth: 0
Flags: HW
LayerCount: 2
Fore
SplineSet
164 393 m 1
 624 393 l 1
 613 323 l 1
 153 323 l 1
 164 393 l 1
214 700 m 1
 724 700 l 1
 713 630 l 1
 203 630 l 1
 214 700 l 1
111 70 m 5
 621 70 l 5
 610 0 l 1
 100 0 l 1
 111 70 l 5
214 700 m 1
 284 700 l 1
 170 0 l 1
 100 0 l 1
 214 700 l 1
545 770 m 1
 462 870 l 1
 532 870 l 1
 615 770 l 1
 545 770 l 1
462 870 m 1
 532 870 l 1
 415 770 l 1
 345 770 l 1
 462 870 l 1
EndSplineSet
EndChar

StartChar: Edieresis
Encoding: 203 203 144
Width: 670
VWidth: 0
Flags: HW
LayerCount: 2
Fore
SplineSet
164 393 m 1
 624 393 l 1
 613 323 l 1
 153 323 l 1
 164 393 l 1
214 700 m 1
 724 700 l 1
 713 630 l 1
 203 630 l 1
 214 700 l 1
111 70 m 5
 621 70 l 5
 610 0 l 1
 100 0 l 1
 111 70 l 5
214 700 m 1
 284 700 l 1
 170 0 l 1
 100 0 l 1
 214 700 l 1
325 825 m 0
 330 855 358 880 388 880 c 0
 418 880 438 855 433 825 c 0
 428 795 400 770 370 770 c 0
 340 770 320 795 325 825 c 0
545 825 m 0
 550 855 578 880 608 880 c 0
 638 880 658 855 653 825 c 0
 648 795 620 770 590 770 c 0
 560 770 540 795 545 825 c 0
EndSplineSet
EndChar

StartChar: Igrave
Encoding: 204 204 145
Width: 300
VWidth: 0
Flags: HW
LayerCount: 2
Fore
SplineSet
229 700 m 1
 299 700 l 5
 185 0 l 5
 115 0 l 1
 229 700 l 1
243 770 m 1
 146 910 l 1
 236 910 l 5
 293 770 l 5
 243 770 l 1
EndSplineSet
EndChar

StartChar: Iacute
Encoding: 205 205 146
Width: 300
VWidth: 0
Flags: HW
LayerCount: 2
Fore
SplineSet
229 700 m 1
 299 700 l 5
 185 0 l 5
 115 0 l 1
 229 700 l 1
303 770 m 1
 253 770 l 5
 356 910 l 5
 446 910 l 1
 303 770 l 1
EndSplineSet
EndChar

StartChar: Icircumflex
Encoding: 206 206 147
Width: 300
VWidth: 0
Flags: HW
LayerCount: 2
Fore
SplineSet
229 700 m 1
 299 700 l 5
 185 0 l 5
 115 0 l 1
 229 700 l 1
338 770 m 1
 254 870 l 1
 324 870 l 1
 408 770 l 1
 338 770 l 1
254 870 m 1
 324 870 l 1
 208 770 l 1
 138 770 l 1
 254 870 l 1
EndSplineSet
EndChar

StartChar: Idieresis
Encoding: 207 207 148
Width: 300
VWidth: 0
Flags: HW
LayerCount: 2
Fore
SplineSet
229 700 m 1
 299 700 l 5
 185 0 l 5
 115 0 l 1
 229 700 l 1
118 825 m 0
 123 855 151 880 181 880 c 0
 211 880 231 855 226 825 c 0
 221 795 193 770 163 770 c 0
 133 770 113 795 118 825 c 0
338 825 m 0
 343 855 371 880 401 880 c 0
 431 880 451 855 446 825 c 0
 441 795 413 770 383 770 c 0
 353 770 333 795 338 825 c 0
EndSplineSet
EndChar

StartChar: Ntilde
Encoding: 209 209 149
Width: 790
VWidth: 0
Flags: HW
LayerCount: 2
Fore
SplineSet
690 0 m 1
 630 0 l 5
 634 24 l 5
 692 14 l 1
 690 0 l 1
274 700 m 1
 271 680 l 1
 211 680 l 1
 214 700 l 1
 274 700 l 1
208 665 m 1
 274 700 l 1
 696 35 l 1
 630 0 l 5
 208 665 l 1
734 700 m 5
 804 700 l 1
 690 0 l 1
 623 20 l 5
 734 700 l 5
214 700 m 1
 281 680 l 1
 170 0 l 1
 100 0 l 1
 214 700 l 1
385 770 m 1
 329 790 l 1
 346 868 400 907 451 907 c 0
 515 907 568 833 612 833 c 4
 657 833 672 873 678 910 c 1
 725 890 l 1
 706 802 655 773 605 773 c 0
 543 773 493 847 450 847 c 0
 406 847 391 807 385 770 c 1
EndSplineSet
EndChar

StartChar: Ograve
Encoding: 210 210 150
Width: 850
VWidth: 0
Flags: HW
LayerCount: 2
Fore
SplineSet
197 350 m 4
 171 190 275 60 435 60 c 4
 595 60 741 190 767 350 c 4
 793 510 689 640 529 640 c 4
 369 640 223 510 197 350 c 4
127 350 m 4
 159 549 346 710 541 710 c 4
 736 710 869 549 837 350 c 4
 805 151 618 -10 423 -10 c 4
 228 -10 95 151 127 350 c 4
520 770 m 1
 423 910 l 1
 513 910 l 5
 570 770 l 5
 520 770 l 1
EndSplineSet
EndChar

StartChar: Oacute
Encoding: 211 211 151
Width: 850
VWidth: 0
Flags: HW
LayerCount: 2
Fore
SplineSet
197 350 m 4
 171 190 275 60 435 60 c 4
 595 60 741 190 767 350 c 4
 793 510 689 640 529 640 c 4
 369 640 223 510 197 350 c 4
127 350 m 4
 159 549 346 710 541 710 c 4
 736 710 869 549 837 350 c 4
 805 151 618 -10 423 -10 c 4
 228 -10 95 151 127 350 c 4
580 770 m 1
 530 770 l 5
 633 910 l 5
 723 910 l 1
 580 770 l 1
EndSplineSet
EndChar

StartChar: Ocircumflex
Encoding: 212 212 152
Width: 850
VWidth: 0
Flags: HW
LayerCount: 2
Fore
SplineSet
197 350 m 4
 171 190 275 60 435 60 c 4
 595 60 741 190 767 350 c 4
 793 510 689 640 529 640 c 4
 369 640 223 510 197 350 c 4
127 350 m 4
 159 549 346 710 541 710 c 4
 736 710 869 549 837 350 c 4
 805 151 618 -10 423 -10 c 4
 228 -10 95 151 127 350 c 4
615 770 m 1
 532 870 l 1
 602 870 l 1
 685 770 l 1
 615 770 l 1
532 870 m 1
 602 870 l 1
 485 770 l 1
 415 770 l 1
 532 870 l 1
EndSplineSet
EndChar

StartChar: Otilde
Encoding: 213 213 153
Width: 850
VWidth: 0
Flags: HW
LayerCount: 2
Fore
SplineSet
197 350 m 4
 171 190 275 60 435 60 c 4
 595 60 741 190 767 350 c 4
 793 510 689 640 529 640 c 4
 369 640 223 510 197 350 c 4
127 350 m 4
 159 549 346 710 541 710 c 4
 736 710 869 549 837 350 c 4
 805 151 618 -10 423 -10 c 4
 228 -10 95 151 127 350 c 4
420 770 m 1
 364 790 l 1
 381 868 435 907 486 907 c 0
 550 907 603 833 647 833 c 4
 692 833 707 873 713 910 c 1
 760 890 l 1
 741 802 690 773 640 773 c 0
 578 773 528 847 485 847 c 0
 441 847 426 807 420 770 c 1
EndSplineSet
EndChar

StartChar: Odieresis
Encoding: 214 214 154
Width: 850
VWidth: 0
Flags: HW
LayerCount: 2
Fore
SplineSet
197 350 m 4
 171 190 275 60 435 60 c 4
 595 60 741 190 767 350 c 4
 793 510 689 640 529 640 c 4
 369 640 223 510 197 350 c 4
127 350 m 4
 159 549 346 710 541 710 c 4
 736 710 869 549 837 350 c 4
 805 151 618 -10 423 -10 c 4
 228 -10 95 151 127 350 c 4
395 825 m 0
 400 855 428 880 458 880 c 0
 488 880 508 855 503 825 c 0
 498 795 470 770 440 770 c 0
 410 770 390 795 395 825 c 0
615 825 m 0
 620 855 648 880 678 880 c 0
 708 880 728 855 723 825 c 0
 718 795 690 770 660 770 c 0
 630 770 610 795 615 825 c 0
EndSplineSet
EndChar

StartChar: Ugrave
Encoding: 217 217 155
Width: 760
VWidth: 0
Flags: HW
LayerCount: 2
Fore
SplineSet
651 280 m 1
 719 700 l 1
 784 700 l 1
 716 280 l 1
 651 280 l 1
136 280 m 1
 204 700 l 1
 269 700 l 1
 201 280 l 1
 136 280 l 1
651 280 m 1
 716 280 l 1
 688 111 537 -10 378 -10 c 0
 219 -10 108 111 136 280 c 1
 201 280 l 1
 180 151 262 55 389 55 c 0
 516 55 630 151 651 280 c 1
475 770 m 1
 378 910 l 1
 468 910 l 5
 525 770 l 5
 475 770 l 1
EndSplineSet
EndChar

StartChar: Uacute
Encoding: 218 218 156
Width: 760
VWidth: 0
Flags: HW
LayerCount: 2
Fore
SplineSet
651 280 m 1
 719 700 l 1
 784 700 l 1
 716 280 l 1
 651 280 l 1
136 280 m 1
 204 700 l 1
 269 700 l 1
 201 280 l 1
 136 280 l 1
651 280 m 1
 716 280 l 1
 688 111 537 -10 378 -10 c 0
 219 -10 108 111 136 280 c 1
 201 280 l 1
 180 151 262 55 389 55 c 0
 516 55 630 151 651 280 c 1
535 770 m 1
 485 770 l 5
 588 910 l 5
 678 910 l 1
 535 770 l 1
EndSplineSet
EndChar

StartChar: Ucircumflex
Encoding: 219 219 157
Width: 760
VWidth: 0
Flags: HW
LayerCount: 2
Fore
SplineSet
651 280 m 1
 719 700 l 1
 784 700 l 1
 716 280 l 1
 651 280 l 1
136 280 m 1
 204 700 l 1
 269 700 l 1
 201 280 l 1
 136 280 l 1
651 280 m 1
 716 280 l 1
 688 111 537 -10 378 -10 c 0
 219 -10 108 111 136 280 c 1
 201 280 l 1
 180 151 262 55 389 55 c 0
 516 55 630 151 651 280 c 1
570 770 m 1
 487 870 l 1
 557 870 l 1
 640 770 l 1
 570 770 l 1
487 870 m 1
 557 870 l 1
 440 770 l 1
 370 770 l 1
 487 870 l 1
EndSplineSet
EndChar

StartChar: Udieresis
Encoding: 220 220 158
Width: 760
VWidth: 0
Flags: HW
LayerCount: 2
Fore
SplineSet
651 280 m 1
 719 700 l 1
 784 700 l 1
 716 280 l 1
 651 280 l 1
136 280 m 1
 204 700 l 1
 269 700 l 1
 201 280 l 1
 136 280 l 1
651 280 m 1
 716 280 l 1
 688 111 537 -10 378 -10 c 0
 219 -10 108 111 136 280 c 1
 201 280 l 1
 180 151 262 55 389 55 c 0
 516 55 630 151 651 280 c 1
350 825 m 0
 355 855 383 880 413 880 c 0
 443 880 463 855 458 825 c 0
 453 795 425 770 395 770 c 0
 365 770 345 795 350 825 c 0
570 825 m 0
 575 855 603 880 633 880 c 0
 663 880 683 855 678 825 c 0
 673 795 645 770 615 770 c 0
 585 770 565 795 570 825 c 0
EndSplineSet
EndChar

StartChar: Yacute
Encoding: 221 221 159
Width: 680
VWidth: 0
Flags: HW
LayerCount: 2
Fore
SplineSet
353 295 m 1
 423 295 l 1
 375 0 l 1
 305 0 l 1
 353 295 l 1
144 700 m 1
 224 700 l 1
 413 295 l 1
 370 217 l 1
 144 700 l 1
684 700 m 5
 764 700 l 1
 380 217 l 1
 363 295 l 5
 684 700 l 5
493 770 m 1
 443 770 l 5
 546 910 l 5
 636 910 l 1
 493 770 l 1
EndSplineSet
EndChar

StartChar: agrave
Encoding: 224 224 160
Width: 580
VWidth: 0
Flags: HMW
LayerCount: 2
Fore
SplineSet
371 312 m 1
 521 312 l 1
 513 263 l 1
 393 263 l 1
 371 312 l 1
494 330 m 1
 509 420 481 475 365 475 c 1
 380 530 l 1
 523 530 578 449 559 330 c 1
 494 330 l 1
365 475 m 1
 283 475 236 443 180 403 c 1
 153 450 l 1
 218 499 278 530 380 530 c 1
 365 475 l 1
494 330 m 1
 559 330 l 1
 505 0 l 1
 440 0 l 1
 494 330 l 1
134 160 m 1
 121 82 170 50 278 50 c 4
 366 50 456 100 469 180 c 1
 504 180 l 1
 486 71 387 -10 238 -10 c 0
 139 -10 50 41 69 160 c 1
 134 160 l 1
371 312 m 1
 393 263 l 1
 244 263 148 245 134 160 c 1
 69 160 l 1
 91 295 234 312 371 312 c 1
360 590 m 1
 263 730 l 1
 353 730 l 5
 410 590 l 5
 360 590 l 1
EndSplineSet
EndChar

StartChar: aacute
Encoding: 225 225 161
Width: 580
VWidth: 0
Flags: HMW
LayerCount: 2
Fore
SplineSet
371 312 m 1
 521 312 l 1
 513 263 l 1
 393 263 l 1
 371 312 l 1
494 330 m 1
 509 420 481 475 365 475 c 1
 380 530 l 1
 523 530 578 449 559 330 c 1
 494 330 l 1
365 475 m 1
 283 475 236 443 180 403 c 1
 153 450 l 1
 218 499 278 530 380 530 c 1
 365 475 l 1
494 330 m 1
 559 330 l 1
 505 0 l 1
 440 0 l 1
 494 330 l 1
134 160 m 1
 121 82 170 50 278 50 c 4
 366 50 456 100 469 180 c 1
 504 180 l 1
 486 71 387 -10 238 -10 c 0
 139 -10 50 41 69 160 c 1
 134 160 l 1
371 312 m 1
 393 263 l 1
 244 263 148 245 134 160 c 1
 69 160 l 1
 91 295 234 312 371 312 c 1
420 590 m 1
 370 590 l 5
 473 730 l 5
 563 730 l 1
 420 590 l 1
EndSplineSet
EndChar

StartChar: acircumflex
Encoding: 226 226 162
Width: 580
VWidth: 0
Flags: HMW
LayerCount: 2
Fore
SplineSet
371 312 m 1
 521 312 l 1
 513 263 l 1
 393 263 l 1
 371 312 l 1
494 330 m 1
 509 420 481 475 365 475 c 1
 380 530 l 1
 523 530 578 449 559 330 c 1
 494 330 l 1
365 475 m 1
 283 475 236 443 180 403 c 1
 153 450 l 1
 218 499 278 530 380 530 c 1
 365 475 l 1
494 330 m 1
 559 330 l 1
 505 0 l 1
 440 0 l 1
 494 330 l 1
134 160 m 1
 121 82 170 50 278 50 c 4
 366 50 456 100 469 180 c 1
 504 180 l 1
 486 71 387 -10 238 -10 c 0
 139 -10 50 41 69 160 c 1
 134 160 l 1
371 312 m 1
 393 263 l 1
 244 263 148 245 134 160 c 1
 69 160 l 1
 91 295 234 312 371 312 c 1
455 590 m 1
 371 690 l 1
 441 690 l 1
 525 590 l 1
 455 590 l 1
371 690 m 1
 441 690 l 1
 325 590 l 1
 255 590 l 1
 371 690 l 1
EndSplineSet
EndChar

StartChar: atilde
Encoding: 227 227 163
Width: 580
VWidth: 0
Flags: HMW
LayerCount: 2
Fore
SplineSet
371 312 m 1
 521 312 l 1
 513 263 l 1
 393 263 l 1
 371 312 l 1
494 330 m 1
 509 420 481 475 365 475 c 1
 380 530 l 1
 523 530 578 449 559 330 c 1
 494 330 l 1
365 475 m 1
 283 475 236 443 180 403 c 1
 153 450 l 1
 218 499 278 530 380 530 c 1
 365 475 l 1
494 330 m 1
 559 330 l 1
 505 0 l 1
 440 0 l 1
 494 330 l 1
134 160 m 1
 121 82 170 50 278 50 c 4
 366 50 456 100 469 180 c 1
 504 180 l 1
 486 71 387 -10 238 -10 c 0
 139 -10 50 41 69 160 c 1
 134 160 l 1
371 312 m 1
 393 263 l 1
 244 263 148 245 134 160 c 1
 69 160 l 1
 91 295 234 312 371 312 c 1
260 590 m 1
 203 610 l 1
 220 688 275 727 326 727 c 0
 390 727 443 653 487 653 c 4
 532 653 547 693 553 730 c 1
 600 710 l 1
 581 622 529 593 479 593 c 0
 417 593 368 667 325 667 c 0
 281 667 266 627 260 590 c 1
EndSplineSet
EndChar

StartChar: adieresis
Encoding: 228 228 164
Width: 580
VWidth: 0
Flags: HMW
LayerCount: 2
Fore
SplineSet
371 312 m 1
 521 312 l 1
 513 263 l 1
 393 263 l 1
 371 312 l 1
494 330 m 1
 509 420 481 475 365 475 c 1
 380 530 l 1
 523 530 578 449 559 330 c 1
 494 330 l 1
365 475 m 1
 283 475 236 443 180 403 c 1
 153 450 l 1
 218 499 278 530 380 530 c 1
 365 475 l 1
494 330 m 1
 559 330 l 1
 505 0 l 1
 440 0 l 1
 494 330 l 1
134 160 m 1
 121 82 170 50 278 50 c 4
 366 50 456 100 469 180 c 1
 504 180 l 1
 486 71 387 -10 238 -10 c 0
 139 -10 50 41 69 160 c 1
 134 160 l 1
371 312 m 1
 393 263 l 1
 244 263 148 245 134 160 c 1
 69 160 l 1
 91 295 234 312 371 312 c 1
235 645 m 0
 240 675 268 700 298 700 c 0
 328 700 348 675 343 645 c 0
 338 615 310 590 280 590 c 0
 250 590 230 615 235 645 c 0
455 645 m 0
 460 675 488 700 518 700 c 0
 548 700 568 675 563 645 c 0
 558 615 530 590 500 590 c 0
 470 590 450 615 455 645 c 0
EndSplineSet
EndChar

StartChar: aring
Encoding: 229 229 165
Width: 580
VWidth: 0
Flags: HMW
LayerCount: 2
Fore
SplineSet
371 312 m 1
 521 312 l 1
 513 263 l 1
 393 263 l 1
 371 312 l 1
494 330 m 1
 509 420 481 475 365 475 c 1
 380 530 l 1
 523 530 578 449 559 330 c 1
 494 330 l 1
365 475 m 1
 283 475 236 443 180 403 c 1
 153 450 l 1
 218 499 278 530 380 530 c 1
 365 475 l 1
494 330 m 1
 559 330 l 1
 505 0 l 1
 440 0 l 1
 494 330 l 1
134 160 m 1
 121 82 170 50 278 50 c 4
 366 50 456 100 469 180 c 1
 504 180 l 1
 486 71 387 -10 238 -10 c 0
 139 -10 50 41 69 160 c 1
 134 160 l 1
371 312 m 1
 393 263 l 1
 244 263 148 245 134 160 c 1
 69 160 l 1
 91 295 234 312 371 312 c 1
356 690 m 0
 351 661 369 640 398 640 c 0
 427 640 451 661 456 690 c 0
 461 719 444 740 415 740 c 4
 386 740 361 719 356 690 c 0
306 690 m 0
 315 745 368 790 423 790 c 0
 478 790 515 745 506 690 c 0
 497 635 445 590 390 590 c 0
 335 590 297 635 306 690 c 0
EndSplineSet
EndChar

StartChar: ccedilla
Encoding: 231 231 166
Width: 573
VWidth: 0
Flags: HM
LayerCount: 2
Fore
SplineSet
162 260 m 4
 143 141 216 50 333 50 c 4
 405 50 468 85 513 134 c 5
 548 92 l 5
 491 28 410 -10 323 -10 c 4
 174 -10 73 111 97 260 c 4
 121 409 262 530 411 530 c 4
 498 530 565 491 602 428 c 5
 554 386 l 5
 525 435 474 470 402 470 c 4
 285 470 181 379 162 260 c 4
305 -3 m 5
 345 -3 l 5
 389 -37 447 -77 438 -135 c 4
 430 -182 403 -217 336 -217 c 4
 299 -217 263 -203 244 -188 c 5
 269 -158 l 5
 278 -161 296 -173 326 -173 c 4
 357 -173 383 -164 388 -132 c 4
 394 -97 346 -42 305 -3 c 5
EndSplineSet
EndChar

StartChar: egrave
Encoding: 232 232 167
Width: 615
VWidth: 0
Flags: HMW
LayerCount: 2
Fore
SplineSet
607 260 m 1
 604 240 l 1
 539 240 l 1
 542 260 l 1
 607 260 l 1
539 240 m 1
 133 240 l 1
 142 297 l 1
 548 297 l 1
 539 240 l 1
542 260 m 1
 563 389 504 470 387 470 c 0
 270 470 183 389 162 260 c 1
 97 260 l 1
 123 419 257 530 396 530 c 0
 535 530 633 419 607 260 c 1
 542 260 l 1
97 260 m 1
 162 260 l 1
 141 131 211 50 328 50 c 0
 402 50 473 85 518 134 c 5
 553 92 l 1
 496 28 405 -10 318 -10 c 0
 169 -10 71 101 97 260 c 1
371 590 m 1
 274 730 l 1
 364 730 l 5
 421 590 l 5
 371 590 l 1
EndSplineSet
EndChar

StartChar: eacute
Encoding: 233 233 168
Width: 615
VWidth: 0
Flags: HMW
LayerCount: 2
Fore
SplineSet
607 260 m 1
 604 240 l 1
 539 240 l 1
 542 260 l 1
 607 260 l 1
539 240 m 1
 133 240 l 1
 142 297 l 1
 548 297 l 1
 539 240 l 1
542 260 m 1
 563 389 504 470 387 470 c 0
 270 470 183 389 162 260 c 1
 97 260 l 1
 123 419 257 530 396 530 c 0
 535 530 633 419 607 260 c 1
 542 260 l 1
97 260 m 1
 162 260 l 1
 141 131 211 50 328 50 c 0
 402 50 473 85 518 134 c 5
 553 92 l 1
 496 28 405 -10 318 -10 c 0
 169 -10 71 101 97 260 c 1
431 590 m 1
 381 590 l 5
 484 730 l 5
 574 730 l 1
 431 590 l 1
EndSplineSet
EndChar

StartChar: ecircumflex
Encoding: 234 234 169
Width: 615
VWidth: 0
Flags: HMW
LayerCount: 2
Fore
SplineSet
607 260 m 1
 604 240 l 1
 539 240 l 1
 542 260 l 1
 607 260 l 1
539 240 m 1
 133 240 l 1
 142 297 l 1
 548 297 l 1
 539 240 l 1
542 260 m 1
 563 389 504 470 387 470 c 0
 270 470 183 389 162 260 c 1
 97 260 l 1
 123 419 257 530 396 530 c 0
 535 530 633 419 607 260 c 1
 542 260 l 1
97 260 m 1
 162 260 l 1
 141 131 211 50 328 50 c 0
 402 50 473 85 518 134 c 5
 553 92 l 1
 496 28 405 -10 318 -10 c 0
 169 -10 71 101 97 260 c 1
466 590 m 1
 382 690 l 1
 452 690 l 1
 536 590 l 1
 466 590 l 1
382 690 m 1
 452 690 l 1
 336 590 l 1
 266 590 l 1
 382 690 l 1
EndSplineSet
EndChar

StartChar: edieresis
Encoding: 235 235 170
Width: 615
VWidth: 0
Flags: HMW
LayerCount: 2
Fore
SplineSet
607 260 m 1
 604 240 l 1
 539 240 l 1
 542 260 l 1
 607 260 l 1
539 240 m 1
 133 240 l 1
 142 297 l 1
 548 297 l 1
 539 240 l 1
542 260 m 1
 563 389 504 470 387 470 c 0
 270 470 183 389 162 260 c 1
 97 260 l 1
 123 419 257 530 396 530 c 0
 535 530 633 419 607 260 c 1
 542 260 l 1
97 260 m 1
 162 260 l 1
 141 131 211 50 328 50 c 0
 402 50 473 85 518 134 c 5
 553 92 l 1
 496 28 405 -10 318 -10 c 0
 169 -10 71 101 97 260 c 1
246 645 m 0
 251 675 279 700 309 700 c 0
 339 700 359 675 354 645 c 0
 349 615 321 590 291 590 c 0
 261 590 241 615 246 645 c 0
466 645 m 0
 471 675 499 700 529 700 c 0
 559 700 579 675 574 645 c 0
 569 615 541 590 511 590 c 0
 481 590 461 615 466 645 c 0
EndSplineSet
EndChar

StartChar: igrave
Encoding: 236 236 171
Width: 250
VWidth: 0
Flags: HMW
LayerCount: 2
Fore
SplineSet
170 520 m 1
 250 520 l 1
 165 0 l 1
 85 0 l 1
 170 520 l 1
191 590 m 1
 94 730 l 1
 184 730 l 5
 241 590 l 5
 191 590 l 1
EndSplineSet
EndChar

StartChar: iacute
Encoding: 237 237 172
Width: 250
VWidth: 0
Flags: HMW
LayerCount: 2
Fore
SplineSet
170 520 m 1
 250 520 l 1
 165 0 l 1
 85 0 l 1
 170 520 l 1
251 590 m 1
 201 590 l 5
 304 730 l 5
 394 730 l 1
 251 590 l 1
EndSplineSet
EndChar

StartChar: icircumflex
Encoding: 238 238 173
Width: 250
VWidth: 0
Flags: HMW
LayerCount: 2
Fore
SplineSet
170 520 m 1
 250 520 l 1
 165 0 l 1
 85 0 l 1
 170 520 l 1
286 590 m 1
 202 690 l 1
 272 690 l 1
 356 590 l 1
 286 590 l 1
202 690 m 1
 272 690 l 1
 156 590 l 1
 86 590 l 1
 202 690 l 1
EndSplineSet
EndChar

StartChar: idieresis
Encoding: 239 239 174
Width: 250
VWidth: 0
Flags: HMW
LayerCount: 2
Fore
SplineSet
170 520 m 1
 250 520 l 1
 165 0 l 1
 85 0 l 1
 170 520 l 1
66 645 m 0
 71 675 99 700 129 700 c 0
 159 700 179 675 174 645 c 0
 169 615 141 590 111 590 c 0
 81 590 61 615 66 645 c 0
286 645 m 0
 291 675 319 700 349 700 c 0
 379 700 399 675 394 645 c 0
 389 615 361 590 331 590 c 0
 301 590 281 615 286 645 c 0
EndSplineSet
EndChar

StartChar: ntilde
Encoding: 241 241 175
Width: 635
VWidth: 0
Flags: HMW
LayerCount: 2
Fore
SplineSet
604 300 m 5
 555 0 l 5
 490 0 l 5
 539 300 l 5
 604 300 l 5
170 520 m 5
 235 520 l 5
 150 0 l 5
 85 0 l 5
 170 520 l 5
539 300 m 5
 554 390 522 470 407 470 c 4
 299 470 214 390 196 280 c 5
 161 280 l 5
 180 399 272 530 431 530 c 4
 560 530 625 429 604 300 c 5
 539 300 l 5
284 590 m 1
 227 610 l 1
 244 688 298 727 349 727 c 0
 413 727 466 653 510 653 c 4
 555 653 570 693 576 730 c 1
 623 710 l 1
 604 622 553 593 503 593 c 0
 441 593 391 667 348 667 c 0
 304 667 290 627 284 590 c 1
EndSplineSet
EndChar

StartChar: ograve
Encoding: 242 242 176
Width: 650
VWidth: 0
Flags: HM
LayerCount: 2
Fore
SplineSet
162 260 m 0
 143 144 220 50 333 50 c 0
 446 50 553 144 572 260 c 0
 591 376 515 470 402 470 c 0
 289 470 181 376 162 260 c 0
97 260 m 0
 121 409 262 530 411 530 c 0
 560 530 661 409 637 260 c 0
 613 111 472 -10 323 -10 c 0
 174 -10 73 111 97 260 c 0
391 590 m 1
 294 730 l 1
 384 730 l 5
 441 590 l 5
 391 590 l 1
EndSplineSet
EndChar

StartChar: oacute
Encoding: 243 243 177
Width: 650
VWidth: 0
Flags: HM
LayerCount: 2
Fore
SplineSet
162 260 m 0
 143 144 220 50 333 50 c 0
 446 50 553 144 572 260 c 0
 591 376 515 470 402 470 c 0
 289 470 181 376 162 260 c 0
97 260 m 0
 121 409 262 530 411 530 c 0
 560 530 661 409 637 260 c 0
 613 111 472 -10 323 -10 c 0
 174 -10 73 111 97 260 c 0
451 590 m 1
 401 590 l 5
 504 730 l 5
 594 730 l 1
 451 590 l 1
EndSplineSet
EndChar

StartChar: ocircumflex
Encoding: 244 244 178
Width: 650
VWidth: 0
Flags: HM
LayerCount: 2
Fore
SplineSet
162 260 m 0
 143 144 220 50 333 50 c 0
 446 50 553 144 572 260 c 0
 591 376 515 470 402 470 c 0
 289 470 181 376 162 260 c 0
97 260 m 0
 121 409 262 530 411 530 c 0
 560 530 661 409 637 260 c 0
 613 111 472 -10 323 -10 c 0
 174 -10 73 111 97 260 c 0
486 590 m 1
 402 690 l 1
 472 690 l 1
 556 590 l 1
 486 590 l 1
402 690 m 1
 472 690 l 1
 356 590 l 1
 286 590 l 1
 402 690 l 1
EndSplineSet
EndChar

StartChar: otilde
Encoding: 245 245 179
Width: 650
VWidth: 0
Flags: HM
LayerCount: 2
Fore
SplineSet
162 260 m 0
 143 144 220 50 333 50 c 0
 446 50 553 144 572 260 c 0
 591 376 515 470 402 470 c 0
 289 470 181 376 162 260 c 0
97 260 m 0
 121 409 262 530 411 530 c 0
 560 530 661 409 637 260 c 0
 613 111 472 -10 323 -10 c 0
 174 -10 73 111 97 260 c 0
291 590 m 1
 234 610 l 1
 251 688 306 727 357 727 c 0
 421 727 474 653 518 653 c 4
 563 653 578 693 584 730 c 1
 631 710 l 1
 612 622 560 593 510 593 c 0
 448 593 399 667 356 667 c 0
 312 667 297 627 291 590 c 1
EndSplineSet
EndChar

StartChar: odieresis
Encoding: 246 246 180
Width: 650
VWidth: 0
Flags: HM
LayerCount: 2
Fore
SplineSet
162 260 m 0
 143 144 220 50 333 50 c 0
 446 50 553 144 572 260 c 0
 591 376 515 470 402 470 c 0
 289 470 181 376 162 260 c 0
97 260 m 0
 121 409 262 530 411 530 c 0
 560 530 661 409 637 260 c 0
 613 111 472 -10 323 -10 c 0
 174 -10 73 111 97 260 c 0
266 645 m 0
 271 675 299 700 329 700 c 0
 359 700 379 675 374 645 c 0
 369 615 341 590 311 590 c 0
 281 590 261 615 266 645 c 0
486 645 m 0
 491 675 519 700 549 700 c 0
 579 700 599 675 594 645 c 0
 589 615 561 590 531 590 c 0
 501 590 481 615 486 645 c 0
EndSplineSet
EndChar

StartChar: ugrave
Encoding: 249 249 181
Width: 635
VWidth: 0
Flags: HMW
LayerCount: 2
Fore
SplineSet
550 0 m 1
 485 0 l 1
 570 520 l 1
 635 520 l 1
 550 0 l 1
181 220 m 1
 166 130 198 50 313 50 c 0
 421 50 506 130 524 240 c 1
 559 240 l 1
 540 121 447 -10 288 -10 c 0
 159 -10 95 91 116 220 c 1
 181 220 l 1
116 220 m 1
 165 520 l 1
 230 520 l 1
 181 220 l 1
 116 220 l 1
379 590 m 1
 281 730 l 1
 371 730 l 5
 429 590 l 5
 379 590 l 1
EndSplineSet
EndChar

StartChar: uacute
Encoding: 250 250 182
Width: 635
VWidth: 0
Flags: HMW
LayerCount: 2
Fore
SplineSet
550 0 m 1
 485 0 l 1
 570 520 l 1
 635 520 l 1
 550 0 l 1
181 220 m 1
 166 130 198 50 313 50 c 0
 421 50 506 130 524 240 c 1
 559 240 l 1
 540 121 447 -10 288 -10 c 0
 159 -10 95 91 116 220 c 1
 181 220 l 1
116 220 m 1
 165 520 l 1
 230 520 l 1
 181 220 l 1
 116 220 l 1
439 590 m 1
 389 590 l 5
 491 730 l 5
 581 730 l 1
 439 590 l 1
EndSplineSet
EndChar

StartChar: ucircumflex
Encoding: 251 251 183
Width: 635
VWidth: 0
Flags: HMW
LayerCount: 2
Fore
SplineSet
550 0 m 1
 485 0 l 1
 570 520 l 1
 635 520 l 1
 550 0 l 1
181 220 m 1
 166 130 198 50 313 50 c 0
 421 50 506 130 524 240 c 1
 559 240 l 1
 540 121 447 -10 288 -10 c 0
 159 -10 95 91 116 220 c 1
 181 220 l 1
116 220 m 1
 165 520 l 1
 230 520 l 1
 181 220 l 1
 116 220 l 1
474 590 m 1
 390 690 l 1
 460 690 l 1
 544 590 l 1
 474 590 l 1
390 690 m 1
 460 690 l 1
 344 590 l 1
 274 590 l 1
 390 690 l 1
EndSplineSet
EndChar

StartChar: udieresis
Encoding: 252 252 184
Width: 635
VWidth: 0
Flags: HMW
LayerCount: 2
Fore
SplineSet
550 0 m 1
 485 0 l 1
 570 520 l 1
 635 520 l 1
 550 0 l 1
181 220 m 1
 166 130 198 50 313 50 c 0
 421 50 506 130 524 240 c 1
 559 240 l 1
 540 121 447 -10 288 -10 c 0
 159 -10 95 91 116 220 c 1
 181 220 l 1
116 220 m 1
 165 520 l 1
 230 520 l 1
 181 220 l 1
 116 220 l 1
254 645 m 0
 259 675 287 700 317 700 c 0
 347 700 367 675 362 645 c 0
 357 615 329 590 299 590 c 0
 269 590 249 615 254 645 c 0
474 645 m 0
 479 675 507 700 537 700 c 0
 567 700 587 675 582 645 c 0
 577 615 549 590 519 590 c 0
 489 590 469 615 474 645 c 0
EndSplineSet
EndChar

StartChar: yacute
Encoding: 253 253 185
Width: 579
VWidth: 0
Flags: HMW
LayerCount: 2
Fore
SplineSet
124 520 m 1
 194 520 l 1
 348 -8 l 1
 282 -13 l 1
 124 520 l 1
145 -150 m 5
 135 -210 l 1
 78 -210 32 -184 11 -150 c 1
 49 -99 l 1
 63 -118 94 -150 145 -150 c 5
254 -60 m 2
 564 520 l 1
 629 520 l 1
 319 -60 l 2
 277 -140 224 -210 135 -210 c 1
 145 -150 l 5
 203 -150 233 -100 254 -60 c 2
415 590 m 1
 365 590 l 5
 468 730 l 5
 558 730 l 1
 415 590 l 1
EndSplineSet
EndChar

StartChar: ydieresis
Encoding: 255 255 186
Width: 579
VWidth: 0
Flags: HMW
LayerCount: 2
Fore
SplineSet
124 520 m 1
 194 520 l 1
 348 -8 l 1
 282 -13 l 1
 124 520 l 1
145 -150 m 5
 135 -210 l 1
 78 -210 32 -184 11 -150 c 1
 49 -99 l 1
 63 -118 94 -150 145 -150 c 5
254 -60 m 2
 564 520 l 1
 629 520 l 1
 319 -60 l 2
 277 -140 224 -210 135 -210 c 1
 145 -150 l 5
 203 -150 233 -100 254 -60 c 2
230 645 m 0
 235 675 263 700 293 700 c 0
 323 700 343 675 338 645 c 0
 333 615 305 590 275 590 c 0
 245 590 225 615 230 645 c 0
450 645 m 0
 455 675 483 700 513 700 c 0
 543 700 563 675 558 645 c 0
 553 615 525 590 495 590 c 0
 465 590 445 615 450 645 c 0
EndSplineSet
EndChar

StartChar: Amacron
Encoding: 256 256 187
Width: 800
VWidth: 0
Flags: HW
LayerCount: 2
Fore
SplineSet
484 700 m 1
 544 700 l 1
 532 690 l 1
 482 690 l 1
 484 700 l 1
236 260 m 1
 648 260 l 1
 637 190 l 1
 225 190 l 1
 236 260 l 1
676 0 m 1
 478 690 l 1
 544 700 l 1
 755 0 l 1
 676 0 l 1
484 700 m 1
 546 690 l 1
 124 0 l 1
 45 0 l 1
 484 700 l 1
382 840 m 5
 686 840 l 5
 677 780 l 1
 373 780 l 1
 382 840 l 5
EndSplineSet
EndChar

StartChar: amacron
Encoding: 257 257 188
Width: 580
VWidth: 0
Flags: HMW
LayerCount: 2
Fore
SplineSet
371 312 m 1
 521 312 l 1
 513 263 l 1
 393 263 l 1
 371 312 l 1
494 330 m 1
 509 420 481 475 365 475 c 1
 380 530 l 1
 523 530 578 449 559 330 c 1
 494 330 l 1
365 475 m 1
 283 475 236 443 180 403 c 1
 153 450 l 1
 218 499 278 530 380 530 c 1
 365 475 l 1
494 330 m 1
 559 330 l 1
 505 0 l 1
 440 0 l 1
 494 330 l 1
134 160 m 1
 121 82 170 50 278 50 c 4
 366 50 456 100 469 180 c 1
 504 180 l 1
 486 71 387 -10 238 -10 c 0
 139 -10 50 41 69 160 c 1
 134 160 l 1
371 312 m 1
 393 263 l 1
 244 263 148 245 134 160 c 1
 69 160 l 1
 91 295 234 312 371 312 c 1
249 660 m 5
 553 660 l 5
 544 600 l 1
 240 600 l 1
 249 660 l 5
EndSplineSet
EndChar

StartChar: Abreve
Encoding: 258 258 189
Width: 800
VWidth: 0
Flags: HW
LayerCount: 2
Fore
SplineSet
484 700 m 1
 544 700 l 1
 532 690 l 1
 482 690 l 1
 484 700 l 1
236 260 m 1
 648 260 l 1
 637 190 l 1
 225 190 l 1
 236 260 l 1
676 0 m 1
 478 690 l 1
 544 700 l 1
 755 0 l 1
 676 0 l 1
484 700 m 1
 546 690 l 1
 124 0 l 1
 45 0 l 1
 484 700 l 1
534 840 m 1
 474 840 435 874 443 922 c 1
 377 916 l 1
 363 827 424 770 523 770 c 1
 534 840 l 1
534 840 m 1
 523 770 l 1
 622 770 703 827 717 916 c 1
 653 922 l 5
 645 874 594 840 534 840 c 1
EndSplineSet
EndChar

StartChar: abreve
Encoding: 259 259 190
Width: 580
VWidth: 0
Flags: HMW
LayerCount: 2
Fore
SplineSet
371 312 m 1
 521 312 l 1
 513 263 l 1
 393 263 l 1
 371 312 l 1
494 330 m 1
 509 420 481 475 365 475 c 1
 380 530 l 1
 523 530 578 449 559 330 c 1
 494 330 l 1
365 475 m 1
 283 475 236 443 180 403 c 1
 153 450 l 1
 218 499 278 530 380 530 c 1
 365 475 l 1
494 330 m 1
 559 330 l 1
 505 0 l 1
 440 0 l 1
 494 330 l 1
134 160 m 1
 121 82 170 50 278 50 c 4
 366 50 456 100 469 180 c 1
 504 180 l 1
 486 71 387 -10 238 -10 c 0
 139 -10 50 41 69 160 c 1
 134 160 l 1
371 312 m 1
 393 263 l 1
 244 263 148 245 134 160 c 1
 69 160 l 1
 91 295 234 312 371 312 c 1
401 660 m 1
 341 660 302 694 310 742 c 1
 244 736 l 1
 230 647 291 590 390 590 c 1
 401 660 l 1
401 660 m 1
 390 590 l 1
 489 590 570 647 584 736 c 1
 520 742 l 5
 512 694 461 660 401 660 c 1
EndSplineSet
EndChar

StartChar: Cacute
Encoding: 262 262 191
Width: 732
VWidth: 0
Flags: HW
LayerCount: 2
Fore
SplineSet
197 350 m 4
 170 184 274 60 435 60 c 0
 523 60 607 100 670 161 c 1
 710 113 l 1
 633 38 529 -10 423 -10 c 0
 228 -10 95 151 127 350 c 4
 159 549 346 710 541 710 c 0
 647 710 735 662 788 587 c 1
 732 539 l 1
 689 600 617 640 529 640 c 0
 368 640 224 516 197 350 c 4
580 770 m 1
 530 770 l 5
 633 910 l 5
 723 910 l 1
 580 770 l 1
EndSplineSet
EndChar

StartChar: cacute
Encoding: 263 263 192
Width: 573
VWidth: 0
Flags: HM
LayerCount: 2
Fore
SplineSet
162 260 m 4
 143 141 216 50 333 50 c 4
 405 50 468 85 513 134 c 5
 548 92 l 5
 491 28 410 -10 323 -10 c 4
 174 -10 73 111 97 260 c 4
 121 409 262 530 411 530 c 4
 498 530 565 491 602 428 c 5
 554 386 l 5
 525 435 474 470 402 470 c 4
 285 470 181 379 162 260 c 4
451 590 m 1
 401 590 l 5
 504 730 l 5
 594 730 l 1
 451 590 l 1
EndSplineSet
EndChar

StartChar: Ccircumflex
Encoding: 264 264 193
Width: 732
VWidth: 0
Flags: HW
LayerCount: 2
Fore
SplineSet
197 350 m 4
 170 184 274 60 435 60 c 0
 523 60 607 100 670 161 c 1
 710 113 l 1
 633 38 529 -10 423 -10 c 0
 228 -10 95 151 127 350 c 4
 159 549 346 710 541 710 c 0
 647 710 735 662 788 587 c 1
 732 539 l 1
 689 600 617 640 529 640 c 0
 368 640 224 516 197 350 c 4
615 770 m 1
 532 870 l 1
 602 870 l 1
 685 770 l 1
 615 770 l 1
532 870 m 1
 602 870 l 1
 485 770 l 1
 415 770 l 1
 532 870 l 1
EndSplineSet
EndChar

StartChar: ccircumflex
Encoding: 265 265 194
Width: 573
VWidth: 0
Flags: HM
LayerCount: 2
Fore
SplineSet
162 260 m 4
 143 141 216 50 333 50 c 4
 405 50 468 85 513 134 c 5
 548 92 l 5
 491 28 410 -10 323 -10 c 4
 174 -10 73 111 97 260 c 4
 121 409 262 530 411 530 c 4
 498 530 565 491 602 428 c 5
 554 386 l 5
 525 435 474 470 402 470 c 4
 285 470 181 379 162 260 c 4
486 590 m 1
 402 690 l 1
 472 690 l 1
 556 590 l 1
 486 590 l 1
402 690 m 1
 472 690 l 1
 356 590 l 1
 286 590 l 1
 402 690 l 1
EndSplineSet
EndChar

StartChar: Cdotaccent
Encoding: 266 266 195
Width: 732
VWidth: 0
Flags: HW
LayerCount: 2
Fore
SplineSet
197 350 m 4
 170 184 274 60 435 60 c 0
 523 60 607 100 670 161 c 1
 710 113 l 1
 633 38 529 -10 423 -10 c 0
 228 -10 95 151 127 350 c 4
 159 549 346 710 541 710 c 0
 647 710 735 662 788 587 c 1
 732 539 l 1
 689 600 617 640 529 640 c 0
 368 640 224 516 197 350 c 4
505 825 m 0
 510 855 538 880 568 880 c 0
 598 880 618 855 613 825 c 0
 608 795 580 770 550 770 c 0
 520 770 500 795 505 825 c 0
EndSplineSet
EndChar

StartChar: cdotaccent
Encoding: 267 267 196
Width: 573
VWidth: 0
Flags: HM
LayerCount: 2
Fore
SplineSet
162 260 m 4
 143 141 216 50 333 50 c 4
 405 50 468 85 513 134 c 5
 548 92 l 5
 491 28 410 -10 323 -10 c 4
 174 -10 73 111 97 260 c 4
 121 409 262 530 411 530 c 4
 498 530 565 491 602 428 c 5
 554 386 l 5
 525 435 474 470 402 470 c 4
 285 470 181 379 162 260 c 4
376 645 m 0
 381 675 409 700 439 700 c 0
 469 700 489 675 484 645 c 0
 479 615 451 590 421 590 c 0
 391 590 371 615 376 645 c 0
EndSplineSet
EndChar

StartChar: Ccaron
Encoding: 268 268 197
Width: 732
VWidth: 0
Flags: HW
LayerCount: 2
Fore
SplineSet
197 350 m 4
 170 184 274 60 435 60 c 0
 523 60 607 100 670 161 c 1
 710 113 l 1
 633 38 529 -10 423 -10 c 0
 228 -10 95 151 127 350 c 4
 159 549 346 710 541 710 c 0
 647 710 735 662 788 587 c 1
 732 539 l 1
 689 600 617 640 529 640 c 0
 368 640 224 516 197 350 c 4
502 870 m 1
 585 770 l 1
 515 770 l 1
 432 870 l 1
 502 870 l 1
585 770 m 1
 515 770 l 1
 632 870 l 1
 702 870 l 1
 585 770 l 1
EndSplineSet
EndChar

StartChar: ccaron
Encoding: 269 269 198
Width: 573
VWidth: 0
Flags: HM
LayerCount: 2
Fore
SplineSet
162 260 m 4
 143 141 216 50 333 50 c 4
 405 50 468 85 513 134 c 5
 548 92 l 5
 491 28 410 -10 323 -10 c 4
 174 -10 73 111 97 260 c 4
 121 409 262 530 411 530 c 4
 498 530 565 491 602 428 c 5
 554 386 l 5
 525 435 474 470 402 470 c 4
 285 470 181 379 162 260 c 4
372 690 m 1
 456 590 l 1
 386 590 l 1
 302 690 l 1
 372 690 l 1
456 590 m 1
 386 590 l 1
 502 690 l 1
 572 690 l 1
 456 590 l 1
EndSplineSet
EndChar

StartChar: Dcaron
Encoding: 270 270 199
Width: 810
VWidth: 0
Flags: HW
LayerCount: 2
Fore
SplineSet
214 700 m 1
 494 700 l 1
 483 630 l 1
 203 630 l 1
 214 700 l 1
111 70 m 5
 391 70 l 5
 380 0 l 1
 100 0 l 1
 111 70 l 5
214 700 m 1
 284 700 l 1
 170 0 l 1
 100 0 l 1
 214 700 l 1
391 70 m 5
 552 70 700 184 727 350 c 0
 754 516 644 630 483 630 c 1
 494 700 l 1
 689 700 829 549 797 350 c 0
 765 151 575 0 380 0 c 1
 391 70 l 5
494 870 m 1
 578 770 l 1
 508 770 l 1
 424 870 l 1
 494 870 l 1
578 770 m 1
 508 770 l 1
 624 870 l 1
 694 870 l 1
 578 770 l 1
EndSplineSet
EndChar

StartChar: dcaron
Encoding: 271 271 200
Width: 655
VWidth: 0
Flags: HMW
LayerCount: 2
Fore
SplineSet
547 260 m 4
 568 389 494 470 387 470 c 4
 280 470 183 389 162 260 c 4
 141 131 211 50 318 50 c 4
 425 50 526 131 547 260 c 4
582 260 m 4
 556 101 457 -10 298 -10 c 4
 169 -10 71 101 97 260 c 4
 123 419 257 530 386 530 c 4
 545 530 608 419 582 260 c 4
689 730 m 1
 570 0 l 1
 505 0 l 1
 624 730 l 1
 689 730 l 1
813 655 m 0
 818 685 846 710 878 710 c 4
 908 710 931 690 925 655 c 0
 923 641 915 629 906 617 c 2
 803 480 l 1
 768 480 l 1
 843 602 l 1
 822 609 809 630 813 655 c 0
EndSplineSet
EndChar

StartChar: Emacron
Encoding: 274 274 201
Width: 670
VWidth: 0
Flags: HW
LayerCount: 2
Fore
SplineSet
164 393 m 1
 624 393 l 1
 613 323 l 1
 153 323 l 1
 164 393 l 1
214 700 m 1
 724 700 l 1
 713 630 l 1
 203 630 l 1
 214 700 l 1
111 70 m 5
 621 70 l 5
 610 0 l 1
 100 0 l 1
 111 70 l 5
214 700 m 1
 284 700 l 1
 170 0 l 1
 100 0 l 1
 214 700 l 1
340 840 m 5
 644 840 l 5
 634 780 l 1
 330 780 l 1
 340 840 l 5
EndSplineSet
EndChar

StartChar: emacron
Encoding: 275 275 202
Width: 615
VWidth: 0
Flags: HMW
LayerCount: 2
Fore
SplineSet
607 260 m 1
 604 240 l 1
 539 240 l 1
 542 260 l 1
 607 260 l 1
539 240 m 1
 133 240 l 1
 142 297 l 1
 548 297 l 1
 539 240 l 1
542 260 m 1
 563 389 504 470 387 470 c 0
 270 470 183 389 162 260 c 1
 97 260 l 1
 123 419 257 530 396 530 c 0
 535 530 633 419 607 260 c 1
 542 260 l 1
97 260 m 1
 162 260 l 1
 141 131 211 50 328 50 c 0
 402 50 473 85 518 134 c 5
 553 92 l 1
 496 28 405 -10 318 -10 c 0
 169 -10 71 101 97 260 c 1
260 660 m 5
 564 660 l 5
 555 600 l 1
 251 600 l 1
 260 660 l 5
EndSplineSet
EndChar

StartChar: Ebreve
Encoding: 276 276 203
Width: 670
VWidth: 0
Flags: HW
LayerCount: 2
Fore
SplineSet
164 393 m 1
 624 393 l 1
 613 323 l 1
 153 323 l 1
 164 393 l 1
214 700 m 1
 724 700 l 1
 713 630 l 1
 203 630 l 1
 214 700 l 1
111 70 m 5
 621 70 l 5
 610 0 l 1
 100 0 l 1
 111 70 l 5
214 700 m 1
 284 700 l 1
 170 0 l 1
 100 0 l 1
 214 700 l 1
492 840 m 1
 432 840 392 874 400 922 c 1
 334 916 l 1
 320 827 381 770 480 770 c 1
 492 840 l 1
492 840 m 1
 480 770 l 1
 579 770 660 827 674 916 c 1
 610 922 l 5
 602 874 552 840 492 840 c 1
EndSplineSet
EndChar

StartChar: ebreve
Encoding: 277 277 204
Width: 615
VWidth: 0
Flags: HMW
LayerCount: 2
Fore
SplineSet
607 260 m 1
 604 240 l 1
 539 240 l 1
 542 260 l 1
 607 260 l 1
539 240 m 1
 133 240 l 1
 142 297 l 1
 548 297 l 1
 539 240 l 1
542 260 m 1
 563 389 504 470 387 470 c 0
 270 470 183 389 162 260 c 1
 97 260 l 1
 123 419 257 530 396 530 c 0
 535 530 633 419 607 260 c 1
 542 260 l 1
97 260 m 1
 162 260 l 1
 141 131 211 50 328 50 c 0
 402 50 473 85 518 134 c 5
 553 92 l 1
 496 28 405 -10 318 -10 c 0
 169 -10 71 101 97 260 c 1
412 660 m 1
 352 660 313 694 321 742 c 1
 255 736 l 1
 241 647 302 590 401 590 c 1
 412 660 l 1
412 660 m 1
 401 590 l 1
 500 590 581 647 595 736 c 1
 531 742 l 5
 523 694 472 660 412 660 c 1
EndSplineSet
EndChar

StartChar: Edotaccent
Encoding: 278 278 205
Width: 670
VWidth: 0
Flags: HW
LayerCount: 2
Fore
SplineSet
164 393 m 1
 624 393 l 1
 613 323 l 1
 153 323 l 1
 164 393 l 1
214 700 m 1
 724 700 l 1
 713 630 l 1
 203 630 l 1
 214 700 l 1
111 70 m 5
 621 70 l 5
 610 0 l 1
 100 0 l 1
 111 70 l 5
214 700 m 1
 284 700 l 1
 170 0 l 1
 100 0 l 1
 214 700 l 1
435 825 m 0
 440 855 468 880 498 880 c 0
 528 880 548 855 543 825 c 0
 538 795 510 770 480 770 c 0
 450 770 430 795 435 825 c 0
EndSplineSet
EndChar

StartChar: edotaccent
Encoding: 279 279 206
Width: 615
VWidth: 0
Flags: HMW
LayerCount: 2
Fore
SplineSet
607 260 m 1
 604 240 l 1
 539 240 l 1
 542 260 l 1
 607 260 l 1
539 240 m 1
 133 240 l 1
 142 297 l 1
 548 297 l 1
 539 240 l 1
542 260 m 1
 563 389 504 470 387 470 c 0
 270 470 183 389 162 260 c 1
 97 260 l 1
 123 419 257 530 396 530 c 0
 535 530 633 419 607 260 c 1
 542 260 l 1
97 260 m 1
 162 260 l 1
 141 131 211 50 328 50 c 0
 402 50 473 85 518 134 c 5
 553 92 l 1
 496 28 405 -10 318 -10 c 0
 169 -10 71 101 97 260 c 1
356 645 m 0
 361 675 389 700 419 700 c 0
 449 700 469 675 464 645 c 0
 459 615 431 590 401 590 c 0
 371 590 351 615 356 645 c 0
EndSplineSet
EndChar

StartChar: Ecaron
Encoding: 282 282 207
Width: 670
VWidth: 0
Flags: HW
LayerCount: 2
Fore
SplineSet
164 393 m 1
 624 393 l 1
 613 323 l 1
 153 323 l 1
 164 393 l 1
214 700 m 1
 724 700 l 1
 713 630 l 1
 203 630 l 1
 214 700 l 1
111 70 m 5
 621 70 l 5
 610 0 l 1
 100 0 l 1
 111 70 l 5
214 700 m 1
 284 700 l 1
 170 0 l 1
 100 0 l 1
 214 700 l 1
432 870 m 1
 515 770 l 1
 445 770 l 1
 362 870 l 1
 432 870 l 1
515 770 m 1
 445 770 l 1
 562 870 l 1
 632 870 l 1
 515 770 l 1
EndSplineSet
EndChar

StartChar: ecaron
Encoding: 283 283 208
Width: 615
VWidth: 0
Flags: HMW
LayerCount: 2
Fore
SplineSet
607 260 m 1
 604 240 l 1
 539 240 l 1
 542 260 l 1
 607 260 l 1
539 240 m 1
 133 240 l 1
 142 297 l 1
 548 297 l 1
 539 240 l 1
542 260 m 1
 563 389 504 470 387 470 c 0
 270 470 183 389 162 260 c 1
 97 260 l 1
 123 419 257 530 396 530 c 0
 535 530 633 419 607 260 c 1
 542 260 l 1
97 260 m 1
 162 260 l 1
 141 131 211 50 328 50 c 0
 402 50 473 85 518 134 c 5
 553 92 l 1
 496 28 405 -10 318 -10 c 0
 169 -10 71 101 97 260 c 1
352 690 m 1
 436 590 l 1
 366 590 l 1
 282 690 l 1
 352 690 l 1
436 590 m 1
 366 590 l 1
 482 690 l 1
 552 690 l 1
 436 590 l 1
EndSplineSet
EndChar

StartChar: Gcircumflex
Encoding: 284 284 209
Width: 782
VWidth: 0
Flags: HW
LayerCount: 2
Fore
SplineSet
762 370 m 1
 751 300 l 1
 474 300 l 1
 485 370 l 1
 762 370 l 1
720 113 m 1
 650 113 l 1
 692 370 l 1
 762 370 l 1
 720 113 l 1
197 350 m 4
 170 184 274 60 435 60 c 4
 518 60 613 105 676 166 c 5
 720 113 l 1
 643 38 529 -10 423 -10 c 0
 228 -10 95 151 127 350 c 0
 159 549 346 710 541 710 c 0
 647 710 735 662 788 587 c 1
 732 539 l 1
 689 600 612 640 529 640 c 4
 368 640 224 516 197 350 c 4
615 770 m 1
 532 870 l 1
 602 870 l 1
 685 770 l 1
 615 770 l 1
532 870 m 1
 602 870 l 1
 485 770 l 1
 415 770 l 1
 532 870 l 1
EndSplineSet
EndChar

StartChar: gcircumflex
Encoding: 285 285 210
Width: 655
VWidth: 0
Flags: HMW
LayerCount: 2
Fore
SplineSet
547 260 m 0
 568 389 494 470 387 470 c 0
 280 470 183 389 162 260 c 0
 141 131 211 50 318 50 c 0
 425 50 526 131 547 260 c 0
582 260 m 0
 556 101 457 -10 298 -10 c 0
 169 -10 71 101 97 260 c 0
 123 419 257 530 386 530 c 0
 545 530 608 419 582 260 c 0
297 -160 m 1
 287 -220 l 1
 150 -220 76 -172 39 -108 c 1
 87 -66 l 5
 121 -111 174 -160 297 -160 c 1
573 20 m 1
 508 20 l 1
 590 520 l 1
 655 520 l 1
 573 20 l 1
508 20 m 1
 573 20 l 1
 550 -119 416 -220 287 -220 c 1
 297 -160 l 1
 384 -160 490 -89 508 20 c 1
461 590 m 1
 377 690 l 1
 447 690 l 1
 531 590 l 1
 461 590 l 1
377 690 m 1
 447 690 l 1
 331 590 l 1
 261 590 l 1
 377 690 l 1
EndSplineSet
EndChar

StartChar: Gbreve
Encoding: 286 286 211
Width: 782
VWidth: 0
Flags: HW
LayerCount: 2
Fore
SplineSet
762 370 m 1
 751 300 l 1
 474 300 l 1
 485 370 l 1
 762 370 l 1
720 113 m 1
 650 113 l 1
 692 370 l 1
 762 370 l 1
 720 113 l 1
197 350 m 4
 170 184 274 60 435 60 c 4
 518 60 613 105 676 166 c 5
 720 113 l 1
 643 38 529 -10 423 -10 c 0
 228 -10 95 151 127 350 c 0
 159 549 346 710 541 710 c 0
 647 710 735 662 788 587 c 1
 732 539 l 1
 689 600 612 640 529 640 c 4
 368 640 224 516 197 350 c 4
562 840 m 1
 502 840 462 874 470 922 c 1
 404 916 l 1
 390 827 451 770 550 770 c 1
 562 840 l 1
562 840 m 1
 550 770 l 1
 649 770 730 827 744 916 c 1
 680 922 l 5
 672 874 622 840 562 840 c 1
EndSplineSet
EndChar

StartChar: gbreve
Encoding: 287 287 212
Width: 655
VWidth: 0
Flags: HMW
LayerCount: 2
Fore
SplineSet
547 260 m 0
 568 389 494 470 387 470 c 0
 280 470 183 389 162 260 c 0
 141 131 211 50 318 50 c 0
 425 50 526 131 547 260 c 0
582 260 m 0
 556 101 457 -10 298 -10 c 0
 169 -10 71 101 97 260 c 0
 123 419 257 530 386 530 c 0
 545 530 608 419 582 260 c 0
297 -160 m 1
 287 -220 l 1
 150 -220 76 -172 39 -108 c 1
 87 -66 l 5
 121 -111 174 -160 297 -160 c 1
573 20 m 1
 508 20 l 1
 590 520 l 1
 655 520 l 1
 573 20 l 1
508 20 m 1
 573 20 l 1
 550 -119 416 -220 287 -220 c 1
 297 -160 l 1
 384 -160 490 -89 508 20 c 1
407 660 m 1
 347 660 308 694 316 742 c 1
 250 736 l 1
 236 647 297 590 396 590 c 1
 407 660 l 1
407 660 m 1
 396 590 l 1
 495 590 576 647 590 736 c 1
 526 742 l 5
 518 694 467 660 407 660 c 1
EndSplineSet
EndChar

StartChar: Gdotaccent
Encoding: 288 288 213
Width: 782
VWidth: 0
Flags: HW
LayerCount: 2
Fore
SplineSet
762 370 m 1
 751 300 l 1
 474 300 l 1
 485 370 l 1
 762 370 l 1
720 113 m 1
 650 113 l 1
 692 370 l 1
 762 370 l 1
 720 113 l 1
197 350 m 4
 170 184 274 60 435 60 c 4
 518 60 613 105 676 166 c 5
 720 113 l 1
 643 38 529 -10 423 -10 c 0
 228 -10 95 151 127 350 c 0
 159 549 346 710 541 710 c 0
 647 710 735 662 788 587 c 1
 732 539 l 1
 689 600 612 640 529 640 c 4
 368 640 224 516 197 350 c 4
505 825 m 0
 510 855 538 880 568 880 c 0
 598 880 618 855 613 825 c 0
 608 795 580 770 550 770 c 0
 520 770 500 795 505 825 c 0
EndSplineSet
EndChar

StartChar: gdotaccent
Encoding: 289 289 214
Width: 655
VWidth: 0
Flags: HMW
LayerCount: 2
Fore
SplineSet
547 260 m 0
 568 389 494 470 387 470 c 0
 280 470 183 389 162 260 c 0
 141 131 211 50 318 50 c 0
 425 50 526 131 547 260 c 0
582 260 m 0
 556 101 457 -10 298 -10 c 0
 169 -10 71 101 97 260 c 0
 123 419 257 530 386 530 c 0
 545 530 608 419 582 260 c 0
297 -160 m 1
 287 -220 l 1
 150 -220 76 -172 39 -108 c 1
 87 -66 l 5
 121 -111 174 -160 297 -160 c 1
573 20 m 1
 508 20 l 1
 590 520 l 1
 655 520 l 1
 573 20 l 1
508 20 m 1
 573 20 l 1
 550 -119 416 -220 287 -220 c 1
 297 -160 l 1
 384 -160 490 -89 508 20 c 1
351 645 m 0
 356 675 384 700 414 700 c 0
 444 700 464 675 459 645 c 0
 454 615 426 590 396 590 c 0
 366 590 346 615 351 645 c 0
EndSplineSet
EndChar

StartChar: uni0122
Encoding: 290 290 215
Width: 782
VWidth: 0
Flags: HW
LayerCount: 2
Fore
SplineSet
762 370 m 1
 751 300 l 1
 474 300 l 1
 485 370 l 1
 762 370 l 1
720 113 m 1
 650 113 l 1
 692 370 l 1
 762 370 l 1
 720 113 l 1
197 350 m 4
 170 184 274 60 435 60 c 4
 518 60 613 105 676 166 c 5
 720 113 l 1
 643 38 529 -10 423 -10 c 0
 228 -10 95 151 127 350 c 0
 159 549 346 710 541 710 c 0
 647 710 735 662 788 587 c 1
 732 539 l 1
 689 600 612 640 529 640 c 4
 368 640 224 516 197 350 c 4
375 -145 m 0
 380 -115 408 -90 440 -90 c 4
 470 -90 493 -110 487 -145 c 0
 485 -159 478 -171 469 -183 c 2
 366 -320 l 1
 331 -320 l 1
 406 -198 l 1
 385 -191 371 -170 375 -145 c 0
EndSplineSet
EndChar

StartChar: Hcircumflex
Encoding: 292 292 216
Width: 765
VWidth: 0
Flags: HW
LayerCount: 2
Fore
SplineSet
709 700 m 1xf8
 779 700 l 1
 665 0 l 1
 595 0 l 1
 709 700 l 1xf8
164 393 m 5
 674 393 l 5
 663 323 l 1xf4
 153 323 l 1
 164 393 l 5
214 700 m 1
 284 700 l 1
 170 0 l 1
 100 0 l 1
 214 700 l 1
570 770 m 1
 487 870 l 1
 557 870 l 1
 640 770 l 1
 570 770 l 1
487 870 m 1
 557 870 l 1
 440 770 l 1
 370 770 l 1
 487 870 l 1
EndSplineSet
EndChar

StartChar: hcircumflex
Encoding: 293 293 217
Width: 635
VWidth: 0
Flags: HMW
LayerCount: 2
Fore
SplineSet
604 300 m 1
 555 0 l 1
 490 0 l 1
 539 300 l 1
 604 300 l 1
539 300 m 1
 554 390 522 470 407 470 c 0
 299 470 214 390 196 280 c 1
 161 280 l 1
 180 399 272 530 431 530 c 0
 560 530 625 429 604 300 c 1
 539 300 l 1
204 730 m 1
 269 730 l 1
 150 0 l 1
 85 0 l 1
 204 730 l 1
511 790 m 1
 427 890 l 1
 497 890 l 1
 581 790 l 1
 511 790 l 1
427 890 m 1
 497 890 l 1
 381 790 l 1
 311 790 l 1
 427 890 l 1
EndSplineSet
EndChar

StartChar: Itilde
Encoding: 296 296 218
Width: 300
VWidth: 0
Flags: HW
LayerCount: 2
Fore
SplineSet
229 700 m 1
 299 700 l 5
 185 0 l 5
 115 0 l 1
 229 700 l 1
143 770 m 1
 86 790 l 1
 103 868 157 907 208 907 c 0
 272 907 326 833 370 833 c 4
 415 833 430 873 436 910 c 1
 482 890 l 1
 463 802 412 773 362 773 c 0
 300 773 251 847 208 847 c 0
 164 847 149 807 143 770 c 1
EndSplineSet
EndChar

StartChar: itilde
Encoding: 297 297 219
Width: 250
VWidth: 0
Flags: HMW
LayerCount: 2
Fore
SplineSet
170 520 m 1
 250 520 l 1
 165 0 l 1
 85 0 l 1
 170 520 l 1
91 590 m 1
 34 610 l 1
 51 688 106 727 157 727 c 0
 221 727 274 653 318 653 c 4
 363 653 378 693 384 730 c 1
 431 710 l 1
 412 622 360 593 310 593 c 0
 248 593 199 667 156 667 c 0
 112 667 97 627 91 590 c 1
EndSplineSet
EndChar

StartChar: Imacron
Encoding: 298 298 220
Width: 300
VWidth: 0
Flags: HW
LayerCount: 2
Fore
SplineSet
229 700 m 1
 299 700 l 5
 185 0 l 5
 115 0 l 1
 229 700 l 1
132 840 m 5
 436 840 l 5
 427 780 l 1
 123 780 l 1
 132 840 l 5
EndSplineSet
EndChar

StartChar: imacron
Encoding: 299 299 221
Width: 250
VWidth: 0
Flags: HMW
LayerCount: 2
Fore
SplineSet
170 520 m 1
 250 520 l 1
 165 0 l 1
 85 0 l 1
 170 520 l 1
80 660 m 5
 384 660 l 5
 375 600 l 1
 71 600 l 1
 80 660 l 5
EndSplineSet
EndChar

StartChar: Ibreve
Encoding: 300 300 222
Width: 300
VWidth: 0
Flags: HW
LayerCount: 2
Fore
SplineSet
229 700 m 1
 299 700 l 5
 185 0 l 5
 115 0 l 1
 229 700 l 1
284 840 m 1
 224 840 185 874 193 922 c 1
 127 916 l 1
 113 827 174 770 273 770 c 1
 284 840 l 1
284 840 m 1
 273 770 l 1
 372 770 453 827 467 916 c 1
 403 922 l 5
 395 874 344 840 284 840 c 1
EndSplineSet
EndChar

StartChar: ibreve
Encoding: 301 301 223
Width: 250
VWidth: 0
Flags: HMW
LayerCount: 2
Fore
SplineSet
170 520 m 1
 250 520 l 1
 165 0 l 1
 85 0 l 1
 170 520 l 1
232 660 m 1
 172 660 133 694 141 742 c 1
 75 736 l 1
 61 647 122 590 221 590 c 1
 232 660 l 1
232 660 m 1
 221 590 l 1
 320 590 401 647 415 736 c 1
 351 742 l 5
 343 694 292 660 232 660 c 1
EndSplineSet
EndChar

StartChar: Idotaccent
Encoding: 304 304 224
Width: 300
VWidth: 0
Flags: HW
LayerCount: 2
Fore
SplineSet
229 700 m 1xe8
 299 700 l 5
 185 0 l 5
 115 0 l 1
 229 700 l 1xe8
228 825 m 0xf0
 233 855 261 880 291 880 c 0
 321 880 341 855 336 825 c 0
 331 795 303 770 273 770 c 0
 243 770 223 795 228 825 c 0xf0
EndSplineSet
EndChar

StartChar: dotlessi
Encoding: 305 305 225
Width: 250
VWidth: 0
Flags: HMW
AnchorPoint: "ced" 125 0 basechar 0
LayerCount: 2
Fore
SplineSet
170 520 m 1
 250 520 l 1
 165 0 l 1
 85 0 l 1
 170 520 l 1
EndSplineSet
EndChar

StartChar: Jcircumflex
Encoding: 308 308 226
Width: 599
VWidth: 0
Flags: HW
LayerCount: 2
Fore
SplineSet
466 260 m 5
 538 700 l 5
 603 700 l 5
 531 260 l 5
 466 260 l 5
466 260 m 5
 531 260 l 5
 503 91 402 -10 263 -10 c 0
 155 -10 81 51 56 157 c 1
 116 187 l 1
 137 104 186 54 274 54 c 0
 371 54 445 131 466 260 c 5
644 770 m 1
 561 870 l 1
 631 870 l 1
 714 770 l 1
 644 770 l 1
561 870 m 1
 631 870 l 1
 514 770 l 1
 444 770 l 1
 561 870 l 1
EndSplineSet
EndChar

StartChar: jcircumflex
Encoding: 309 309 227
Width: 250
VWidth: 0
Flags: HM
LayerCount: 2
Fore
SplineSet
174 520 m 1
 254 520 l 1
 159 -60 l 1
 79 -60 l 1
 174 520 l 1
6 -135 m 1
 -0 -210 l 1
 -57 -210 -105 -194 -126 -160 c 1
 -78 -101 l 1
 -64 -120 -37 -135 6 -135 c 1
79 -60 m 1
 159 -60 l 1
 146 -139 89 -210 -0 -210 c 1
 6 -135 l 1
 43 -135 72 -100 79 -60 c 1
290 590 m 1
 206 690 l 1
 276 690 l 1
 360 590 l 1
 290 590 l 1
206 690 m 1
 276 690 l 1
 160 590 l 1
 90 590 l 1
 206 690 l 1
EndSplineSet
EndChar

StartChar: uni0136
Encoding: 310 310 228
Width: 745
VWidth: 0
Flags: HW
LayerCount: 2
Fore
SplineSet
366 413 m 5
 445 413 l 1
 720 0 l 1
 641 0 l 5
 366 413 l 5
699 700 m 1
 784 700 l 1
 204 207 l 1
 142 230 l 1
 699 700 l 1
214 700 m 1
 284 700 l 1
 170 0 l 1
 100 0 l 1
 214 700 l 1
360 -135 m 0
 365 -105 392 -80 424 -80 c 4
 454 -80 478 -100 472 -135 c 0
 470 -149 462 -161 453 -173 c 2
 350 -310 l 1
 315 -310 l 1
 390 -188 l 1
 369 -181 356 -160 360 -135 c 0
EndSplineSet
EndChar

StartChar: uni0137
Encoding: 311 311 229
Width: 615
VWidth: 0
Flags: HMW
LayerCount: 2
Fore
SplineSet
314 291 m 5
 381 311 l 1
 590 0 l 1
 514 0 l 5
 314 291 l 5
569 520 m 1
 655 520 l 1
 168 110 l 1
 135 154 l 1
 569 520 l 1
204 730 m 1
 269 730 l 1
 150 0 l 1
 85 0 l 1
 204 730 l 1
267 -135 m 0
 272 -105 300 -80 332 -80 c 4
 362 -80 385 -100 379 -135 c 0
 377 -149 370 -161 361 -173 c 2
 258 -310 l 1
 223 -310 l 1
 297 -188 l 1
 276 -181 263 -160 267 -135 c 0
EndSplineSet
EndChar

StartChar: Lacute
Encoding: 313 313 230
Width: 655
VWidth: 0
Flags: HW
LayerCount: 2
Fore
SplineSet
111 70 m 5
 621 70 l 5
 610 0 l 1
 100 0 l 1
 111 70 l 5
214 700 m 1
 284 700 l 1
 170 0 l 1
 100 0 l 1
 214 700 l 1
297 770 m 1
 247 770 l 5
 350 910 l 5
 440 910 l 1
 297 770 l 1
EndSplineSet
EndChar

StartChar: lacute
Encoding: 314 314 231
Width: 265
VWidth: 0
Flags: HMW
LayerCount: 2
Fore
SplineSet
219 730 m 1
 284 730 l 5
 165 0 l 5
 100 0 l 1
 219 730 l 1
289 790 m 1
 239 790 l 5
 341 930 l 5
 431 930 l 1
 289 790 l 1
EndSplineSet
EndChar

StartChar: uni013B
Encoding: 315 315 232
Width: 655
VWidth: 0
Flags: HW
LayerCount: 2
Fore
SplineSet
111 70 m 5
 621 70 l 5
 610 0 l 1
 100 0 l 1
 111 70 l 5
214 700 m 1
 284 700 l 1
 170 0 l 1
 100 0 l 1
 214 700 l 1
307 -135 m 0
 312 -105 340 -80 372 -80 c 4
 402 -80 425 -100 419 -135 c 0
 417 -149 410 -161 401 -173 c 2
 298 -310 l 1
 263 -310 l 1
 337 -188 l 1
 316 -181 303 -160 307 -135 c 0
EndSplineSet
EndChar

StartChar: uni013C
Encoding: 316 316 233
Width: 265
VWidth: 0
Flags: HMW
LayerCount: 2
Fore
SplineSet
219 730 m 1
 284 730 l 5
 165 0 l 5
 100 0 l 1
 219 730 l 1
82 -135 m 0
 87 -105 115 -80 147 -80 c 4
 177 -80 200 -100 194 -135 c 0
 192 -149 185 -161 176 -173 c 2
 73 -310 l 1
 38 -310 l 1
 112 -188 l 1
 91 -181 78 -160 82 -135 c 0
EndSplineSet
EndChar

StartChar: Lcaron
Encoding: 317 317 234
Width: 655
VWidth: 0
Flags: HW
LayerCount: 2
Fore
SplineSet
111 70 m 5
 621 70 l 5
 610 0 l 1
 100 0 l 1
 111 70 l 5
214 700 m 1
 284 700 l 1
 170 0 l 1
 100 0 l 1
 214 700 l 1
494 635 m 0
 499 665 527 690 559 690 c 4
 589 690 612 670 606 635 c 0
 604 621 597 609 588 597 c 2
 485 460 l 1
 450 460 l 1
 525 582 l 1
 504 589 490 610 494 635 c 0
EndSplineSet
EndChar

StartChar: lcaron
Encoding: 318 318 235
Width: 265
VWidth: 0
Flags: HMW
LayerCount: 2
Fore
SplineSet
219 730 m 1
 284 730 l 5
 165 0 l 5
 100 0 l 1
 219 730 l 1
378 655 m 0
 383 685 411 710 443 710 c 4
 473 710 496 690 490 655 c 0
 488 641 480 629 471 617 c 2
 368 480 l 1
 333 480 l 1
 408 602 l 1
 387 609 374 630 378 655 c 0
EndSplineSet
EndChar

StartChar: Ldot
Encoding: 319 319 236
Width: 655
VWidth: 0
Flags: HW
LayerCount: 2
Fore
SplineSet
111 70 m 5
 621 70 l 5
 610 0 l 1
 100 0 l 1
 111 70 l 5
214 700 m 1
 284 700 l 1
 170 0 l 1
 100 0 l 1
 214 700 l 1
377 345 m 4
 382 375 410 400 440 400 c 4
 470 400 490 375 485 345 c 4
 480 315 452 290 422 290 c 4
 392 290 372 315 377 345 c 4
EndSplineSet
EndChar

StartChar: ldot
Encoding: 320 320 237
Width: 450
VWidth: 0
Flags: HM
LayerCount: 2
Fore
SplineSet
219 730 m 1
 284 730 l 5
 165 0 l 5
 100 0 l 1
 219 730 l 1
369 295 m 4
 374 325 402 350 432 350 c 4
 462 350 482 325 477 295 c 4
 472 265 444 240 414 240 c 4
 384 240 364 265 369 295 c 4
EndSplineSet
EndChar

StartChar: Nacute
Encoding: 323 323 238
Width: 790
VWidth: 0
Flags: HW
LayerCount: 2
Fore
SplineSet
690 0 m 1
 630 0 l 5
 634 24 l 5
 692 14 l 1
 690 0 l 1
274 700 m 1
 271 680 l 1
 211 680 l 1
 214 700 l 1
 274 700 l 1
208 665 m 1
 274 700 l 1
 696 35 l 1
 630 0 l 5
 208 665 l 1
734 700 m 5
 804 700 l 1
 690 0 l 1
 623 20 l 5
 734 700 l 5
214 700 m 1
 281 680 l 1
 170 0 l 1
 100 0 l 1
 214 700 l 1
545 770 m 1
 495 770 l 5
 598 910 l 5
 688 910 l 1
 545 770 l 1
EndSplineSet
EndChar

StartChar: nacute
Encoding: 324 324 239
Width: 635
VWidth: 0
Flags: HMW
LayerCount: 2
Fore
SplineSet
604 300 m 5
 555 0 l 5
 490 0 l 5
 539 300 l 5
 604 300 l 5
170 520 m 5
 235 520 l 5
 150 0 l 5
 85 0 l 5
 170 520 l 5
539 300 m 5
 554 390 522 470 407 470 c 4
 299 470 214 390 196 280 c 5
 161 280 l 5
 180 399 272 530 431 530 c 4
 560 530 625 429 604 300 c 5
 539 300 l 5
444 590 m 1
 394 590 l 5
 496 730 l 5
 586 730 l 1
 444 590 l 1
EndSplineSet
EndChar

StartChar: uni0145
Encoding: 325 325 240
Width: 790
VWidth: 0
Flags: HW
LayerCount: 2
Fore
SplineSet
690 0 m 1
 630 0 l 5
 634 24 l 5
 692 14 l 1
 690 0 l 1
274 700 m 1
 271 680 l 1
 211 680 l 1
 214 700 l 1
 274 700 l 1
208 665 m 1
 274 700 l 1
 696 35 l 1
 630 0 l 5
 208 665 l 1
734 700 m 5
 804 700 l 1
 690 0 l 1
 623 20 l 5
 734 700 l 5
214 700 m 1
 281 680 l 1
 170 0 l 1
 100 0 l 1
 214 700 l 1
342 -135 m 0
 347 -105 375 -80 407 -80 c 4
 437 -80 460 -100 454 -135 c 0
 452 -149 445 -161 436 -173 c 2
 333 -310 l 1
 298 -310 l 1
 372 -188 l 1
 351 -181 338 -160 342 -135 c 0
EndSplineSet
EndChar

StartChar: uni0146
Encoding: 326 326 241
Width: 635
VWidth: 0
Flags: HMW
LayerCount: 2
Fore
SplineSet
604 300 m 5
 555 0 l 5
 490 0 l 5
 539 300 l 5
 604 300 l 5
170 520 m 5
 235 520 l 5
 150 0 l 5
 85 0 l 5
 170 520 l 5
539 300 m 5
 554 390 522 470 407 470 c 4
 299 470 214 390 196 280 c 5
 161 280 l 5
 180 399 272 530 431 530 c 4
 560 530 625 429 604 300 c 5
 539 300 l 5
270 -135 m 0
 275 -105 302 -80 334 -80 c 4
 364 -80 388 -100 382 -135 c 0
 380 -149 372 -161 363 -173 c 2
 260 -310 l 1
 225 -310 l 1
 300 -188 l 1
 279 -181 266 -160 270 -135 c 0
EndSplineSet
EndChar

StartChar: Ncaron
Encoding: 327 327 242
Width: 790
VWidth: 0
Flags: HW
LayerCount: 2
Fore
SplineSet
690 0 m 1
 630 0 l 5
 634 24 l 5
 692 14 l 1
 690 0 l 1
274 700 m 1
 271 680 l 1
 211 680 l 1
 214 700 l 1
 274 700 l 1
208 665 m 1
 274 700 l 1
 696 35 l 1
 630 0 l 5
 208 665 l 1
734 700 m 5
 804 700 l 1
 690 0 l 1
 623 20 l 5
 734 700 l 5
214 700 m 1
 281 680 l 1
 170 0 l 1
 100 0 l 1
 214 700 l 1
467 870 m 1
 550 770 l 1
 480 770 l 1
 397 870 l 1
 467 870 l 1
550 770 m 1
 480 770 l 1
 597 870 l 1
 667 870 l 1
 550 770 l 1
EndSplineSet
EndChar

StartChar: ncaron
Encoding: 328 328 243
Width: 635
VWidth: 0
Flags: HMW
LayerCount: 2
Fore
SplineSet
604 300 m 5
 555 0 l 5
 490 0 l 5
 539 300 l 5
 604 300 l 5
170 520 m 5
 235 520 l 5
 150 0 l 5
 85 0 l 5
 170 520 l 5
539 300 m 5
 554 390 522 470 407 470 c 4
 299 470 214 390 196 280 c 5
 161 280 l 5
 180 399 272 530 431 530 c 4
 560 530 625 429 604 300 c 5
 539 300 l 5
365 690 m 1
 449 590 l 1
 379 590 l 1
 295 690 l 1
 365 690 l 1
449 590 m 1
 379 590 l 1
 495 690 l 1
 565 690 l 1
 449 590 l 1
EndSplineSet
EndChar

StartChar: Omacron
Encoding: 332 332 244
Width: 850
VWidth: 0
Flags: HW
LayerCount: 2
Fore
SplineSet
197 350 m 4
 171 190 275 60 435 60 c 4
 595 60 741 190 767 350 c 4
 793 510 689 640 529 640 c 4
 369 640 223 510 197 350 c 4
127 350 m 4
 159 549 346 710 541 710 c 4
 736 710 869 549 837 350 c 4
 805 151 618 -10 423 -10 c 4
 228 -10 95 151 127 350 c 4
410 840 m 5
 714 840 l 5
 704 780 l 1
 400 780 l 1
 410 840 l 5
EndSplineSet
EndChar

StartChar: omacron
Encoding: 333 333 245
Width: 650
VWidth: 0
Flags: HM
LayerCount: 2
Fore
SplineSet
162 260 m 0
 143 144 220 50 333 50 c 0
 446 50 553 144 572 260 c 0
 591 376 515 470 402 470 c 0
 289 470 181 376 162 260 c 0
97 260 m 0
 121 409 262 530 411 530 c 0
 560 530 661 409 637 260 c 0
 613 111 472 -10 323 -10 c 0
 174 -10 73 111 97 260 c 0
280 660 m 5
 584 660 l 5
 575 600 l 1
 271 600 l 1
 280 660 l 5
EndSplineSet
EndChar

StartChar: Obreve
Encoding: 334 334 246
Width: 850
VWidth: 0
Flags: HW
LayerCount: 2
Fore
SplineSet
197 350 m 4
 171 190 275 60 435 60 c 4
 595 60 741 190 767 350 c 4
 793 510 689 640 529 640 c 4
 369 640 223 510 197 350 c 4
127 350 m 4
 159 549 346 710 541 710 c 4
 736 710 869 549 837 350 c 4
 805 151 618 -10 423 -10 c 4
 228 -10 95 151 127 350 c 4
562 840 m 1
 502 840 462 874 470 922 c 1
 404 916 l 1
 390 827 451 770 550 770 c 1
 562 840 l 1
562 840 m 1
 550 770 l 1
 649 770 730 827 744 916 c 1
 680 922 l 5
 672 874 622 840 562 840 c 1
EndSplineSet
EndChar

StartChar: obreve
Encoding: 335 335 247
Width: 650
VWidth: 0
Flags: HM
LayerCount: 2
Fore
SplineSet
162 260 m 0
 143 144 220 50 333 50 c 0
 446 50 553 144 572 260 c 0
 591 376 515 470 402 470 c 0
 289 470 181 376 162 260 c 0
97 260 m 0
 121 409 262 530 411 530 c 0
 560 530 661 409 637 260 c 0
 613 111 472 -10 323 -10 c 0
 174 -10 73 111 97 260 c 0
432 660 m 1
 372 660 333 694 341 742 c 1
 275 736 l 1
 261 647 322 590 421 590 c 1
 432 660 l 1
432 660 m 1
 421 590 l 1
 520 590 601 647 615 736 c 1
 551 742 l 5
 543 694 492 660 432 660 c 1
EndSplineSet
EndChar

StartChar: Racute
Encoding: 340 340 248
Width: 718
VWidth: 0
Flags: HW
LayerCount: 2
Fore
SplineSet
454 333 m 1xdc
 552 333 631 387 646 477 c 0
 661 567 601 630 503 630 c 1
 514 700 l 1
 643 700 736 602 716 477 c 0
 696 353 572 263 443 263 c 1
 454 333 l 1xdc
400 320 m 5xbc
 485 320 l 1
 673 0 l 1
 588 0 l 5
 400 320 l 5xbc
214 700 m 1
 284 700 l 1
 170 0 l 1
 100 0 l 1
 214 700 l 1
219 700 m 1
 514 700 l 1
 503 630 l 1
 208 630 l 1
 219 700 l 1
159 333 m 1xdc
 454 333 l 1
 443 263 l 1
 148 263 l 1
 159 333 l 1xdc
453 770 m 1
 403 770 l 5
 506 910 l 5
 596 910 l 1
 453 770 l 1
EndSplineSet
EndChar

StartChar: racute
Encoding: 341 341 249
Width: 410
VWidth: 0
Flags: HMW
LayerCount: 2
Fore
SplineSet
170 520 m 1
 235 520 l 1
 150 0 l 1
 85 0 l 1
 170 520 l 1
455 460 m 1
 435 460 l 2
 311 460 212 380 194 270 c 1
 159 270 l 5
 183 419 286 520 465 520 c 1
 455 460 l 1
356 590 m 1
 306 590 l 5
 409 730 l 5
 499 730 l 1
 356 590 l 1
EndSplineSet
EndChar

StartChar: uni0156
Encoding: 342 342 250
Width: 718
VWidth: 0
Flags: HW
LayerCount: 2
Fore
SplineSet
454 333 m 1xde
 552 333 631 387 646 477 c 0
 661 567 601 630 503 630 c 1
 514 700 l 1
 643 700 736 602 716 477 c 0
 696 353 572 263 443 263 c 1
 454 333 l 1xde
400 320 m 5xbe
 485 320 l 1
 673 0 l 1
 588 0 l 5
 400 320 l 5xbe
214 700 m 1
 284 700 l 1
 170 0 l 1
 100 0 l 1
 214 700 l 1
219 700 m 1
 514 700 l 1
 503 630 l 1
 208 630 l 1
 219 700 l 1
159 333 m 1xde
 454 333 l 1
 443 263 l 1
 148 263 l 1
 159 333 l 1xde
336 -135 m 0
 341 -105 369 -80 401 -80 c 4
 431 -80 454 -100 448 -135 c 0
 446 -149 439 -161 430 -173 c 2
 327 -310 l 1
 292 -310 l 1
 366 -188 l 1
 345 -181 332 -160 336 -135 c 0
EndSplineSet
EndChar

StartChar: uni0157
Encoding: 343 343 251
Width: 410
VWidth: 0
Flags: HMW
LayerCount: 2
Fore
SplineSet
170 520 m 1
 235 520 l 1
 150 0 l 1
 85 0 l 1
 170 520 l 1
455 460 m 1
 435 460 l 2
 311 460 212 380 194 270 c 1
 159 270 l 5
 183 419 286 520 465 520 c 1
 455 460 l 1
77 -135 m 0
 82 -105 110 -80 142 -80 c 4
 172 -80 195 -100 189 -135 c 0
 187 -149 180 -161 171 -173 c 2
 68 -310 l 1
 33 -310 l 1
 107 -188 l 1
 86 -181 73 -160 77 -135 c 0
EndSplineSet
EndChar

StartChar: Rcaron
Encoding: 344 344 252
Width: 718
VWidth: 0
Flags: HW
LayerCount: 2
Fore
SplineSet
454 333 m 1xdc
 552 333 631 387 646 477 c 0
 661 567 601 630 503 630 c 1
 514 700 l 1
 643 700 736 602 716 477 c 0
 696 353 572 263 443 263 c 1
 454 333 l 1xdc
400 320 m 5xbc
 485 320 l 1
 673 0 l 1
 588 0 l 5
 400 320 l 5xbc
214 700 m 1
 284 700 l 1
 170 0 l 1
 100 0 l 1
 214 700 l 1
219 700 m 1
 514 700 l 1
 503 630 l 1
 208 630 l 1
 219 700 l 1
159 333 m 1xdc
 454 333 l 1
 443 263 l 1
 148 263 l 1
 159 333 l 1xdc
324 870 m 1
 408 770 l 1
 338 770 l 1
 254 870 l 1
 324 870 l 1
408 770 m 1
 338 770 l 1
 454 870 l 1
 524 870 l 1
 408 770 l 1
EndSplineSet
EndChar

StartChar: rcaron
Encoding: 345 345 253
Width: 410
VWidth: 0
Flags: HMW
LayerCount: 2
Fore
SplineSet
170 520 m 1
 235 520 l 1
 150 0 l 1
 85 0 l 1
 170 520 l 1
455 460 m 1
 435 460 l 2
 311 460 212 380 194 270 c 1
 159 270 l 5
 183 419 286 520 465 520 c 1
 455 460 l 1
277 690 m 1
 361 590 l 1
 291 590 l 1
 207 690 l 1
 277 690 l 1
361 590 m 1
 291 590 l 1
 407 690 l 1
 477 690 l 1
 361 590 l 1
EndSplineSet
EndChar

StartChar: Sacute
Encoding: 346 346 254
Width: 625
VWidth: 0
Flags: HW
LayerCount: 2
Fore
SplineSet
532 195 m 1
 597 195 l 1
 576 66 475 -10 326 -10 c 0
 197 -10 121 56 68 113 c 1
 121 166 l 1
 162 122 229 55 337 55 c 0
 430 55 516 95 532 195 c 1
241 532 m 1
 176 527 l 1
 194 638 312 710 431 710 c 0
 530 710 605 674 649 622 c 1
 599 574 l 1
 561 618 488 645 430 645 c 0
 327 645 252 599 241 532 c 1
393 397 m 4
 516 377 619 330 597 195 c 1
 532 195 l 1
 545 276 475 319 378 332 c 0
 250 349 157 412 176 527 c 1
 241 532 l 1
 227 447 290 414 393 397 c 4
460 770 m 1
 410 770 l 5
 513 910 l 5
 603 910 l 1
 460 770 l 1
EndSplineSet
EndChar

StartChar: sacute
Encoding: 347 347 255
Width: 520
VWidth: 0
Flags: HM
LayerCount: 2
Fore
SplineSet
434 150 m 1
 499 150 l 1
 486 71 412 -10 273 -10 c 0
 164 -10 106 37 62 104 c 1
 117 148 l 1
 155 98 195 50 283 50 c 0
 366 50 423 80 434 150 c 1
198 388 m 1
 133 388 l 1
 145 464 232 530 341 530 c 0
 450 530 497 496 531 448 c 1
 481 400 l 1
 454 432 420 470 332 470 c 0
 244 470 205 430 198 388 c 1
329 302 m 0
 443 283 517 260 499 150 c 1
 434 150 l 1
 444 210 400 227 294 242 c 0
 193 257 118 293 133 388 c 1
 198 388 l 1
 190 338 234 318 329 302 c 0
381 590 m 1
 331 590 l 5
 434 730 l 5
 524 730 l 1
 381 590 l 1
EndSplineSet
EndChar

StartChar: Scircumflex
Encoding: 348 348 256
Width: 625
VWidth: 0
Flags: HW
LayerCount: 2
Fore
SplineSet
532 195 m 1
 597 195 l 1
 576 66 475 -10 326 -10 c 0
 197 -10 121 56 68 113 c 1
 121 166 l 1
 162 122 229 55 337 55 c 0
 430 55 516 95 532 195 c 1
241 532 m 1
 176 527 l 1
 194 638 312 710 431 710 c 0
 530 710 605 674 649 622 c 1
 599 574 l 1
 561 618 488 645 430 645 c 0
 327 645 252 599 241 532 c 1
393 397 m 4
 516 377 619 330 597 195 c 1
 532 195 l 1
 545 276 475 319 378 332 c 0
 250 349 157 412 176 527 c 1
 241 532 l 1
 227 447 290 414 393 397 c 4
495 770 m 1
 412 870 l 1
 482 870 l 1
 565 770 l 1
 495 770 l 1
412 870 m 1
 482 870 l 1
 365 770 l 1
 295 770 l 1
 412 870 l 1
EndSplineSet
EndChar

StartChar: scircumflex
Encoding: 349 349 257
Width: 520
VWidth: 0
Flags: HM
LayerCount: 2
Fore
SplineSet
434 150 m 1
 499 150 l 1
 486 71 412 -10 273 -10 c 0
 164 -10 106 37 62 104 c 1
 117 148 l 1
 155 98 195 50 283 50 c 0
 366 50 423 80 434 150 c 1
198 388 m 1
 133 388 l 1
 145 464 232 530 341 530 c 0
 450 530 497 496 531 448 c 1
 481 400 l 1
 454 432 420 470 332 470 c 0
 244 470 205 430 198 388 c 1
329 302 m 0
 443 283 517 260 499 150 c 1
 434 150 l 1
 444 210 400 227 294 242 c 0
 193 257 118 293 133 388 c 1
 198 388 l 1
 190 338 234 318 329 302 c 0
416 590 m 1
 332 690 l 1
 402 690 l 1
 486 590 l 1
 416 590 l 1
332 690 m 1
 402 690 l 1
 286 590 l 1
 216 590 l 1
 332 690 l 1
EndSplineSet
EndChar

StartChar: Scedilla
Encoding: 350 350 258
Width: 625
VWidth: 0
Flags: HW
LayerCount: 2
Fore
SplineSet
532 195 m 1
 597 195 l 1
 576 66 475 -10 326 -10 c 0
 197 -10 121 56 68 113 c 1
 121 166 l 1
 162 122 229 55 337 55 c 0
 430 55 516 95 532 195 c 1
241 532 m 1
 176 527 l 1
 194 638 312 710 431 710 c 0
 530 710 605 674 649 622 c 1
 599 574 l 1
 561 618 488 645 430 645 c 0
 327 645 252 599 241 532 c 1
393 397 m 4
 516 377 619 330 597 195 c 1
 532 195 l 1
 545 276 475 319 378 332 c 0
 250 349 157 412 176 527 c 1
 241 532 l 1
 227 447 290 414 393 397 c 4
308 -3 m 5
 348 -3 l 5
 392 -37 450 -77 441 -135 c 4
 433 -182 406 -217 339 -217 c 4
 302 -217 266 -203 247 -188 c 5
 272 -158 l 5
 281 -161 299 -173 329 -173 c 4
 360 -173 386 -164 391 -132 c 4
 397 -97 349 -42 308 -3 c 5
EndSplineSet
EndChar

StartChar: scedilla
Encoding: 351 351 259
Width: 520
VWidth: 0
Flags: HM
LayerCount: 2
Fore
SplineSet
434 150 m 1
 499 150 l 1
 486 71 412 -10 273 -10 c 0
 164 -10 106 37 62 104 c 1
 117 148 l 1
 155 98 195 50 283 50 c 0
 366 50 423 80 434 150 c 1
198 388 m 1
 133 388 l 1
 145 464 232 530 341 530 c 0
 450 530 497 496 531 448 c 1
 481 400 l 1
 454 432 420 470 332 470 c 0
 244 470 205 430 198 388 c 1
329 302 m 0
 443 283 517 260 499 150 c 1
 434 150 l 1
 444 210 400 227 294 242 c 0
 193 257 118 293 133 388 c 1
 198 388 l 1
 190 338 234 318 329 302 c 0
255 -3 m 5
 295 -3 l 5
 339 -37 397 -77 388 -135 c 4
 380 -182 353 -217 286 -217 c 4
 249 -217 213 -203 194 -188 c 5
 219 -158 l 5
 228 -161 246 -173 276 -173 c 4
 307 -173 333 -164 338 -132 c 4
 344 -97 296 -42 255 -3 c 5
EndSplineSet
EndChar

StartChar: Scaron
Encoding: 352 352 260
Width: 625
VWidth: 0
Flags: HW
LayerCount: 2
Fore
SplineSet
532 195 m 1
 597 195 l 1
 576 66 475 -10 326 -10 c 0
 197 -10 121 56 68 113 c 1
 121 166 l 1
 162 122 229 55 337 55 c 0
 430 55 516 95 532 195 c 1
241 532 m 1
 176 527 l 1
 194 638 312 710 431 710 c 0
 530 710 605 674 649 622 c 1
 599 574 l 1
 561 618 488 645 430 645 c 0
 327 645 252 599 241 532 c 1
393 397 m 4
 516 377 619 330 597 195 c 1
 532 195 l 1
 545 276 475 319 378 332 c 0
 250 349 157 412 176 527 c 1
 241 532 l 1
 227 447 290 414 393 397 c 4
382 870 m 1
 465 770 l 1
 395 770 l 1
 312 870 l 1
 382 870 l 1
465 770 m 1
 395 770 l 1
 512 870 l 1
 582 870 l 1
 465 770 l 1
EndSplineSet
EndChar

StartChar: scaron
Encoding: 353 353 261
Width: 520
VWidth: 0
Flags: HM
LayerCount: 2
Fore
SplineSet
434 150 m 1
 499 150 l 1
 486 71 412 -10 273 -10 c 0
 164 -10 106 37 62 104 c 1
 117 148 l 1
 155 98 195 50 283 50 c 0
 366 50 423 80 434 150 c 1
198 388 m 1
 133 388 l 1
 145 464 232 530 341 530 c 0
 450 530 497 496 531 448 c 1
 481 400 l 1
 454 432 420 470 332 470 c 0
 244 470 205 430 198 388 c 1
329 302 m 0
 443 283 517 260 499 150 c 1
 434 150 l 1
 444 210 400 227 294 242 c 0
 193 257 118 293 133 388 c 1
 198 388 l 1
 190 338 234 318 329 302 c 0
302 690 m 1
 386 590 l 1
 316 590 l 1
 232 690 l 1
 302 690 l 1
386 590 m 1
 316 590 l 1
 432 690 l 1
 502 690 l 1
 386 590 l 1
EndSplineSet
EndChar

StartChar: uni0162
Encoding: 354 354 262
Width: 690
VWidth: 0
Flags: HW
LayerCount: 2
Fore
SplineSet
164 700 m 1
 754 700 l 1
 743 630 l 1
 153 630 l 1
 164 700 l 1
424 700 m 1
 494 700 l 1
 380 0 l 1
 310 0 l 1
 424 700 l 1
324 7 m 5
 364 7 l 5
 408 -27 466 -67 457 -125 c 4
 449 -172 422 -207 355 -207 c 4
 318 -207 283 -193 264 -178 c 5
 288 -148 l 5
 297 -151 315 -163 345 -163 c 4
 376 -163 402 -154 407 -122 c 4
 413 -87 365 -32 324 7 c 5
EndSplineSet
EndChar

StartChar: uni0163
Encoding: 355 355 263
Width: 420
VWidth: 0
Flags: HM
LayerCount: 2
Fore
SplineSet
125 520 m 1
 455 520 l 1
 445 460 l 1
 115 460 l 1
 125 520 l 1
208 140 m 1
 143 140 l 1
 230 673 l 1
 295 673 l 1
 208 140 l 1
272 50 m 1
 321 50 357 74 377 93 c 1
 399 42 l 1
 367 13 318 -10 256 -10 c 1
 272 50 l 1
208 140 m 1
 200 90 214 50 272 50 c 1
 256 -10 l 5
 157 -10 130 61 143 140 c 1
 208 140 l 1
236 -3 m 5
 276 -3 l 5
 320 -37 378 -77 369 -135 c 4
 361 -182 334 -217 267 -217 c 4
 230 -217 194 -203 175 -188 c 5
 200 -158 l 5
 209 -161 227 -173 257 -173 c 4
 288 -173 314 -164 319 -132 c 4
 325 -97 277 -42 236 -3 c 5
EndSplineSet
EndChar

StartChar: Tcaron
Encoding: 356 356 264
Width: 690
VWidth: 0
Flags: HW
LayerCount: 2
Fore
SplineSet
164 700 m 1
 754 700 l 1
 743 630 l 1
 153 630 l 1
 164 700 l 1
424 700 m 1
 494 700 l 1
 380 0 l 1
 310 0 l 1
 424 700 l 1
419 870 m 1
 503 770 l 1
 433 770 l 1
 349 870 l 1
 419 870 l 1
503 770 m 1
 433 770 l 1
 549 870 l 1
 619 870 l 1
 503 770 l 1
EndSplineSet
EndChar

StartChar: tcaron
Encoding: 357 357 265
Width: 420
VWidth: 0
Flags: HMW
LayerCount: 2
Fore
SplineSet
125 520 m 1
 455 520 l 1
 445 460 l 1
 115 460 l 1
 125 520 l 1
208 140 m 1
 143 140 l 1
 230 673 l 1
 295 673 l 1
 208 140 l 1
272 50 m 1
 321 50 357 74 377 93 c 1
 399 42 l 1
 367 13 318 -10 256 -10 c 1
 272 50 l 1
208 140 m 1
 200 90 214 50 272 50 c 1
 256 -10 l 5
 157 -10 130 61 143 140 c 1
 208 140 l 1
402 728 m 0
 407 758 435 783 467 783 c 4
 497 783 520 763 514 728 c 0
 512 714 504 702 495 690 c 2
 392 553 l 1
 357 553 l 1
 432 675 l 1
 411 682 398 703 402 728 c 0
EndSplineSet
EndChar

StartChar: Utilde
Encoding: 360 360 266
Width: 760
VWidth: 0
Flags: HW
LayerCount: 2
Fore
SplineSet
651 280 m 1
 719 700 l 1
 784 700 l 1
 716 280 l 1
 651 280 l 1
136 280 m 1
 204 700 l 1
 269 700 l 1
 201 280 l 1
 136 280 l 1
651 280 m 1
 716 280 l 1
 688 111 537 -10 378 -10 c 0
 219 -10 108 111 136 280 c 1
 201 280 l 1
 180 151 262 55 389 55 c 0
 516 55 630 151 651 280 c 1
375 770 m 1
 319 790 l 1
 336 868 390 907 441 907 c 0
 505 907 558 833 602 833 c 4
 647 833 662 873 668 910 c 1
 715 890 l 1
 696 802 645 773 595 773 c 0
 533 773 483 847 440 847 c 0
 396 847 381 807 375 770 c 1
EndSplineSet
EndChar

StartChar: utilde
Encoding: 361 361 267
Width: 635
VWidth: 0
Flags: HMW
LayerCount: 2
Fore
SplineSet
550 0 m 1
 485 0 l 1
 570 520 l 1
 635 520 l 1
 550 0 l 1
181 220 m 1
 166 130 198 50 313 50 c 0
 421 50 506 130 524 240 c 1
 559 240 l 1
 540 121 447 -10 288 -10 c 0
 159 -10 95 91 116 220 c 1
 181 220 l 1
116 220 m 1
 165 520 l 1
 230 520 l 1
 181 220 l 1
 116 220 l 1
279 590 m 1
 222 610 l 1
 239 688 293 727 344 727 c 0
 408 727 461 653 505 653 c 4
 550 653 565 693 571 730 c 1
 618 710 l 1
 599 622 548 593 498 593 c 0
 436 593 386 667 343 667 c 0
 299 667 285 627 279 590 c 1
EndSplineSet
EndChar

StartChar: Umacron
Encoding: 362 362 268
Width: 760
VWidth: 0
Flags: HW
LayerCount: 2
Fore
SplineSet
651 280 m 1
 719 700 l 1
 784 700 l 1
 716 280 l 1
 651 280 l 1
136 280 m 1
 204 700 l 1
 269 700 l 1
 201 280 l 1
 136 280 l 1
651 280 m 1
 716 280 l 1
 688 111 537 -10 378 -10 c 0
 219 -10 108 111 136 280 c 1
 201 280 l 1
 180 151 262 55 389 55 c 0
 516 55 630 151 651 280 c 1
365 840 m 5
 669 840 l 5
 659 780 l 1
 355 780 l 1
 365 840 l 5
EndSplineSet
EndChar

StartChar: umacron
Encoding: 363 363 269
Width: 635
VWidth: 0
Flags: HMW
LayerCount: 2
Fore
SplineSet
550 0 m 1
 485 0 l 1
 570 520 l 1
 635 520 l 1
 550 0 l 1
181 220 m 1
 166 130 198 50 313 50 c 0
 421 50 506 130 524 240 c 1
 559 240 l 1
 540 121 447 -10 288 -10 c 0
 159 -10 95 91 116 220 c 1
 181 220 l 1
116 220 m 1
 165 520 l 1
 230 520 l 1
 181 220 l 1
 116 220 l 1
268 660 m 5
 572 660 l 5
 562 600 l 1
 258 600 l 1
 268 660 l 5
EndSplineSet
EndChar

StartChar: Ubreve
Encoding: 364 364 270
Width: 760
VWidth: 0
Flags: HW
LayerCount: 2
Fore
SplineSet
651 280 m 1
 719 700 l 1
 784 700 l 1
 716 280 l 1
 651 280 l 1
136 280 m 1
 204 700 l 1
 269 700 l 1
 201 280 l 1
 136 280 l 1
651 280 m 1
 716 280 l 1
 688 111 537 -10 378 -10 c 0
 219 -10 108 111 136 280 c 1
 201 280 l 1
 180 151 262 55 389 55 c 0
 516 55 630 151 651 280 c 1
517 840 m 1
 457 840 417 874 425 922 c 1
 359 916 l 1
 345 827 406 770 505 770 c 1
 517 840 l 1
517 840 m 1
 505 770 l 1
 604 770 685 827 699 916 c 1
 635 922 l 5
 627 874 577 840 517 840 c 1
EndSplineSet
EndChar

StartChar: ubreve
Encoding: 365 365 271
Width: 635
VWidth: 0
Flags: HMW
LayerCount: 2
Fore
SplineSet
550 0 m 1
 485 0 l 1
 570 520 l 1
 635 520 l 1
 550 0 l 1
181 220 m 1
 166 130 198 50 313 50 c 0
 421 50 506 130 524 240 c 1
 559 240 l 1
 540 121 447 -10 288 -10 c 0
 159 -10 95 91 116 220 c 1
 181 220 l 1
116 220 m 1
 165 520 l 1
 230 520 l 1
 181 220 l 1
 116 220 l 1
420 660 m 1
 360 660 320 694 328 742 c 1
 262 736 l 1
 248 647 310 590 409 590 c 1
 420 660 l 1
420 660 m 1
 409 590 l 1
 508 590 588 647 602 736 c 1
 538 742 l 5
 530 694 480 660 420 660 c 1
EndSplineSet
EndChar

StartChar: Uring
Encoding: 366 366 272
Width: 760
VWidth: 0
Flags: HW
LayerCount: 2
Fore
SplineSet
651 280 m 1
 719 700 l 1
 784 700 l 1
 716 280 l 1
 651 280 l 1
136 280 m 1
 204 700 l 1
 269 700 l 1
 201 280 l 1
 136 280 l 1
651 280 m 1
 716 280 l 1
 688 111 537 -10 378 -10 c 0
 219 -10 108 111 136 280 c 1
 201 280 l 1
 180 151 262 55 389 55 c 0
 516 55 630 151 651 280 c 1
472 870 m 0
 467 841 485 820 514 820 c 0
 543 820 567 841 572 870 c 0
 577 899 559 920 530 920 c 4
 501 920 477 899 472 870 c 0
422 870 m 0
 431 925 483 970 538 970 c 0
 593 970 631 925 622 870 c 0
 613 815 560 770 505 770 c 0
 450 770 413 815 422 870 c 0
EndSplineSet
EndChar

StartChar: uring
Encoding: 367 367 273
Width: 635
VWidth: 0
Flags: HMW
LayerCount: 2
Fore
SplineSet
550 0 m 1
 485 0 l 1
 570 520 l 1
 635 520 l 1
 550 0 l 1
181 220 m 1
 166 130 198 50 313 50 c 0
 421 50 506 130 524 240 c 1
 559 240 l 1
 540 121 447 -10 288 -10 c 0
 159 -10 95 91 116 220 c 1
 181 220 l 1
116 220 m 1
 165 520 l 1
 230 520 l 1
 181 220 l 1
 116 220 l 1
375 690 m 0
 370 661 388 640 417 640 c 0
 446 640 470 661 475 690 c 0
 480 719 462 740 433 740 c 4
 404 740 380 719 375 690 c 0
325 690 m 0
 334 745 386 790 441 790 c 0
 496 790 534 745 525 690 c 0
 516 635 464 590 409 590 c 0
 354 590 316 635 325 690 c 0
EndSplineSet
EndChar

StartChar: Wcircumflex
Encoding: 372 372 274
Width: 1065
VWidth: 0
Flags: HW
LayerCount: 2
Fore
SplineSet
614 700 m 1
 679 700 l 1
 673 690 l 1
 616 690 l 1
 614 700 l 1
780 0 m 1
 720 0 l 1
 722 10 l 1
 782 10 l 1
 780 0 l 1
679 700 m 1
 782 10 l 1
 720 0 l 1
 616 690 l 1
 679 700 l 1
780 0 m 1
 722 10 l 1
 1064 700 l 1
 1134 700 l 1
 780 0 l 1
345 0 m 1
 285 0 l 1
 287 10 l 1
 347 10 l 1
 345 0 l 1
229 700 m 5
 347 10 l 1
 285 0 l 1
 159 700 l 1
 229 700 l 5
345 0 m 1
 287 10 l 1
 614 700 l 1
 673 690 l 1
 345 0 l 1
720 770 m 1
 637 870 l 1
 707 870 l 1
 790 770 l 1
 720 770 l 1
637 870 m 1
 707 870 l 1
 590 770 l 1
 520 770 l 1
 637 870 l 1
EndSplineSet
EndChar

StartChar: wcircumflex
Encoding: 373 373 275
Width: 795
VWidth: 0
Flags: HM
LayerCount: 2
Fore
SplineSet
465 520 m 1
 500 520 l 1
 492 470 l 1
 457 470 l 1
 465 520 l 1
605 0 m 1
 555 0 l 1
 561 35 l 1
 609 25 l 1
 605 0 l 1
561 35 m 1
 770 520 l 1
 840 520 l 1
 605 0 l 1
 561 35 l 1
452 470 m 1
 500 520 l 1
 609 25 l 1
 555 0 l 1
 452 470 l 1
240 0 m 1
 190 0 l 1
 194 25 l 1
 246 35 l 1
 240 0 l 1
194 25 m 1
 465 520 l 1
 497 470 l 1
 240 0 l 1
 194 25 l 1
125 520 m 1
 195 520 l 1
 246 35 l 1
 190 0 l 1
 125 520 l 1
559 590 m 1
 475 690 l 1
 545 690 l 1
 629 590 l 1
 559 590 l 1
475 690 m 1
 545 690 l 1
 429 590 l 1
 359 590 l 1
 475 690 l 1
EndSplineSet
EndChar

StartChar: Ycircumflex
Encoding: 374 374 276
Width: 680
VWidth: 0
Flags: HW
LayerCount: 2
Fore
SplineSet
353 295 m 1
 423 295 l 1
 375 0 l 1
 305 0 l 1
 353 295 l 1
144 700 m 1
 224 700 l 1
 413 295 l 1
 370 217 l 1
 144 700 l 1
684 700 m 5
 764 700 l 1
 380 217 l 1
 363 295 l 5
 684 700 l 5
528 770 m 1
 444 870 l 1
 514 870 l 1
 598 770 l 1
 528 770 l 1
444 870 m 1
 514 870 l 1
 398 770 l 1
 328 770 l 1
 444 870 l 1
EndSplineSet
EndChar

StartChar: ycircumflex
Encoding: 375 375 277
Width: 579
VWidth: 0
Flags: HMW
LayerCount: 2
Fore
SplineSet
124 520 m 1
 194 520 l 1
 348 -8 l 1
 282 -13 l 1
 124 520 l 1
145 -150 m 5
 135 -210 l 1
 78 -210 32 -184 11 -150 c 1
 49 -99 l 1
 63 -118 94 -150 145 -150 c 5
254 -60 m 2
 564 520 l 1
 629 520 l 1
 319 -60 l 2
 277 -140 224 -210 135 -210 c 1
 145 -150 l 5
 203 -150 233 -100 254 -60 c 2
450 590 m 1
 366 690 l 1
 436 690 l 1
 520 590 l 1
 450 590 l 1
366 690 m 1
 436 690 l 1
 320 590 l 1
 250 590 l 1
 366 690 l 1
EndSplineSet
EndChar

StartChar: Ydieresis
Encoding: 376 376 278
Width: 680
VWidth: 0
Flags: HW
LayerCount: 2
Fore
SplineSet
353 295 m 1
 423 295 l 1
 375 0 l 1
 305 0 l 1
 353 295 l 1
144 700 m 1
 224 700 l 1
 413 295 l 1
 370 217 l 1
 144 700 l 1
684 700 m 5
 764 700 l 1
 380 217 l 1
 363 295 l 5
 684 700 l 5
308 825 m 0
 313 855 341 880 371 880 c 0
 401 880 421 855 416 825 c 0
 411 795 383 770 353 770 c 0
 323 770 303 795 308 825 c 0
528 825 m 0
 533 855 561 880 591 880 c 0
 621 880 641 855 636 825 c 0
 631 795 603 770 573 770 c 0
 543 770 523 795 528 825 c 0
EndSplineSet
EndChar

StartChar: Zacute
Encoding: 377 377 279
Width: 680
VWidth: 0
Flags: HW
LayerCount: 2
Fore
SplineSet
699 640 m 1x18
 689 640 l 1x18
 699 700 l 1
 709 700 l 1x28
 699 640 l 1x18
75 60 m 1x48
 85 60 l 1x48
 75 0 l 1
 65 0 l 1x88
 75 60 l 1x48
199 700 m 1x28
 699 700 l 1
 688 630 l 1
 188 630 l 1
 199 700 l 1x28
86 70 m 1x48
 626 70 l 1
 615 0 l 1
 75 0 l 1x88
 86 70 l 1x48
614 640 m 5x58
 699 640 l 1
 160 60 l 1
 75 60 l 1
 614 640 l 5x58
495 770 m 1
 445 770 l 5
 548 910 l 5
 638 910 l 1
 495 770 l 1
EndSplineSet
EndChar

StartChar: zacute
Encoding: 378 378 280
Width: 570
VWidth: 0
Flags: HM
LayerCount: 2
Fore
SplineSet
63 50 m 1
 83 50 l 1
 75 0 l 1
 55 0 l 1
 63 50 l 1
85 60 m 1
 525 60 l 1
 515 0 l 1
 75 0 l 1
 85 60 l 1
570 520 m 1
 590 520 l 1
 582 470 l 1
 562 470 l 1
 570 520 l 1
160 520 m 1
 570 520 l 1
 560 460 l 1
 150 460 l 1
 160 520 l 1
502 470 m 1
 582 470 l 1
 143 50 l 5
 63 50 l 1
 502 470 l 1
416 590 m 1
 366 590 l 5
 469 730 l 5
 559 730 l 1
 416 590 l 1
EndSplineSet
EndChar

StartChar: Zdotaccent
Encoding: 379 379 281
Width: 680
VWidth: 0
Flags: HW
LayerCount: 2
Fore
SplineSet
699 640 m 1x1e
 689 640 l 1x1e
 699 700 l 1
 709 700 l 1x2e
 699 640 l 1x1e
75 60 m 1x4e
 85 60 l 1x4e
 75 0 l 1
 65 0 l 1x8e
 75 60 l 1x4e
199 700 m 1x2e
 699 700 l 1
 688 630 l 1
 188 630 l 1
 199 700 l 1x2e
86 70 m 1x4e
 626 70 l 1
 615 0 l 1
 75 0 l 1x8e
 86 70 l 1x4e
614 640 m 5x5e
 699 640 l 1
 160 60 l 1
 75 60 l 1
 614 640 l 5x5e
420 825 m 0
 425 855 453 880 483 880 c 0
 513 880 533 855 528 825 c 0
 523 795 495 770 465 770 c 0
 435 770 415 795 420 825 c 0
EndSplineSet
EndChar

StartChar: zdotaccent
Encoding: 380 380 282
Width: 570
VWidth: 0
Flags: HM
LayerCount: 2
Fore
SplineSet
63 50 m 1
 83 50 l 1
 75 0 l 1
 55 0 l 1
 63 50 l 1
85 60 m 1
 525 60 l 1
 515 0 l 1
 75 0 l 1
 85 60 l 1
570 520 m 1
 590 520 l 1
 582 470 l 1
 562 470 l 1
 570 520 l 1
160 520 m 1
 570 520 l 1
 560 460 l 1
 150 460 l 1
 160 520 l 1
502 470 m 1
 582 470 l 1
 143 50 l 5
 63 50 l 1
 502 470 l 1
341 645 m 0
 346 675 374 700 404 700 c 0
 434 700 454 675 449 645 c 0
 444 615 416 590 386 590 c 0
 356 590 336 615 341 645 c 0
EndSplineSet
EndChar

StartChar: Zcaron
Encoding: 381 381 283
Width: 680
VWidth: 0
Flags: HW
LayerCount: 2
Fore
SplineSet
699 640 m 1x18
 689 640 l 1x18
 699 700 l 1
 709 700 l 1x28
 699 640 l 1x18
75 60 m 1x48
 85 60 l 1x48
 75 0 l 1
 65 0 l 1x88
 75 60 l 1x48
199 700 m 1x28
 699 700 l 1
 688 630 l 1
 188 630 l 1
 199 700 l 1x28
86 70 m 1x48
 626 70 l 1
 615 0 l 1
 75 0 l 1x88
 86 70 l 1x48
614 640 m 5x58
 699 640 l 1
 160 60 l 1
 75 60 l 1
 614 640 l 5x58
417 870 m 1
 500 770 l 1
 430 770 l 1
 347 870 l 1
 417 870 l 1
500 770 m 1
 430 770 l 1
 547 870 l 1
 617 870 l 1
 500 770 l 1
EndSplineSet
EndChar

StartChar: zcaron
Encoding: 382 382 284
Width: 570
VWidth: 0
Flags: HM
LayerCount: 2
Fore
SplineSet
63 50 m 1
 83 50 l 1
 75 0 l 1
 55 0 l 1
 63 50 l 1
85 60 m 1
 525 60 l 1
 515 0 l 1
 75 0 l 1
 85 60 l 1
570 520 m 1
 590 520 l 1
 582 470 l 1
 562 470 l 1
 570 520 l 1
160 520 m 1
 570 520 l 1
 560 460 l 1
 150 460 l 1
 160 520 l 1
502 470 m 1
 582 470 l 1
 143 50 l 5
 63 50 l 1
 502 470 l 1
337 690 m 1
 421 590 l 1
 351 590 l 1
 267 690 l 1
 337 690 l 1
421 590 m 1
 351 590 l 1
 467 690 l 1
 537 690 l 1
 421 590 l 1
EndSplineSet
EndChar

StartChar: Ohorn
Encoding: 416 416 285
Width: 850
VWidth: 0
Flags: HW
LayerCount: 2
Fore
SplineSet
197 350 m 4xf0
 171 190 275 60 435 60 c 4
 595 60 741 190 767 350 c 4
 793 510 689 640 529 640 c 4
 369 640 223 510 197 350 c 4xf0
127 350 m 4
 159 549 346 710 541 710 c 4
 736 710 869 549 837 350 c 4
 805 151 618 -10 423 -10 c 4
 228 -10 95 151 127 350 c 4
839 635 m 0xe8
 844 665 872 690 904 690 c 4
 934 690 957 670 951 635 c 0
 949 621 942 609 933 597 c 2
 830 460 l 1
 795 460 l 1
 870 582 l 1
 849 589 835 610 839 635 c 0xe8
EndSplineSet
EndChar

StartChar: ohorn
Encoding: 417 417 286
Width: 650
VWidth: 0
Flags: HMW
LayerCount: 2
Fore
SplineSet
162 260 m 0
 143 144 220 50 333 50 c 0
 446 50 553 144 572 260 c 0
 591 376 515 470 402 470 c 0
 289 470 181 376 162 260 c 0
97 260 m 0
 121 409 262 530 411 530 c 0
 560 530 661 409 637 260 c 0
 613 111 472 -10 323 -10 c 0
 174 -10 73 111 97 260 c 0
657 507 m 0
 662 537 690 562 722 562 c 4
 752 562 775 542 769 507 c 0
 767 493 759 481 750 469 c 2
 647 332 l 1
 612 332 l 1
 687 454 l 1
 666 461 653 482 657 507 c 0
EndSplineSet
EndChar

StartChar: Uhorn
Encoding: 431 431 287
Width: 760
VWidth: 0
Flags: HW
LayerCount: 2
Fore
SplineSet
651 280 m 1
 719 700 l 1
 784 700 l 1
 716 280 l 1
 651 280 l 1
136 280 m 1
 204 700 l 1
 269 700 l 1
 201 280 l 1
 136 280 l 1
651 280 m 1
 716 280 l 1
 688 111 537 -10 378 -10 c 0
 219 -10 108 111 136 280 c 1
 201 280 l 1
 180 151 262 55 389 55 c 0
 516 55 630 151 651 280 c 1
854 635 m 0
 859 665 887 690 919 690 c 4
 949 690 972 670 966 635 c 0
 964 621 957 609 948 597 c 2
 845 460 l 1
 810 460 l 1
 885 582 l 1
 864 589 850 610 854 635 c 0
EndSplineSet
EndChar

StartChar: uhorn
Encoding: 432 432 288
Width: 635
VWidth: 0
Flags: HMW
LayerCount: 2
Fore
SplineSet
550 0 m 1
 485 0 l 1
 570 520 l 1
 635 520 l 1
 550 0 l 1
181 220 m 1
 166 130 198 50 313 50 c 0
 421 50 506 130 524 240 c 1
 559 240 l 1
 540 121 447 -10 288 -10 c 0
 159 -10 95 91 116 220 c 1
 181 220 l 1
116 220 m 1
 165 520 l 1
 230 520 l 1
 181 220 l 1
 116 220 l 1
700 455 m 0
 705 485 733 510 765 510 c 4
 795 510 818 490 812 455 c 0
 810 441 803 429 794 417 c 2
 691 280 l 1
 656 280 l 1
 730 402 l 1
 709 409 696 430 700 455 c 0
EndSplineSet
EndChar

StartChar: uni01CD
Encoding: 461 461 289
Width: 800
VWidth: 0
Flags: HW
LayerCount: 2
Fore
SplineSet
484 700 m 1
 544 700 l 1
 532 690 l 1
 482 690 l 1
 484 700 l 1
236 260 m 1
 648 260 l 1
 637 190 l 1
 225 190 l 1
 236 260 l 1
676 0 m 1
 478 690 l 1
 544 700 l 1
 755 0 l 1
 676 0 l 1
484 700 m 1
 546 690 l 1
 124 0 l 1
 45 0 l 1
 484 700 l 1
474 870 m 1
 558 770 l 1
 488 770 l 1
 404 870 l 1
 474 870 l 1
558 770 m 1
 488 770 l 1
 604 870 l 1
 674 870 l 1
 558 770 l 1
EndSplineSet
EndChar

StartChar: uni01CE
Encoding: 462 462 290
Width: 580
VWidth: 0
Flags: HMW
LayerCount: 2
Fore
SplineSet
371 312 m 1
 521 312 l 1
 513 263 l 1
 393 263 l 1
 371 312 l 1
494 330 m 1
 509 420 481 475 365 475 c 1
 380 530 l 1
 523 530 578 449 559 330 c 1
 494 330 l 1
365 475 m 1
 283 475 236 443 180 403 c 1
 153 450 l 1
 218 499 278 530 380 530 c 1
 365 475 l 1
494 330 m 1
 559 330 l 1
 505 0 l 1
 440 0 l 1
 494 330 l 1
134 160 m 1
 121 82 170 50 278 50 c 4
 366 50 456 100 469 180 c 1
 504 180 l 1
 486 71 387 -10 238 -10 c 0
 139 -10 50 41 69 160 c 1
 134 160 l 1
371 312 m 1
 393 263 l 1
 244 263 148 245 134 160 c 1
 69 160 l 1
 91 295 234 312 371 312 c 1
341 690 m 1
 425 590 l 1
 355 590 l 1
 271 690 l 1
 341 690 l 1
425 590 m 1
 355 590 l 1
 471 690 l 1
 541 690 l 1
 425 590 l 1
EndSplineSet
EndChar

StartChar: uni01CF
Encoding: 463 463 291
Width: 300
VWidth: 0
Flags: HW
LayerCount: 2
Fore
SplineSet
229 700 m 1
 299 700 l 5
 185 0 l 5
 115 0 l 1
 229 700 l 1
224 870 m 1
 308 770 l 1
 238 770 l 1
 154 870 l 1
 224 870 l 1
308 770 m 1
 238 770 l 1
 354 870 l 1
 424 870 l 1
 308 770 l 1
EndSplineSet
EndChar

StartChar: uni01D0
Encoding: 464 464 292
Width: 250
VWidth: 0
Flags: HMW
LayerCount: 2
Fore
SplineSet
170 520 m 1
 250 520 l 1
 165 0 l 1
 85 0 l 1
 170 520 l 1
172 690 m 1
 256 590 l 1
 186 590 l 1
 102 690 l 1
 172 690 l 1
256 590 m 1
 186 590 l 1
 302 690 l 1
 372 690 l 1
 256 590 l 1
EndSplineSet
EndChar

StartChar: uni01D1
Encoding: 465 465 293
Width: 850
VWidth: 0
Flags: HW
LayerCount: 2
Fore
SplineSet
197 350 m 4
 171 190 275 60 435 60 c 4
 595 60 741 190 767 350 c 4
 793 510 689 640 529 640 c 4
 369 640 223 510 197 350 c 4
127 350 m 4
 159 549 346 710 541 710 c 4
 736 710 869 549 837 350 c 4
 805 151 618 -10 423 -10 c 4
 228 -10 95 151 127 350 c 4
502 870 m 1
 585 770 l 1
 515 770 l 1
 432 870 l 1
 502 870 l 1
585 770 m 1
 515 770 l 1
 632 870 l 1
 702 870 l 1
 585 770 l 1
EndSplineSet
EndChar

StartChar: uni01D2
Encoding: 466 466 294
Width: 650
VWidth: 0
Flags: HM
LayerCount: 2
Fore
SplineSet
162 260 m 0
 143 144 220 50 333 50 c 0
 446 50 553 144 572 260 c 0
 591 376 515 470 402 470 c 0
 289 470 181 376 162 260 c 0
97 260 m 0
 121 409 262 530 411 530 c 0
 560 530 661 409 637 260 c 0
 613 111 472 -10 323 -10 c 0
 174 -10 73 111 97 260 c 0
372 690 m 1
 456 590 l 1
 386 590 l 1
 302 690 l 1
 372 690 l 1
456 590 m 1
 386 590 l 1
 502 690 l 1
 572 690 l 1
 456 590 l 1
EndSplineSet
EndChar

StartChar: uni01D3
Encoding: 467 467 295
Width: 760
VWidth: 0
Flags: HW
LayerCount: 2
Fore
SplineSet
651 280 m 1
 719 700 l 1
 784 700 l 1
 716 280 l 1
 651 280 l 1
136 280 m 1
 204 700 l 1
 269 700 l 1
 201 280 l 1
 136 280 l 1
651 280 m 1
 716 280 l 1
 688 111 537 -10 378 -10 c 0
 219 -10 108 111 136 280 c 1
 201 280 l 1
 180 151 262 55 389 55 c 0
 516 55 630 151 651 280 c 1
457 870 m 1
 540 770 l 1
 470 770 l 1
 387 870 l 1
 457 870 l 1
540 770 m 1
 470 770 l 1
 587 870 l 1
 657 870 l 1
 540 770 l 1
EndSplineSet
EndChar

StartChar: uni01D4
Encoding: 468 468 296
Width: 635
VWidth: 0
Flags: HMW
LayerCount: 2
Fore
SplineSet
550 0 m 1
 485 0 l 1
 570 520 l 1
 635 520 l 1
 550 0 l 1
181 220 m 1
 166 130 198 50 313 50 c 0
 421 50 506 130 524 240 c 1
 559 240 l 1
 540 121 447 -10 288 -10 c 0
 159 -10 95 91 116 220 c 1
 181 220 l 1
116 220 m 1
 165 520 l 1
 230 520 l 1
 181 220 l 1
 116 220 l 1
360 690 m 1
 444 590 l 1
 374 590 l 1
 290 690 l 1
 360 690 l 1
444 590 m 1
 374 590 l 1
 490 690 l 1
 560 690 l 1
 444 590 l 1
EndSplineSet
EndChar

StartChar: uni01D5
Encoding: 469 469 297
Width: 760
VWidth: 0
Flags: HW
LayerCount: 2
Fore
SplineSet
651 280 m 1
 719 700 l 1
 784 700 l 1
 716 280 l 1
 651 280 l 1
136 280 m 1
 204 700 l 1
 269 700 l 1
 201 280 l 1
 136 280 l 1
651 280 m 1
 716 280 l 1
 688 111 537 -10 378 -10 c 0
 219 -10 108 111 136 280 c 1
 201 280 l 1
 180 151 262 55 389 55 c 0
 516 55 630 151 651 280 c 1
350 825 m 0
 355 855 383 880 413 880 c 0
 443 880 463 855 458 825 c 0
 453 795 425 770 395 770 c 0
 365 770 345 795 350 825 c 0
570 825 m 0
 575 855 603 880 633 880 c 0
 663 880 683 855 678 825 c 0
 673 795 645 770 615 770 c 0
 585 770 565 795 570 825 c 0
396 1030 m 5
 700 1030 l 5
 690 970 l 1
 386 970 l 1
 396 1030 l 5
EndSplineSet
EndChar

StartChar: uni01D6
Encoding: 470 470 298
Width: 635
VWidth: 0
Flags: HMW
LayerCount: 2
Fore
SplineSet
550 0 m 1
 485 0 l 1
 570 520 l 1
 635 520 l 1
 550 0 l 1
181 220 m 1
 166 130 198 50 313 50 c 0
 421 50 506 130 524 240 c 1
 559 240 l 1
 540 121 447 -10 288 -10 c 0
 159 -10 95 91 116 220 c 1
 181 220 l 1
116 220 m 1
 165 520 l 1
 230 520 l 1
 181 220 l 1
 116 220 l 1
254 645 m 0
 259 675 287 700 317 700 c 0
 347 700 367 675 362 645 c 0
 357 615 329 590 299 590 c 0
 269 590 249 615 254 645 c 0
474 645 m 0
 479 675 507 700 537 700 c 0
 567 700 587 675 582 645 c 0
 577 615 549 590 519 590 c 0
 489 590 469 615 474 645 c 0
299 850 m 5
 603 850 l 5
 593 790 l 1
 289 790 l 1
 299 850 l 5
EndSplineSet
EndChar

StartChar: uni01D7
Encoding: 471 471 299
Width: 760
VWidth: 0
Flags: HW
LayerCount: 2
Fore
SplineSet
651 280 m 1
 719 700 l 1
 784 700 l 1
 716 280 l 1
 651 280 l 1
136 280 m 1
 204 700 l 1
 269 700 l 1
 201 280 l 1
 136 280 l 1
651 280 m 1
 716 280 l 1
 688 111 537 -10 378 -10 c 0
 219 -10 108 111 136 280 c 1
 201 280 l 1
 180 151 262 55 389 55 c 0
 516 55 630 151 651 280 c 1
350 825 m 0
 355 855 383 880 413 880 c 0
 443 880 463 855 458 825 c 0
 453 795 425 770 395 770 c 0
 365 770 345 795 350 825 c 0
570 825 m 0
 575 855 603 880 633 880 c 0
 663 880 683 855 678 825 c 0
 673 795 645 770 615 770 c 0
 585 770 565 795 570 825 c 0
566 960 m 1
 516 960 l 5
 619 1100 l 5
 709 1100 l 1
 566 960 l 1
EndSplineSet
EndChar

StartChar: uni01D8
Encoding: 472 472 300
Width: 635
VWidth: 0
Flags: HMW
LayerCount: 2
Fore
SplineSet
550 0 m 1
 485 0 l 1
 570 520 l 1
 635 520 l 1
 550 0 l 1
181 220 m 1
 166 130 198 50 313 50 c 0
 421 50 506 130 524 240 c 1
 559 240 l 1
 540 121 447 -10 288 -10 c 0
 159 -10 95 91 116 220 c 1
 181 220 l 1
116 220 m 1
 165 520 l 1
 230 520 l 1
 181 220 l 1
 116 220 l 1
254 645 m 0
 259 675 287 700 317 700 c 0
 347 700 367 675 362 645 c 0
 357 615 329 590 299 590 c 0
 269 590 249 615 254 645 c 0
474 645 m 0
 479 675 507 700 537 700 c 0
 567 700 587 675 582 645 c 0
 577 615 549 590 519 590 c 0
 489 590 469 615 474 645 c 0
470 780 m 1
 420 780 l 5
 522 920 l 5
 612 920 l 1
 470 780 l 1
EndSplineSet
EndChar

StartChar: uni01D9
Encoding: 473 473 301
Width: 760
VWidth: 0
Flags: HW
LayerCount: 2
Fore
SplineSet
651 280 m 1
 719 700 l 1
 784 700 l 1
 716 280 l 1
 651 280 l 1
136 280 m 1
 204 700 l 1
 269 700 l 1
 201 280 l 1
 136 280 l 1
651 280 m 1
 716 280 l 1
 688 111 537 -10 378 -10 c 0
 219 -10 108 111 136 280 c 1
 201 280 l 1
 180 151 262 55 389 55 c 0
 516 55 630 151 651 280 c 1
350 825 m 0
 355 855 383 880 413 880 c 0
 443 880 463 855 458 825 c 0
 453 795 425 770 395 770 c 0
 365 770 345 795 350 825 c 0
570 825 m 0
 575 855 603 880 633 880 c 0
 663 880 683 855 678 825 c 0
 673 795 645 770 615 770 c 0
 585 770 565 795 570 825 c 0
488 1060 m 1
 571 960 l 1
 501 960 l 1
 418 1060 l 1
 488 1060 l 1
571 960 m 1
 501 960 l 1
 618 1060 l 1
 688 1060 l 1
 571 960 l 1
EndSplineSet
EndChar

StartChar: uni01DA
Encoding: 474 474 302
Width: 635
VWidth: 0
Flags: HMW
LayerCount: 2
Fore
SplineSet
550 0 m 1
 485 0 l 1
 570 520 l 1
 635 520 l 1
 550 0 l 1
181 220 m 1
 166 130 198 50 313 50 c 0
 421 50 506 130 524 240 c 1
 559 240 l 1
 540 121 447 -10 288 -10 c 0
 159 -10 95 91 116 220 c 1
 181 220 l 1
116 220 m 1
 165 520 l 1
 230 520 l 1
 181 220 l 1
 116 220 l 1
254 645 m 0
 259 675 287 700 317 700 c 0
 347 700 367 675 362 645 c 0
 357 615 329 590 299 590 c 0
 269 590 249 615 254 645 c 0
474 645 m 0
 479 675 507 700 537 700 c 0
 567 700 587 675 582 645 c 0
 577 615 549 590 519 590 c 0
 489 590 469 615 474 645 c 0
391 880 m 1
 475 780 l 1
 405 780 l 1
 321 880 l 1
 391 880 l 1
475 780 m 1
 405 780 l 1
 521 880 l 1
 591 880 l 1
 475 780 l 1
EndSplineSet
EndChar

StartChar: uni01DB
Encoding: 475 475 303
Width: 760
VWidth: 0
Flags: HW
LayerCount: 2
Fore
SplineSet
651 280 m 1
 719 700 l 1
 784 700 l 1
 716 280 l 1
 651 280 l 1
136 280 m 1
 204 700 l 1
 269 700 l 1
 201 280 l 1
 136 280 l 1
651 280 m 1
 716 280 l 1
 688 111 537 -10 378 -10 c 0
 219 -10 108 111 136 280 c 1
 201 280 l 1
 180 151 262 55 389 55 c 0
 516 55 630 151 651 280 c 1
350 825 m 0
 355 855 383 880 413 880 c 0
 443 880 463 855 458 825 c 0
 453 795 425 770 395 770 c 0
 365 770 345 795 350 825 c 0
570 825 m 0
 575 855 603 880 633 880 c 0
 663 880 683 855 678 825 c 0
 673 795 645 770 615 770 c 0
 585 770 565 795 570 825 c 0
506 960 m 1
 409 1100 l 1
 499 1100 l 5
 556 960 l 5
 506 960 l 1
EndSplineSet
EndChar

StartChar: uni01DC
Encoding: 476 476 304
Width: 635
VWidth: 0
Flags: HMW
LayerCount: 2
Fore
SplineSet
550 0 m 1
 485 0 l 1
 570 520 l 1
 635 520 l 1
 550 0 l 1
181 220 m 1
 166 130 198 50 313 50 c 0
 421 50 506 130 524 240 c 1
 559 240 l 1
 540 121 447 -10 288 -10 c 0
 159 -10 95 91 116 220 c 1
 181 220 l 1
116 220 m 1
 165 520 l 1
 230 520 l 1
 181 220 l 1
 116 220 l 1
254 645 m 0
 259 675 287 700 317 700 c 0
 347 700 367 675 362 645 c 0
 357 615 329 590 299 590 c 0
 269 590 249 615 254 645 c 0
474 645 m 0
 479 675 507 700 537 700 c 0
 567 700 587 675 582 645 c 0
 577 615 549 590 519 590 c 0
 489 590 469 615 474 645 c 0
410 780 m 1
 312 920 l 1
 402 920 l 5
 460 780 l 5
 410 780 l 1
EndSplineSet
EndChar

StartChar: uni01DE
Encoding: 478 478 305
Width: 800
VWidth: 0
Flags: HW
LayerCount: 2
Fore
SplineSet
484 700 m 1
 544 700 l 1
 532 690 l 1
 482 690 l 1
 484 700 l 1
236 260 m 1
 648 260 l 1
 637 190 l 1
 225 190 l 1
 236 260 l 1
676 0 m 1
 478 690 l 1
 544 700 l 1
 755 0 l 1
 676 0 l 1
484 700 m 1
 546 690 l 1
 124 0 l 1
 45 0 l 1
 484 700 l 1
368 825 m 0
 373 855 401 880 431 880 c 0
 461 880 481 855 476 825 c 0
 471 795 443 770 413 770 c 0
 383 770 363 795 368 825 c 0
588 825 m 0
 593 855 621 880 651 880 c 0
 681 880 701 855 696 825 c 0
 691 795 663 770 633 770 c 0
 603 770 583 795 588 825 c 0
413 1030 m 5
 717 1030 l 5
 707 970 l 1
 403 970 l 1
 413 1030 l 5
EndSplineSet
EndChar

StartChar: uni01DF
Encoding: 479 479 306
Width: 580
VWidth: 0
Flags: HMW
LayerCount: 2
Fore
SplineSet
371 312 m 1
 521 312 l 1
 513 263 l 1
 393 263 l 1
 371 312 l 1
494 330 m 1
 509 420 481 475 365 475 c 1
 380 530 l 1
 523 530 578 449 559 330 c 1
 494 330 l 1
365 475 m 1
 283 475 236 443 180 403 c 1
 153 450 l 1
 218 499 278 530 380 530 c 1
 365 475 l 1
494 330 m 1
 559 330 l 1
 505 0 l 1
 440 0 l 1
 494 330 l 1
134 160 m 1
 121 82 170 50 278 50 c 4
 366 50 456 100 469 180 c 1
 504 180 l 1
 486 71 387 -10 238 -10 c 0
 139 -10 50 41 69 160 c 1
 134 160 l 1
371 312 m 1
 393 263 l 1
 244 263 148 245 134 160 c 1
 69 160 l 1
 91 295 234 312 371 312 c 1
235 645 m 0
 240 675 268 700 298 700 c 0
 328 700 348 675 343 645 c 0
 338 615 310 590 280 590 c 0
 250 590 230 615 235 645 c 0
455 645 m 0
 460 675 488 700 518 700 c 0
 548 700 568 675 563 645 c 0
 558 615 530 590 500 590 c 0
 470 590 450 615 455 645 c 0
280 850 m 5
 584 850 l 5
 575 790 l 1
 271 790 l 1
 280 850 l 5
EndSplineSet
EndChar

StartChar: Gcaron
Encoding: 486 486 307
Width: 782
VWidth: 0
Flags: HW
LayerCount: 2
Fore
SplineSet
762 370 m 1
 751 300 l 1
 474 300 l 1
 485 370 l 1
 762 370 l 1
720 113 m 1
 650 113 l 1
 692 370 l 1
 762 370 l 1
 720 113 l 1
197 350 m 4
 170 184 274 60 435 60 c 4
 518 60 613 105 676 166 c 5
 720 113 l 1
 643 38 529 -10 423 -10 c 0
 228 -10 95 151 127 350 c 0
 159 549 346 710 541 710 c 0
 647 710 735 662 788 587 c 1
 732 539 l 1
 689 600 612 640 529 640 c 4
 368 640 224 516 197 350 c 4
502 870 m 1
 585 770 l 1
 515 770 l 1
 432 870 l 1
 502 870 l 1
585 770 m 1
 515 770 l 1
 632 870 l 1
 702 870 l 1
 585 770 l 1
EndSplineSet
EndChar

StartChar: gcaron
Encoding: 487 487 308
Width: 655
VWidth: 0
Flags: HMW
LayerCount: 2
Fore
SplineSet
547 260 m 0
 568 389 494 470 387 470 c 0
 280 470 183 389 162 260 c 0
 141 131 211 50 318 50 c 0
 425 50 526 131 547 260 c 0
582 260 m 0
 556 101 457 -10 298 -10 c 0
 169 -10 71 101 97 260 c 0
 123 419 257 530 386 530 c 0
 545 530 608 419 582 260 c 0
297 -160 m 1
 287 -220 l 1
 150 -220 76 -172 39 -108 c 1
 87 -66 l 5
 121 -111 174 -160 297 -160 c 1
573 20 m 1
 508 20 l 1
 590 520 l 1
 655 520 l 1
 573 20 l 1
508 20 m 1
 573 20 l 1
 550 -119 416 -220 287 -220 c 1
 297 -160 l 1
 384 -160 490 -89 508 20 c 1
347 690 m 1
 431 590 l 1
 361 590 l 1
 277 690 l 1
 347 690 l 1
431 590 m 1
 361 590 l 1
 477 690 l 1
 547 690 l 1
 431 590 l 1
EndSplineSet
EndChar

StartChar: uni01E8
Encoding: 488 488 309
Width: 745
VWidth: 0
Flags: HW
LayerCount: 2
Fore
SplineSet
366 413 m 5
 445 413 l 1
 720 0 l 1
 641 0 l 5
 366 413 l 5
699 700 m 1
 784 700 l 1
 204 207 l 1
 142 230 l 1
 699 700 l 1
214 700 m 1
 284 700 l 1
 170 0 l 1
 100 0 l 1
 214 700 l 1
459 870 m 1
 543 770 l 1
 473 770 l 1
 389 870 l 1
 459 870 l 1
543 770 m 1
 473 770 l 1
 589 870 l 1
 659 870 l 1
 543 770 l 1
EndSplineSet
EndChar

StartChar: uni01E9
Encoding: 489 489 310
Width: 615
VWidth: 0
Flags: HMW
LayerCount: 2
Fore
SplineSet
314 291 m 5
 381 311 l 1
 590 0 l 1
 514 0 l 5
 314 291 l 5
569 520 m 1
 655 520 l 1
 168 110 l 1
 135 154 l 1
 569 520 l 1
204 730 m 1
 269 730 l 1
 150 0 l 1
 85 0 l 1
 204 730 l 1
205 890 m 1
 289 790 l 1
 219 790 l 1
 135 890 l 1
 205 890 l 1
289 790 m 1
 219 790 l 1
 335 890 l 1
 405 890 l 1
 289 790 l 1
EndSplineSet
EndChar

StartChar: uni01F0
Encoding: 496 496 311
Width: 250
VWidth: 0
Flags: HM
LayerCount: 2
Fore
SplineSet
174 520 m 1
 254 520 l 1
 159 -60 l 1
 79 -60 l 1
 174 520 l 1
6 -135 m 1
 -0 -210 l 1
 -57 -210 -105 -194 -126 -160 c 1
 -78 -101 l 1
 -64 -120 -37 -135 6 -135 c 1
79 -60 m 1
 159 -60 l 1
 146 -139 89 -210 -0 -210 c 1
 6 -135 l 1
 43 -135 72 -100 79 -60 c 1
176 690 m 1
 260 590 l 1
 190 590 l 1
 106 690 l 1
 176 690 l 1
260 590 m 1
 190 590 l 1
 306 690 l 1
 376 690 l 1
 260 590 l 1
EndSplineSet
EndChar

StartChar: uni01F4
Encoding: 500 500 312
Width: 782
VWidth: 0
Flags: HW
LayerCount: 2
Fore
SplineSet
762 370 m 1
 751 300 l 1
 474 300 l 1
 485 370 l 1
 762 370 l 1
720 113 m 1
 650 113 l 1
 692 370 l 1
 762 370 l 1
 720 113 l 1
197 350 m 4
 170 184 274 60 435 60 c 4
 518 60 613 105 676 166 c 5
 720 113 l 1
 643 38 529 -10 423 -10 c 0
 228 -10 95 151 127 350 c 0
 159 549 346 710 541 710 c 0
 647 710 735 662 788 587 c 1
 732 539 l 1
 689 600 612 640 529 640 c 4
 368 640 224 516 197 350 c 4
580 770 m 1
 530 770 l 5
 633 910 l 5
 723 910 l 1
 580 770 l 1
EndSplineSet
EndChar

StartChar: uni01F5
Encoding: 501 501 313
Width: 655
VWidth: 0
Flags: HMW
LayerCount: 2
Fore
SplineSet
547 260 m 0
 568 389 494 470 387 470 c 0
 280 470 183 389 162 260 c 0
 141 131 211 50 318 50 c 0
 425 50 526 131 547 260 c 0
582 260 m 0
 556 101 457 -10 298 -10 c 0
 169 -10 71 101 97 260 c 0
 123 419 257 530 386 530 c 0
 545 530 608 419 582 260 c 0
297 -160 m 1
 287 -220 l 1
 150 -220 76 -172 39 -108 c 1
 87 -66 l 5
 121 -111 174 -160 297 -160 c 1
573 20 m 1
 508 20 l 1
 590 520 l 1
 655 520 l 1
 573 20 l 1
508 20 m 1
 573 20 l 1
 550 -119 416 -220 287 -220 c 1
 297 -160 l 1
 384 -160 490 -89 508 20 c 1
426 590 m 1
 376 590 l 5
 479 730 l 5
 569 730 l 1
 426 590 l 1
EndSplineSet
EndChar

StartChar: uni01F8
Encoding: 504 504 314
Width: 790
VWidth: 0
Flags: HW
LayerCount: 2
Fore
SplineSet
690 0 m 1
 630 0 l 5
 634 24 l 5
 692 14 l 1
 690 0 l 1
274 700 m 1
 271 680 l 1
 211 680 l 1
 214 700 l 1
 274 700 l 1
208 665 m 1
 274 700 l 1
 696 35 l 1
 630 0 l 5
 208 665 l 1
734 700 m 5
 804 700 l 1
 690 0 l 1
 623 20 l 5
 734 700 l 5
214 700 m 1
 281 680 l 1
 170 0 l 1
 100 0 l 1
 214 700 l 1
485 770 m 1
 388 910 l 1
 478 910 l 5
 535 770 l 5
 485 770 l 1
EndSplineSet
EndChar

StartChar: uni01F9
Encoding: 505 505 315
Width: 635
VWidth: 0
Flags: HMW
LayerCount: 2
Fore
SplineSet
604 300 m 5
 555 0 l 5
 490 0 l 5
 539 300 l 5
 604 300 l 5
170 520 m 5
 235 520 l 5
 150 0 l 5
 85 0 l 5
 170 520 l 5
539 300 m 5
 554 390 522 470 407 470 c 4
 299 470 214 390 196 280 c 5
 161 280 l 5
 180 399 272 530 431 530 c 4
 560 530 625 429 604 300 c 5
 539 300 l 5
384 590 m 1
 286 730 l 1
 376 730 l 5
 434 590 l 5
 384 590 l 1
EndSplineSet
EndChar

StartChar: Aringacute
Encoding: 506 506 316
Width: 800
VWidth: 0
Flags: HW
LayerCount: 2
Fore
SplineSet
484 700 m 1
 544 700 l 1
 532 690 l 1
 482 690 l 1
 484 700 l 1
236 260 m 1
 648 260 l 1
 637 190 l 1
 225 190 l 1
 236 260 l 1
676 0 m 1
 478 690 l 1
 544 700 l 1
 755 0 l 1
 676 0 l 1
484 700 m 1
 546 690 l 1
 124 0 l 1
 45 0 l 1
 484 700 l 1
471 760 m 0
 466 731 484 710 513 710 c 0
 542 710 566 731 571 760 c 0
 576 789 558 810 529 810 c 4
 500 810 476 789 471 760 c 0
421 760 m 0
 430 815 483 860 538 860 c 0
 593 860 630 815 621 760 c 0
 612 705 560 660 505 660 c 0
 450 660 412 705 421 760 c 0
584 963 m 1
 534 963 l 5
 637 1103 l 5
 727 1103 l 1
 584 963 l 1
EndSplineSet
EndChar

StartChar: aringacute
Encoding: 507 507 317
Width: 580
VWidth: 0
Flags: HMW
LayerCount: 2
Fore
SplineSet
371 312 m 1
 521 312 l 1
 513 263 l 1
 393 263 l 1
 371 312 l 1
494 330 m 1
 509 420 481 475 365 475 c 1
 380 530 l 1
 523 530 578 449 559 330 c 1
 494 330 l 1
365 475 m 1
 283 475 236 443 180 403 c 1
 153 450 l 1
 218 499 278 530 380 530 c 1
 365 475 l 1
494 330 m 1
 559 330 l 1
 505 0 l 1
 440 0 l 1
 494 330 l 1
134 160 m 1
 121 82 170 50 278 50 c 4
 366 50 456 100 469 180 c 1
 504 180 l 1
 486 71 387 -10 238 -10 c 0
 139 -10 50 41 69 160 c 1
 134 160 l 1
371 312 m 1
 393 263 l 1
 244 263 148 245 134 160 c 1
 69 160 l 1
 91 295 234 312 371 312 c 1
356 690 m 0
 351 661 369 640 398 640 c 0
 427 640 451 661 456 690 c 0
 461 719 444 740 415 740 c 4
 386 740 361 719 356 690 c 0
306 690 m 0
 315 745 368 790 423 790 c 0
 478 790 515 745 506 690 c 0
 497 635 445 590 390 590 c 0
 335 590 297 635 306 690 c 0
462 850 m 1
 412 850 l 5
 515 990 l 5
 605 990 l 1
 462 850 l 1
EndSplineSet
EndChar

StartChar: uni0202
Encoding: 514 514 318
Width: 800
VWidth: 0
Flags: HW
LayerCount: 2
Fore
SplineSet
484 700 m 1
 544 700 l 1
 532 690 l 1
 482 690 l 1
 484 700 l 1
236 260 m 1
 648 260 l 1
 637 190 l 1
 225 190 l 1
 236 260 l 1
676 0 m 1
 478 690 l 1
 544 700 l 1
 755 0 l 1
 676 0 l 1
484 700 m 1
 546 690 l 1
 124 0 l 1
 45 0 l 1
 484 700 l 1
536 852 m 1
 476 852 426 818 418 770 c 1
 354 776 l 1
 368 865 449 922 548 922 c 1
 536 852 l 1
536 852 m 1
 548 922 l 1
 647 922 708 865 694 776 c 1
 628 770 l 5
 636 818 596 852 536 852 c 1
EndSplineSet
EndChar

StartChar: uni0206
Encoding: 518 518 319
Width: 670
VWidth: 0
Flags: HW
LayerCount: 2
Fore
SplineSet
164 393 m 1
 624 393 l 1
 613 323 l 1
 153 323 l 1
 164 393 l 1
214 700 m 1
 724 700 l 1
 713 630 l 1
 203 630 l 1
 214 700 l 1
111 70 m 5
 621 70 l 5
 610 0 l 1
 100 0 l 1
 111 70 l 5
214 700 m 1
 284 700 l 1
 170 0 l 1
 100 0 l 1
 214 700 l 1
494 852 m 1
 434 852 383 818 375 770 c 1
 311 776 l 1
 325 865 406 922 505 922 c 1
 494 852 l 1
494 852 m 1
 505 922 l 1
 604 922 665 865 651 776 c 1
 585 770 l 5
 593 818 554 852 494 852 c 1
EndSplineSet
EndChar

StartChar: uni0207
Encoding: 519 519 320
Width: 615
VWidth: 0
Flags: HMW
LayerCount: 2
Fore
SplineSet
607 260 m 1
 604 240 l 1
 539 240 l 1
 542 260 l 1
 607 260 l 1
539 240 m 1
 133 240 l 1
 142 297 l 1
 548 297 l 1
 539 240 l 1
542 260 m 1
 563 389 504 470 387 470 c 0
 270 470 183 389 162 260 c 1
 97 260 l 1
 123 419 257 530 396 530 c 0
 535 530 633 419 607 260 c 1
 542 260 l 1
97 260 m 1
 162 260 l 1
 141 131 211 50 328 50 c 0
 402 50 473 85 518 134 c 5
 553 92 l 1
 496 28 405 -10 318 -10 c 0
 169 -10 71 101 97 260 c 1
414 672 m 1
 354 672 304 638 296 590 c 1
 232 596 l 1
 246 685 327 742 426 742 c 1
 414 672 l 1
414 672 m 1
 426 742 l 1
 525 742 586 685 572 596 c 1
 506 590 l 5
 514 638 474 672 414 672 c 1
EndSplineSet
EndChar

StartChar: uni020A
Encoding: 522 522 321
Width: 300
VWidth: 0
Flags: HW
LayerCount: 2
Fore
SplineSet
229 700 m 1
 299 700 l 5
 185 0 l 5
 115 0 l 1
 229 700 l 1
286 852 m 1
 226 852 176 818 168 770 c 1
 104 776 l 1
 118 865 199 922 298 922 c 1
 286 852 l 1
286 852 m 1
 298 922 l 1
 397 922 458 865 444 776 c 1
 378 770 l 5
 386 818 346 852 286 852 c 1
EndSplineSet
EndChar

StartChar: uni020B
Encoding: 523 523 322
Width: 250
VWidth: 0
Flags: HMW
LayerCount: 2
Fore
SplineSet
170 520 m 1
 250 520 l 1
 165 0 l 1
 85 0 l 1
 170 520 l 1
234 672 m 1
 174 672 124 638 116 590 c 1
 52 596 l 1
 66 685 147 742 246 742 c 1
 234 672 l 1
234 672 m 1
 246 742 l 1
 345 742 406 685 392 596 c 1
 326 590 l 5
 334 638 294 672 234 672 c 1
EndSplineSet
EndChar

StartChar: uni020E
Encoding: 526 526 323
Width: 850
VWidth: 0
Flags: HW
LayerCount: 2
Fore
SplineSet
197 350 m 4
 171 190 275 60 435 60 c 4
 595 60 741 190 767 350 c 4
 793 510 689 640 529 640 c 4
 369 640 223 510 197 350 c 4
127 350 m 4
 159 549 346 710 541 710 c 4
 736 710 869 549 837 350 c 4
 805 151 618 -10 423 -10 c 4
 228 -10 95 151 127 350 c 4
564 852 m 1
 504 852 453 818 445 770 c 1
 381 776 l 1
 395 865 476 922 575 922 c 1
 564 852 l 1
564 852 m 1
 575 922 l 1
 674 922 735 865 721 776 c 1
 655 770 l 5
 663 818 624 852 564 852 c 1
EndSplineSet
EndChar

StartChar: uni020F
Encoding: 527 527 324
Width: 650
VWidth: 0
Flags: HM
LayerCount: 2
Fore
SplineSet
162 260 m 0
 143 144 220 50 333 50 c 0
 446 50 553 144 572 260 c 0
 591 376 515 470 402 470 c 0
 289 470 181 376 162 260 c 0
97 260 m 0
 121 409 262 530 411 530 c 0
 560 530 661 409 637 260 c 0
 613 111 472 -10 323 -10 c 0
 174 -10 73 111 97 260 c 0
434 672 m 1
 374 672 324 638 316 590 c 1
 252 596 l 1
 266 685 347 742 446 742 c 1
 434 672 l 1
434 672 m 1
 446 742 l 1
 545 742 606 685 592 596 c 1
 526 590 l 5
 534 638 494 672 434 672 c 1
EndSplineSet
EndChar

StartChar: uni0212
Encoding: 530 530 325
Width: 718
VWidth: 0
Flags: HW
LayerCount: 2
Fore
SplineSet
454 333 m 1xd980
 552 333 631 387 646 477 c 0
 661 567 601 630 503 630 c 1
 514 700 l 1
 643 700 736 602 716 477 c 0
 696 353 572 263 443 263 c 1
 454 333 l 1xd980
400 320 m 5xb980
 485 320 l 1
 673 0 l 1
 588 0 l 5
 400 320 l 5xb980
214 700 m 1
 284 700 l 1
 170 0 l 1x9d80
 100 0 l 1
 214 700 l 1
219 700 m 1
 514 700 l 1
 503 630 l 1
 208 630 l 1
 219 700 l 1
159 333 m 1xdd80
 454 333 l 1
 443 263 l 1
 148 263 l 1
 159 333 l 1xdd80
476 852 m 1
 416 852 366 818 358 770 c 1
 294 776 l 1x9b80
 308 865 389 922 488 922 c 1
 476 852 l 1
476 852 m 1
 488 922 l 1
 587 922 648 865 634 776 c 1
 568 770 l 5
 576 818 536 852 476 852 c 1
EndSplineSet
EndChar

StartChar: uni0213
Encoding: 531 531 326
Width: 410
VWidth: 0
Flags: HMW
LayerCount: 2
Fore
SplineSet
170 520 m 1
 235 520 l 1
 150 0 l 1
 85 0 l 1
 170 520 l 1
455 460 m 1
 435 460 l 2
 311 460 212 380 194 270 c 1
 159 270 l 5
 183 419 286 520 465 520 c 1
 455 460 l 1
339 672 m 1
 279 672 229 638 221 590 c 1
 157 596 l 1
 171 685 252 742 351 742 c 1
 339 672 l 1
339 672 m 1
 351 742 l 1
 450 742 511 685 497 596 c 1
 431 590 l 5
 439 638 399 672 339 672 c 1
EndSplineSet
EndChar

StartChar: uni0216
Encoding: 534 534 327
Width: 760
VWidth: 0
Flags: HW
LayerCount: 2
Fore
SplineSet
651 280 m 1
 719 700 l 1
 784 700 l 1
 716 280 l 1
 651 280 l 1
136 280 m 1
 204 700 l 1
 269 700 l 1
 201 280 l 1
 136 280 l 1
651 280 m 1
 716 280 l 1
 688 111 537 -10 378 -10 c 0
 219 -10 108 111 136 280 c 1
 201 280 l 1
 180 151 262 55 389 55 c 0
 516 55 630 151 651 280 c 1
519 852 m 1
 459 852 408 818 400 770 c 1
 336 776 l 1
 350 865 431 922 530 922 c 1
 519 852 l 1
519 852 m 1
 530 922 l 1
 629 922 690 865 676 776 c 1
 610 770 l 5
 618 818 579 852 519 852 c 1
EndSplineSet
EndChar

StartChar: uni0217
Encoding: 535 535 328
Width: 635
VWidth: 0
Flags: HMW
LayerCount: 2
Fore
SplineSet
550 0 m 1
 485 0 l 1
 570 520 l 1
 635 520 l 1
 550 0 l 1
181 220 m 1
 166 130 198 50 313 50 c 0
 421 50 506 130 524 240 c 1
 559 240 l 1
 540 121 447 -10 288 -10 c 0
 159 -10 95 91 116 220 c 1
 181 220 l 1
116 220 m 1
 165 520 l 1
 230 520 l 1
 181 220 l 1
 116 220 l 1
422 672 m 1
 362 672 312 638 304 590 c 1
 240 596 l 1
 254 685 334 742 433 742 c 1
 422 672 l 1
422 672 m 1
 433 742 l 1
 532 742 594 685 580 596 c 1
 514 590 l 5
 522 638 482 672 422 672 c 1
EndSplineSet
EndChar

StartChar: uni0218
Encoding: 536 536 329
Width: 625
VWidth: 0
Flags: HW
LayerCount: 2
Fore
SplineSet
532 195 m 1
 597 195 l 1
 576 66 475 -10 326 -10 c 0
 197 -10 121 56 68 113 c 1
 121 166 l 1
 162 122 229 55 337 55 c 0
 430 55 516 95 532 195 c 1
241 532 m 1
 176 527 l 1
 194 638 312 710 431 710 c 0
 530 710 605 674 649 622 c 1
 599 574 l 1
 561 618 488 645 430 645 c 0
 327 645 252 599 241 532 c 1
393 397 m 4
 516 377 619 330 597 195 c 1
 532 195 l 1
 545 276 475 319 378 332 c 0
 250 349 157 412 176 527 c 1
 241 532 l 1
 227 447 290 414 393 397 c 4
278 -145 m 0
 283 -115 311 -90 343 -90 c 4
 373 -90 396 -110 390 -145 c 0
 388 -159 381 -171 372 -183 c 2
 269 -320 l 1
 234 -320 l 1
 309 -198 l 1
 288 -191 274 -170 278 -145 c 0
EndSplineSet
EndChar

StartChar: uni0219
Encoding: 537 537 330
Width: 520
VWidth: 0
Flags: HM
LayerCount: 2
Fore
SplineSet
434 150 m 1
 499 150 l 1
 486 71 412 -10 273 -10 c 0
 164 -10 106 37 62 104 c 1
 117 148 l 1
 155 98 195 50 283 50 c 0
 366 50 423 80 434 150 c 1
198 388 m 1
 133 388 l 1
 145 464 232 530 341 530 c 0
 450 530 497 496 531 448 c 1
 481 400 l 1
 454 432 420 470 332 470 c 0
 244 470 205 430 198 388 c 1
329 302 m 0
 443 283 517 260 499 150 c 1
 434 150 l 1
 444 210 400 227 294 242 c 0
 193 257 118 293 133 388 c 1
 198 388 l 1
 190 338 234 318 329 302 c 0
225 -145 m 0
 230 -115 258 -90 290 -90 c 4
 320 -90 343 -110 337 -145 c 0
 335 -159 328 -171 319 -183 c 2
 216 -320 l 1
 181 -320 l 1
 256 -198 l 1
 235 -191 221 -170 225 -145 c 0
EndSplineSet
EndChar

StartChar: uni021A
Encoding: 538 538 331
Width: 690
VWidth: 0
Flags: HW
LayerCount: 2
Fore
SplineSet
164 700 m 1xc0
 754 700 l 1
 743 630 l 1
 153 630 l 1
 164 700 l 1xc0
424 700 m 1xe0
 494 700 l 1
 380 0 l 1
 310 0 l 1
 424 700 l 1xe0
295 -135 m 0xd0
 300 -105 327 -80 359 -80 c 4
 389 -80 413 -100 407 -135 c 0
 405 -149 397 -161 388 -173 c 2
 285 -310 l 1
 250 -310 l 1
 325 -188 l 1
 304 -181 291 -160 295 -135 c 0xd0
EndSplineSet
EndChar

StartChar: uni021B
Encoding: 539 539 332
Width: 420
VWidth: 0
Flags: HM
LayerCount: 2
Fore
SplineSet
125 520 m 1
 455 520 l 1
 445 460 l 1
 115 460 l 1
 125 520 l 1
208 140 m 1
 143 140 l 1
 230 673 l 1
 295 673 l 1
 208 140 l 1
272 50 m 1
 321 50 357 74 377 93 c 1
 399 42 l 1
 367 13 318 -10 256 -10 c 1
 272 50 l 1
208 140 m 1
 200 90 214 50 272 50 c 1
 256 -10 l 5
 157 -10 130 61 143 140 c 1
 208 140 l 1
206 -145 m 0
 211 -115 239 -90 271 -90 c 4
 301 -90 324 -110 318 -145 c 0
 316 -159 309 -171 300 -183 c 2
 197 -320 l 1
 162 -320 l 1
 237 -198 l 1
 216 -191 202 -170 206 -145 c 0
EndSplineSet
EndChar

StartChar: uni021E
Encoding: 542 542 333
Width: 765
VWidth: 0
Flags: HW
LayerCount: 2
Fore
SplineSet
709 700 m 1xf8
 779 700 l 1
 665 0 l 1
 595 0 l 1
 709 700 l 1xf8
164 393 m 5
 674 393 l 5
 663 323 l 1xf4
 153 323 l 1
 164 393 l 5
214 700 m 1
 284 700 l 1
 170 0 l 1
 100 0 l 1
 214 700 l 1
457 870 m 1
 540 770 l 1
 470 770 l 1
 387 870 l 1
 457 870 l 1
540 770 m 1
 470 770 l 1
 587 870 l 1
 657 870 l 1
 540 770 l 1
EndSplineSet
EndChar

StartChar: uni021F
Encoding: 543 543 334
Width: 635
VWidth: 0
Flags: HMW
LayerCount: 2
Fore
SplineSet
604 300 m 1
 555 0 l 1
 490 0 l 1
 539 300 l 1
 604 300 l 1
539 300 m 1
 554 390 522 470 407 470 c 0
 299 470 214 390 196 280 c 1
 161 280 l 1
 180 399 272 530 431 530 c 0
 560 530 625 429 604 300 c 1
 539 300 l 1
204 730 m 1
 269 730 l 1
 150 0 l 1
 85 0 l 1
 204 730 l 1
397 890 m 1
 481 790 l 1
 411 790 l 1
 327 890 l 1
 397 890 l 1
481 790 m 1
 411 790 l 1
 527 890 l 1
 597 890 l 1
 481 790 l 1
EndSplineSet
EndChar

StartChar: uni0226
Encoding: 550 550 335
Width: 800
VWidth: 0
Flags: HW
LayerCount: 2
Fore
SplineSet
484 700 m 1
 544 700 l 1
 532 690 l 1
 482 690 l 1
 484 700 l 1
236 260 m 1
 648 260 l 1
 637 190 l 1
 225 190 l 1
 236 260 l 1
676 0 m 1
 478 690 l 1
 544 700 l 1
 755 0 l 1
 676 0 l 1
484 700 m 1
 546 690 l 1
 124 0 l 1
 45 0 l 1
 484 700 l 1
478 825 m 0
 483 855 511 880 541 880 c 0
 571 880 591 855 586 825 c 0
 581 795 553 770 523 770 c 0
 493 770 473 795 478 825 c 0
EndSplineSet
EndChar

StartChar: uni0227
Encoding: 551 551 336
Width: 580
VWidth: 0
Flags: HMW
LayerCount: 2
Fore
SplineSet
371 312 m 1
 521 312 l 1
 513 263 l 1
 393 263 l 1
 371 312 l 1
494 330 m 1
 509 420 481 475 365 475 c 1
 380 530 l 1
 523 530 578 449 559 330 c 1
 494 330 l 1
365 475 m 1
 283 475 236 443 180 403 c 1
 153 450 l 1
 218 499 278 530 380 530 c 1
 365 475 l 1
494 330 m 1
 559 330 l 1
 505 0 l 1
 440 0 l 1
 494 330 l 1
134 160 m 1
 121 82 170 50 278 50 c 4
 366 50 456 100 469 180 c 1
 504 180 l 1
 486 71 387 -10 238 -10 c 0
 139 -10 50 41 69 160 c 1
 134 160 l 1
371 312 m 1
 393 263 l 1
 244 263 148 245 134 160 c 1
 69 160 l 1
 91 295 234 312 371 312 c 1
345 645 m 0
 350 675 378 700 408 700 c 0
 438 700 458 675 453 645 c 0
 448 615 420 590 390 590 c 0
 360 590 340 615 345 645 c 0
EndSplineSet
EndChar

StartChar: uni0228
Encoding: 552 552 337
Width: 670
VWidth: 0
Flags: HW
LayerCount: 2
Fore
SplineSet
164 393 m 1x9e
 624 393 l 1
 613 323 l 1
 153 323 l 1
 164 393 l 1x9e
214 700 m 1
 724 700 l 1
 713 630 l 1
 203 630 l 1
 214 700 l 1
111 70 m 5xde
 621 70 l 5
 610 0 l 1
 100 0 l 1
 111 70 l 5xde
214 700 m 1
 284 700 l 1
 170 0 l 1
 100 0 l 1
 214 700 l 1
336 7 m 5xbe
 376 7 l 5
 420 -27 479 -67 470 -125 c 4
 462 -172 434 -207 367 -207 c 4
 330 -207 295 -193 276 -178 c 5
 301 -148 l 5
 310 -151 327 -163 357 -163 c 4
 388 -163 414 -154 419 -122 c 4
 425 -87 377 -32 336 7 c 5xbe
EndSplineSet
EndChar

StartChar: uni0229
Encoding: 553 553 338
Width: 615
VWidth: 0
Flags: HMW
LayerCount: 2
Fore
SplineSet
607 260 m 1
 604 240 l 1
 539 240 l 1
 542 260 l 1
 607 260 l 1
539 240 m 1
 133 240 l 1
 142 297 l 1
 548 297 l 1
 539 240 l 1
542 260 m 1
 563 389 504 470 387 470 c 0
 270 470 183 389 162 260 c 1
 97 260 l 1
 123 419 257 530 396 530 c 0
 535 530 633 419 607 260 c 1
 542 260 l 1
97 260 m 1
 162 260 l 1
 141 131 211 50 328 50 c 0
 402 50 473 85 518 134 c 5
 553 92 l 1
 496 28 405 -10 318 -10 c 0
 169 -10 71 101 97 260 c 1
295 -3 m 5
 335 -3 l 5
 379 -37 437 -77 428 -135 c 4
 420 -182 393 -217 326 -217 c 4
 289 -217 253 -203 234 -188 c 5
 259 -158 l 5
 268 -161 286 -173 316 -173 c 4
 347 -173 373 -164 378 -132 c 4
 384 -97 336 -42 295 -3 c 5
EndSplineSet
EndChar

StartChar: uni022A
Encoding: 554 554 339
Width: 850
VWidth: 0
Flags: HW
LayerCount: 2
Fore
SplineSet
197 350 m 4
 171 190 275 60 435 60 c 4
 595 60 741 190 767 350 c 4
 793 510 689 640 529 640 c 4
 369 640 223 510 197 350 c 4
127 350 m 4
 159 549 346 710 541 710 c 4
 736 710 869 549 837 350 c 4
 805 151 618 -10 423 -10 c 4
 228 -10 95 151 127 350 c 4
395 825 m 0
 400 855 428 880 458 880 c 0
 488 880 508 855 503 825 c 0
 498 795 470 770 440 770 c 0
 410 770 390 795 395 825 c 0
615 825 m 0
 620 855 648 880 678 880 c 0
 708 880 728 855 723 825 c 0
 718 795 690 770 660 770 c 0
 630 770 610 795 615 825 c 0
441 1030 m 5
 745 1030 l 5
 735 970 l 1
 431 970 l 1
 441 1030 l 5
EndSplineSet
EndChar

StartChar: uni022B
Encoding: 555 555 340
Width: 650
VWidth: 0
Flags: HM
LayerCount: 2
Fore
SplineSet
162 260 m 0
 143 144 220 50 333 50 c 0
 446 50 553 144 572 260 c 0
 591 376 515 470 402 470 c 0
 289 470 181 376 162 260 c 0
97 260 m 0
 121 409 262 530 411 530 c 0
 560 530 661 409 637 260 c 0
 613 111 472 -10 323 -10 c 0
 174 -10 73 111 97 260 c 0
266 645 m 0
 271 675 299 700 329 700 c 0
 359 700 379 675 374 645 c 0
 369 615 341 590 311 590 c 0
 281 590 261 615 266 645 c 0
486 645 m 0
 491 675 519 700 549 700 c 0
 579 700 599 675 594 645 c 0
 589 615 561 590 531 590 c 0
 501 590 481 615 486 645 c 0
311 850 m 5
 615 850 l 5
 606 790 l 1
 302 790 l 1
 311 850 l 5
EndSplineSet
EndChar

StartChar: uni022C
Encoding: 556 556 341
Width: 850
VWidth: 0
Flags: HW
LayerCount: 2
Fore
SplineSet
197 350 m 4
 171 190 275 60 435 60 c 4
 595 60 741 190 767 350 c 4
 793 510 689 640 529 640 c 4
 369 640 223 510 197 350 c 4
127 350 m 4
 159 549 346 710 541 710 c 4
 736 710 869 549 837 350 c 4
 805 151 618 -10 423 -10 c 4
 228 -10 95 151 127 350 c 4
420 770 m 1
 364 790 l 1
 381 868 435 907 486 907 c 0
 550 907 603 833 647 833 c 4
 692 833 707 873 713 910 c 1
 760 890 l 1
 741 802 690 773 640 773 c 0
 578 773 528 847 485 847 c 0
 441 847 426 807 420 770 c 1
572 1040 m 5
 876 1040 l 5
 867 980 l 1
 563 980 l 1
 572 1040 l 5
EndSplineSet
EndChar

StartChar: uni022D
Encoding: 557 557 342
Width: 650
VWidth: 0
Flags: HM
LayerCount: 2
Fore
SplineSet
162 260 m 0
 143 144 220 50 333 50 c 0
 446 50 553 144 572 260 c 0
 591 376 515 470 402 470 c 0
 289 470 181 376 162 260 c 0
97 260 m 0
 121 409 262 530 411 530 c 0
 560 530 661 409 637 260 c 0
 613 111 472 -10 323 -10 c 0
 174 -10 73 111 97 260 c 0
291 590 m 1
 234 610 l 1
 251 688 306 727 357 727 c 0
 421 727 474 653 518 653 c 4
 563 653 578 693 584 730 c 1
 631 710 l 1
 612 622 560 593 510 593 c 0
 448 593 399 667 356 667 c 0
 312 667 297 627 291 590 c 1
313 860 m 5
 617 860 l 5
 607 800 l 1
 303 800 l 1
 313 860 l 5
EndSplineSet
EndChar

StartChar: uni022E
Encoding: 558 558 343
Width: 850
VWidth: 0
Flags: HW
CounterMasks: 1 1c
LayerCount: 2
Fore
SplineSet
197 350 m 4
 171 190 275 60 435 60 c 4
 595 60 741 190 767 350 c 4
 793 510 689 640 529 640 c 4
 369 640 223 510 197 350 c 4
127 350 m 4
 159 549 346 710 541 710 c 4
 736 710 869 549 837 350 c 4
 805 151 618 -10 423 -10 c 4
 228 -10 95 151 127 350 c 4
505 825 m 0
 510 855 538 880 568 880 c 0
 598 880 618 855 613 825 c 0
 608 795 580 770 550 770 c 0
 520 770 500 795 505 825 c 0
EndSplineSet
EndChar

StartChar: uni022F
Encoding: 559 559 344
Width: 650
VWidth: 0
Flags: HM
LayerCount: 2
Fore
SplineSet
162 260 m 0
 143 144 220 50 333 50 c 0
 446 50 553 144 572 260 c 0
 591 376 515 470 402 470 c 0
 289 470 181 376 162 260 c 0
97 260 m 0
 121 409 262 530 411 530 c 0
 560 530 661 409 637 260 c 0
 613 111 472 -10 323 -10 c 0
 174 -10 73 111 97 260 c 0
376 645 m 0
 381 675 409 700 439 700 c 0
 469 700 489 675 484 645 c 0
 479 615 451 590 421 590 c 0
 391 590 371 615 376 645 c 0
EndSplineSet
EndChar

StartChar: uni0230
Encoding: 560 560 345
Width: 850
VWidth: 0
Flags: HW
CounterMasks: 1 0e
LayerCount: 2
Fore
SplineSet
197 350 m 4
 171 190 275 60 435 60 c 4
 595 60 741 190 767 350 c 4
 793 510 689 640 529 640 c 4
 369 640 223 510 197 350 c 4
127 350 m 4
 159 549 346 710 541 710 c 4
 736 710 869 549 837 350 c 4
 805 151 618 -10 423 -10 c 4
 228 -10 95 151 127 350 c 4
505 825 m 0
 510 855 538 880 568 880 c 0
 598 880 618 855 613 825 c 0
 608 795 580 770 550 770 c 0
 520 770 500 795 505 825 c 0
441 1030 m 5
 745 1030 l 5
 735 970 l 1
 431 970 l 1
 441 1030 l 5
EndSplineSet
EndChar

StartChar: uni0231
Encoding: 561 561 346
Width: 650
VWidth: 0
Flags: HM
LayerCount: 2
Fore
SplineSet
162 260 m 0
 143 144 220 50 333 50 c 0
 446 50 553 144 572 260 c 0
 591 376 515 470 402 470 c 0
 289 470 181 376 162 260 c 0
97 260 m 0
 121 409 262 530 411 530 c 0
 560 530 661 409 637 260 c 0
 613 111 472 -10 323 -10 c 0
 174 -10 73 111 97 260 c 0
376 645 m 0
 381 675 409 700 439 700 c 0
 469 700 489 675 484 645 c 0
 479 615 451 590 421 590 c 0
 391 590 371 615 376 645 c 0
311 850 m 5
 615 850 l 5
 606 790 l 1
 302 790 l 1
 311 850 l 5
EndSplineSet
EndChar

StartChar: uni0232
Encoding: 562 562 347
Width: 680
VWidth: 0
Flags: HW
LayerCount: 2
Fore
SplineSet
353 295 m 1
 423 295 l 1
 375 0 l 1
 305 0 l 1
 353 295 l 1
144 700 m 1
 224 700 l 1
 413 295 l 1
 370 217 l 1
 144 700 l 1
684 700 m 5
 764 700 l 1
 380 217 l 1
 363 295 l 5
 684 700 l 5
322 840 m 5
 626 840 l 5
 617 780 l 1
 313 780 l 1
 322 840 l 5
EndSplineSet
EndChar

StartChar: uni0233
Encoding: 563 563 348
Width: 579
VWidth: 0
Flags: HMW
LayerCount: 2
Fore
SplineSet
124 520 m 1
 194 520 l 1
 348 -8 l 1
 282 -13 l 1
 124 520 l 1
145 -150 m 5
 135 -210 l 1
 78 -210 32 -184 11 -150 c 1
 49 -99 l 1
 63 -118 94 -150 145 -150 c 5
254 -60 m 2
 564 520 l 1
 629 520 l 1
 319 -60 l 2
 277 -140 224 -210 135 -210 c 1
 145 -150 l 5
 203 -150 233 -100 254 -60 c 2
244 660 m 5
 548 660 l 5
 539 600 l 1
 235 600 l 1
 244 660 l 5
EndSplineSet
EndChar

StartChar: uni0237
Encoding: 567 567 349
Width: 250
VWidth: 0
Flags: HW
LayerCount: 2
Fore
SplineSet
174 520 m 1
 254 520 l 1
 159 -60 l 1
 79 -60 l 1
 174 520 l 1
6 -135 m 1
 -0 -210 l 1
 -57 -210 -105 -194 -126 -160 c 1
 -78 -101 l 1
 -64 -120 -37 -135 6 -135 c 1
79 -60 m 1
 159 -60 l 1
 146 -139 89 -210 -0 -210 c 1
 6 -135 l 1
 43 -135 72 -100 79 -60 c 1
EndSplineSet
EndChar

StartChar: uni1E00
Encoding: 7680 7680 350
Width: 800
VWidth: 0
Flags: HW
LayerCount: 2
Fore
SplineSet
484 700 m 1
 544 700 l 1
 532 690 l 1
 482 690 l 1
 484 700 l 1
236 260 m 1
 648 260 l 1
 637 190 l 1
 225 190 l 1
 236 260 l 1
676 0 m 1
 478 690 l 1
 544 700 l 1
 755 0 l 1
 676 0 l 1
484 700 m 1
 546 690 l 1
 124 0 l 1
 45 0 l 1
 484 700 l 1
321 -160 m 0
 316 -189 334 -210 363 -210 c 0
 392 -210 416 -189 421 -160 c 0
 426 -131 409 -110 380 -110 c 4
 351 -110 326 -131 321 -160 c 0
271 -160 m 0
 280 -105 333 -60 388 -60 c 0
 443 -60 480 -105 471 -160 c 0
 462 -215 410 -260 355 -260 c 0
 300 -260 262 -215 271 -160 c 0
EndSplineSet
EndChar

StartChar: uni1E01
Encoding: 7681 7681 351
Width: 580
VWidth: 0
Flags: HMW
LayerCount: 2
Fore
SplineSet
371 312 m 1
 521 312 l 1
 513 263 l 1
 393 263 l 1
 371 312 l 1
494 330 m 1
 509 420 481 475 365 475 c 1
 380 530 l 1
 523 530 578 449 559 330 c 1
 494 330 l 1
365 475 m 1
 283 475 236 443 180 403 c 1
 153 450 l 1
 218 499 278 530 380 530 c 1
 365 475 l 1
494 330 m 1
 559 330 l 1
 505 0 l 1
 440 0 l 1
 494 330 l 1
134 160 m 1
 121 82 170 50 278 50 c 4
 366 50 456 100 469 180 c 1
 504 180 l 1
 486 71 387 -10 238 -10 c 0
 139 -10 50 41 69 160 c 1
 134 160 l 1
371 312 m 1
 393 263 l 1
 244 263 148 245 134 160 c 1
 69 160 l 1
 91 295 234 312 371 312 c 1
172 -170 m 0
 167 -199 185 -220 214 -220 c 0
 243 -220 267 -199 272 -170 c 0
 277 -141 259 -120 230 -120 c 4
 201 -120 177 -141 172 -170 c 0
122 -170 m 0
 131 -115 184 -70 239 -70 c 0
 294 -70 331 -115 322 -170 c 0
 313 -225 261 -270 206 -270 c 0
 151 -270 113 -225 122 -170 c 0
EndSplineSet
EndChar

StartChar: uni1E02
Encoding: 7682 7682 352
Width: 695
VWidth: 0
Flags: HW
LayerCount: 2
Fore
SplineSet
413 388 m 5xdd80
 506 388 586 412 601 507 c 4
 616 602 546 630 453 630 c 5
 464 700 l 5
 593 700 691 631 671 507 c 4
 651 384 543 330 404 330 c 5xbd80
 413 388 l 5xdd80
214 700 m 1
 284 700 l 1
 170 0 l 1
 100 0 l 1
 214 700 l 1
111 70 m 1
 401 70 l 5
 390 0 l 5
 100 0 l 1
 111 70 l 1
214 700 m 1
 464 700 l 5
 453 630 l 5
 203 630 l 1
 214 700 l 1
163 388 m 1xdd
 453 388 l 5
 442 318 l 5
 152 318 l 1
 163 388 l 1xdd
401 70 m 5
 494 70 581 95 597 195 c 4
 613 295 535 318 442 318 c 5xdd40
 451 375 l 5
 590 375 688 324 667 195 c 4xbd40
 646 66 529 0 390 0 c 5
 401 70 l 5
450 825 m 0x9e
 455 855 483 880 513 880 c 0
 543 880 563 855 558 825 c 0
 553 795 525 770 495 770 c 0
 465 770 445 795 450 825 c 0x9e
EndSplineSet
EndChar

StartChar: uni1E03
Encoding: 7683 7683 353
Width: 655
VWidth: 0
Flags: HMW
LayerCount: 2
Fore
SplineSet
192 260 m 4
 171 131 246 50 353 50 c 4
 460 50 556 131 577 260 c 4
 598 389 529 470 422 470 c 4
 315 470 213 389 192 260 c 4
157 260 m 4
 183 419 282 530 441 530 c 4
 570 530 668 419 642 260 c 4
 616 101 482 -10 353 -10 c 4
 194 -10 131 101 157 260 c 4
204 730 m 5
 269 730 l 5
 150 0 l 5
 85 0 l 5
 204 730 l 5
214 845 m 0
 219 875 247 900 277 900 c 0
 307 900 327 875 322 845 c 0
 317 815 289 790 259 790 c 0
 229 790 209 815 214 845 c 0
EndSplineSet
EndChar

StartChar: uni1E04
Encoding: 7684 7684 354
Width: 695
VWidth: 0
Flags: HW
LayerCount: 2
Fore
SplineSet
413 388 m 5xed80
 506 388 586 412 601 507 c 4
 616 602 546 630 453 630 c 5
 464 700 l 5
 593 700 691 631 671 507 c 4
 651 384 543 330 404 330 c 5xdd80
 413 388 l 5xed80
214 700 m 1
 284 700 l 1
 170 0 l 1
 100 0 l 1
 214 700 l 1
111 70 m 1
 401 70 l 5
 390 0 l 5
 100 0 l 1
 111 70 l 1
214 700 m 1
 464 700 l 5
 453 630 l 5
 203 630 l 1
 214 700 l 1
163 388 m 1xed
 453 388 l 5
 442 318 l 5
 152 318 l 1
 163 388 l 1xed
401 70 m 5
 494 70 581 95 597 195 c 4
 613 295 535 318 442 318 c 5xed40
 451 375 l 5
 590 375 688 324 667 195 c 4xdd40
 646 66 529 0 390 0 c 5
 401 70 l 5
252 -135 m 0xce
 257 -105 284 -80 314 -80 c 0
 344 -80 365 -105 360 -135 c 0
 355 -165 327 -190 297 -190 c 0
 267 -190 247 -165 252 -135 c 0xce
EndSplineSet
EndChar

StartChar: uni1E05
Encoding: 7685 7685 355
Width: 655
VWidth: 0
Flags: HMW
LayerCount: 2
Fore
SplineSet
192 260 m 4
 171 131 246 50 353 50 c 4
 460 50 556 131 577 260 c 4
 598 389 529 470 422 470 c 4
 315 470 213 389 192 260 c 4
157 260 m 4
 183 419 282 530 441 530 c 4
 570 530 668 419 642 260 c 4
 616 101 482 -10 353 -10 c 4
 194 -10 131 101 157 260 c 4
204 730 m 5
 269 730 l 5
 150 0 l 5
 85 0 l 5
 204 730 l 5
272 -145 m 0
 277 -115 305 -90 335 -90 c 0
 365 -90 385 -115 380 -145 c 0
 375 -175 347 -200 317 -200 c 0
 287 -200 267 -175 272 -145 c 0
EndSplineSet
EndChar

StartChar: uni1E06
Encoding: 7686 7686 356
Width: 695
VWidth: 0
Flags: HW
LayerCount: 2
Fore
SplineSet
413 388 m 5xef
 506 388 586 412 601 507 c 4
 616 602 546 630 453 630 c 5
 464 700 l 5
 593 700 691 631 671 507 c 4
 651 384 543 330 404 330 c 5xdf
 413 388 l 5xef
214 700 m 1
 284 700 l 1
 170 0 l 1
 100 0 l 1
 214 700 l 1
111 70 m 1
 401 70 l 5
 390 0 l 5
 100 0 l 1
 111 70 l 1
214 700 m 1
 464 700 l 5
 453 630 l 5
 203 630 l 1
 214 700 l 1
163 388 m 1xee
 453 388 l 5
 442 318 l 5
 152 318 l 1
 163 388 l 1xee
401 70 m 5
 494 70 581 95 597 195 c 4
 613 295 535 318 442 318 c 5xee80
 451 375 l 5
 590 375 688 324 667 195 c 4xde80
 646 66 529 0 390 0 c 5
 401 70 l 5
84 -70 m 5
 388 -70 l 5
 378 -130 l 1
 74 -130 l 1
 84 -70 l 5
EndSplineSet
EndChar

StartChar: uni1E07
Encoding: 7687 7687 357
Width: 655
VWidth: 0
Flags: HMW
LayerCount: 2
Fore
SplineSet
192 260 m 4
 171 131 246 50 353 50 c 4
 460 50 556 131 577 260 c 4
 598 389 529 470 422 470 c 4
 315 470 213 389 192 260 c 4
157 260 m 4
 183 419 282 530 441 530 c 4
 570 530 668 419 642 260 c 4
 616 101 482 -10 353 -10 c 4
 194 -10 131 101 157 260 c 4
204 730 m 5
 269 730 l 5
 150 0 l 5
 85 0 l 5
 204 730 l 5
185 -80 m 5
 489 -80 l 5
 479 -140 l 1
 175 -140 l 1
 185 -80 l 5
EndSplineSet
EndChar

StartChar: uni1E08
Encoding: 7688 7688 358
Width: 732
VWidth: 0
Flags: HW
LayerCount: 2
Fore
SplineSet
197 350 m 4
 170 184 274 60 435 60 c 0
 523 60 607 100 670 161 c 1
 710 113 l 1
 633 38 529 -10 423 -10 c 0
 228 -10 95 151 127 350 c 4
 159 549 346 710 541 710 c 0
 647 710 735 662 788 587 c 1
 732 539 l 1
 689 600 617 640 529 640 c 0
 368 640 224 516 197 350 c 4
405 -3 m 5
 445 -3 l 5
 489 -37 547 -77 538 -135 c 4
 530 -182 503 -217 436 -217 c 4
 399 -217 363 -203 344 -188 c 5
 369 -158 l 5
 378 -161 396 -173 426 -173 c 4
 457 -173 483 -164 488 -132 c 4
 494 -97 446 -42 405 -3 c 5
580 770 m 1
 530 770 l 5
 633 910 l 5
 723 910 l 1
 580 770 l 1
EndSplineSet
EndChar

StartChar: uni1E09
Encoding: 7689 7689 359
Width: 573
VWidth: 0
Flags: HM
LayerCount: 2
Fore
SplineSet
162 260 m 4
 143 141 216 50 333 50 c 4
 405 50 468 85 513 134 c 5
 548 92 l 5
 491 28 410 -10 323 -10 c 4
 174 -10 73 111 97 260 c 4
 121 409 262 530 411 530 c 4
 498 530 565 491 602 428 c 5
 554 386 l 5
 525 435 474 470 402 470 c 4
 285 470 181 379 162 260 c 4
305 -3 m 5
 345 -3 l 5
 389 -37 447 -77 438 -135 c 4
 430 -182 403 -217 336 -217 c 4
 299 -217 263 -203 244 -188 c 5
 269 -158 l 5
 278 -161 296 -173 326 -173 c 4
 357 -173 383 -164 388 -132 c 4
 394 -97 346 -42 305 -3 c 5
451 590 m 1
 401 590 l 5
 504 730 l 5
 594 730 l 1
 451 590 l 1
EndSplineSet
EndChar

StartChar: uni1E0A
Encoding: 7690 7690 360
Width: 810
VWidth: 0
Flags: HW
LayerCount: 2
Fore
SplineSet
214 700 m 1
 494 700 l 1
 483 630 l 1
 203 630 l 1
 214 700 l 1
111 70 m 5
 391 70 l 5
 380 0 l 1
 100 0 l 1
 111 70 l 5
214 700 m 1
 284 700 l 1
 170 0 l 1
 100 0 l 1
 214 700 l 1
391 70 m 5
 552 70 700 184 727 350 c 0
 754 516 644 630 483 630 c 1
 494 700 l 1
 689 700 829 549 797 350 c 0
 765 151 575 0 380 0 c 1
 391 70 l 5
498 825 m 0
 503 855 531 880 561 880 c 0
 591 880 611 855 606 825 c 0
 601 795 573 770 543 770 c 0
 513 770 493 795 498 825 c 0
EndSplineSet
EndChar

StartChar: uni1E0B
Encoding: 7691 7691 361
Width: 655
VWidth: 0
Flags: HMW
LayerCount: 2
Fore
SplineSet
547 260 m 4
 568 389 494 470 387 470 c 4
 280 470 183 389 162 260 c 4
 141 131 211 50 318 50 c 4
 425 50 526 131 547 260 c 4
582 260 m 4
 556 101 457 -10 298 -10 c 4
 169 -10 71 101 97 260 c 4
 123 419 257 530 386 530 c 4
 545 530 608 419 582 260 c 4
689 730 m 1
 570 0 l 1
 505 0 l 1
 624 730 l 1
 689 730 l 1
604 845 m 0
 609 875 637 900 667 900 c 0
 697 900 717 875 712 845 c 0
 707 815 679 790 649 790 c 0
 619 790 599 815 604 845 c 0
EndSplineSet
EndChar

StartChar: uni1E0C
Encoding: 7692 7692 362
Width: 810
VWidth: 0
Flags: HW
CounterMasks: 1 1c
LayerCount: 2
Fore
SplineSet
214 700 m 1
 494 700 l 1
 483 630 l 1
 203 630 l 1
 214 700 l 1
111 70 m 5
 391 70 l 5
 380 0 l 1
 100 0 l 1
 111 70 l 5
214 700 m 1
 284 700 l 1
 170 0 l 1
 100 0 l 1
 214 700 l 1
391 70 m 5
 552 70 700 184 727 350 c 0
 754 516 644 630 483 630 c 1
 494 700 l 1
 689 700 829 549 797 350 c 0
 765 151 575 0 380 0 c 1
 391 70 l 5
344 -135 m 0
 349 -105 377 -80 407 -80 c 0
 437 -80 457 -105 452 -135 c 0
 447 -165 419 -190 389 -190 c 0
 359 -190 339 -165 344 -135 c 0
EndSplineSet
EndChar

StartChar: uni1E0D
Encoding: 7693 7693 363
Width: 655
VWidth: 0
Flags: HMW
LayerCount: 2
Fore
SplineSet
547 260 m 4
 568 389 494 470 387 470 c 4
 280 470 183 389 162 260 c 4
 141 131 211 50 318 50 c 4
 425 50 526 131 547 260 c 4
582 260 m 4
 556 101 457 -10 298 -10 c 4
 169 -10 71 101 97 260 c 4
 123 419 257 530 386 530 c 4
 545 530 608 419 582 260 c 4
689 730 m 1
 570 0 l 1
 505 0 l 1
 624 730 l 1
 689 730 l 1
222 -145 m 0
 227 -115 255 -90 285 -90 c 0
 315 -90 335 -115 330 -145 c 0
 325 -175 297 -200 267 -200 c 0
 237 -200 217 -175 222 -145 c 0
EndSplineSet
EndChar

StartChar: uni1E0E
Encoding: 7694 7694 364
Width: 810
VWidth: 0
Flags: HW
LayerCount: 2
Fore
SplineSet
214 700 m 1
 494 700 l 1
 483 630 l 1
 203 630 l 1
 214 700 l 1
111 70 m 5
 391 70 l 5
 380 0 l 1
 100 0 l 1
 111 70 l 5
214 700 m 1
 284 700 l 1
 170 0 l 1
 100 0 l 1
 214 700 l 1
391 70 m 5
 552 70 700 184 727 350 c 0
 754 516 644 630 483 630 c 1
 494 700 l 1
 689 700 829 549 797 350 c 0
 765 151 575 0 380 0 c 1
 391 70 l 5
227 -70 m 5
 531 -70 l 5
 521 -130 l 1
 217 -130 l 1
 227 -70 l 5
EndSplineSet
EndChar

StartChar: uni1E0F
Encoding: 7695 7695 365
Width: 655
VWidth: 0
Flags: HMW
LayerCount: 2
Fore
SplineSet
547 260 m 4
 568 389 494 470 387 470 c 4
 280 470 183 389 162 260 c 4
 141 131 211 50 318 50 c 4
 425 50 526 131 547 260 c 4
582 260 m 4
 556 101 457 -10 298 -10 c 4
 169 -10 71 101 97 260 c 4
 123 419 257 530 386 530 c 4
 545 530 608 419 582 260 c 4
689 730 m 1
 570 0 l 1
 505 0 l 1
 624 730 l 1
 689 730 l 1
135 -80 m 5
 439 -80 l 5
 429 -140 l 1
 125 -140 l 1
 135 -80 l 5
EndSplineSet
EndChar

StartChar: uni1E10
Encoding: 7696 7696 366
Width: 810
VWidth: 0
Flags: HW
LayerCount: 2
Fore
SplineSet
214 700 m 1x9e
 494 700 l 1
 483 630 l 1
 203 630 l 1
 214 700 l 1x9e
111 70 m 5xde
 391 70 l 5
 380 0 l 1
 100 0 l 1
 111 70 l 5xde
214 700 m 1
 284 700 l 1
 170 0 l 1
 100 0 l 1
 214 700 l 1
391 70 m 5
 552 70 700 184 727 350 c 0
 754 516 644 630 483 630 c 1
 494 700 l 1
 689 700 829 549 797 350 c 0
 765 151 575 0 380 0 c 1
 391 70 l 5
221 7 m 5xbe
 261 7 l 5
 305 -27 364 -67 355 -125 c 4
 347 -172 319 -207 252 -207 c 4
 215 -207 180 -193 161 -178 c 5
 186 -148 l 5
 195 -151 212 -163 242 -163 c 4
 273 -163 299 -154 304 -122 c 4
 310 -87 262 -32 221 7 c 5xbe
EndSplineSet
EndChar

StartChar: uni1E11
Encoding: 7697 7697 367
Width: 655
VWidth: 0
Flags: HMW
LayerCount: 2
Fore
SplineSet
547 260 m 4
 568 389 494 470 387 470 c 4
 280 470 183 389 162 260 c 4
 141 131 211 50 318 50 c 4
 425 50 526 131 547 260 c 4
582 260 m 4
 556 101 457 -10 298 -10 c 4
 169 -10 71 101 97 260 c 4
 123 419 257 530 386 530 c 4
 545 530 608 419 582 260 c 4
689 730 m 1
 570 0 l 1
 505 0 l 1
 624 730 l 1
 689 730 l 1
280 -3 m 5
 320 -3 l 5
 364 -37 422 -77 413 -135 c 4
 405 -182 378 -217 311 -217 c 4
 274 -217 238 -203 219 -188 c 5
 244 -158 l 5
 253 -161 271 -173 301 -173 c 4
 332 -173 358 -164 363 -132 c 4
 369 -97 321 -42 280 -3 c 5
EndSplineSet
EndChar

StartChar: uni1E12
Encoding: 7698 7698 368
Width: 810
VWidth: 0
Flags: HW
LayerCount: 2
Fore
SplineSet
214 700 m 1
 494 700 l 1
 483 630 l 1
 203 630 l 1
 214 700 l 1
111 70 m 5
 391 70 l 5
 380 0 l 1
 100 0 l 1
 111 70 l 5
214 700 m 1
 284 700 l 1
 170 0 l 1
 100 0 l 1
 214 700 l 1
391 70 m 5
 552 70 700 184 727 350 c 0
 754 516 644 630 483 630 c 1
 494 700 l 1
 689 700 829 549 797 350 c 0
 765 151 575 0 380 0 c 1
 391 70 l 5
279 -160 m 1
 195 -60 l 1
 265 -60 l 1
 349 -160 l 1
 279 -160 l 1
195 -60 m 1
 265 -60 l 1
 149 -160 l 1
 79 -160 l 1
 195 -60 l 1
EndSplineSet
EndChar

StartChar: uni1E13
Encoding: 7699 7699 369
Width: 655
VWidth: 0
Flags: HMW
LayerCount: 2
Fore
SplineSet
547 260 m 4
 568 389 494 470 387 470 c 4
 280 470 183 389 162 260 c 4
 141 131 211 50 318 50 c 4
 425 50 526 131 547 260 c 4
582 260 m 4
 556 101 457 -10 298 -10 c 4
 169 -10 71 101 97 260 c 4
 123 419 257 530 386 530 c 4
 545 530 608 419 582 260 c 4
689 730 m 1
 570 0 l 1
 505 0 l 1
 624 730 l 1
 689 730 l 1
337 -170 m 1
 254 -70 l 1
 324 -70 l 1
 407 -170 l 1
 337 -170 l 1
254 -70 m 1
 324 -70 l 1
 207 -170 l 1
 137 -170 l 1
 254 -70 l 1
EndSplineSet
EndChar

StartChar: uni1E14
Encoding: 7700 7700 370
Width: 670
VWidth: 0
Flags: HW
LayerCount: 2
Fore
SplineSet
164 393 m 1
 624 393 l 1
 613 323 l 1
 153 323 l 1
 164 393 l 1
214 700 m 1
 724 700 l 1
 713 630 l 1
 203 630 l 1
 214 700 l 1
111 70 m 5
 621 70 l 5
 610 0 l 1
 100 0 l 1
 111 70 l 5
214 700 m 1
 284 700 l 1
 170 0 l 1
 100 0 l 1
 214 700 l 1
340 840 m 5
 644 840 l 5
 634 780 l 1
 330 780 l 1
 340 840 l 5
473 910 m 1
 376 1050 l 1
 466 1050 l 5
 523 910 l 5
 473 910 l 1
EndSplineSet
EndChar

StartChar: uni1E15
Encoding: 7701 7701 371
Width: 615
VWidth: 0
Flags: HMW
LayerCount: 2
Fore
SplineSet
607 260 m 1
 604 240 l 1
 539 240 l 1
 542 260 l 1
 607 260 l 1
539 240 m 1
 133 240 l 1
 142 297 l 1
 548 297 l 1
 539 240 l 1
542 260 m 1
 563 389 504 470 387 470 c 0
 270 470 183 389 162 260 c 1
 97 260 l 1
 123 419 257 530 396 530 c 0
 535 530 633 419 607 260 c 1
 542 260 l 1
97 260 m 1
 162 260 l 1
 141 131 211 50 328 50 c 0
 402 50 473 85 518 134 c 5
 553 92 l 1
 496 28 405 -10 318 -10 c 0
 169 -10 71 101 97 260 c 1
260 660 m 5
 564 660 l 5
 555 600 l 1
 251 600 l 1
 260 660 l 5
394 730 m 1
 297 870 l 1
 387 870 l 5
 444 730 l 5
 394 730 l 1
EndSplineSet
EndChar

StartChar: uni1E16
Encoding: 7702 7702 372
Width: 670
VWidth: 0
Flags: HW
LayerCount: 2
Fore
SplineSet
164 393 m 1
 624 393 l 1
 613 323 l 1
 153 323 l 1
 164 393 l 1
214 700 m 1
 724 700 l 1
 713 630 l 1
 203 630 l 1
 214 700 l 1
111 70 m 5
 621 70 l 5
 610 0 l 1
 100 0 l 1
 111 70 l 5
214 700 m 1
 284 700 l 1
 170 0 l 1
 100 0 l 1
 214 700 l 1
340 840 m 5
 644 840 l 5
 634 780 l 1
 330 780 l 1
 340 840 l 5
533 910 m 1
 483 910 l 5
 586 1050 l 5
 676 1050 l 1
 533 910 l 1
EndSplineSet
EndChar

StartChar: uni1E17
Encoding: 7703 7703 373
Width: 615
VWidth: 0
Flags: HMW
LayerCount: 2
Fore
SplineSet
607 260 m 1
 604 240 l 1
 539 240 l 1
 542 260 l 1
 607 260 l 1
539 240 m 1
 133 240 l 1
 142 297 l 1
 548 297 l 1
 539 240 l 1
542 260 m 1
 563 389 504 470 387 470 c 0
 270 470 183 389 162 260 c 1
 97 260 l 1
 123 419 257 530 396 530 c 0
 535 530 633 419 607 260 c 1
 542 260 l 1
97 260 m 1
 162 260 l 1
 141 131 211 50 328 50 c 0
 402 50 473 85 518 134 c 5
 553 92 l 1
 496 28 405 -10 318 -10 c 0
 169 -10 71 101 97 260 c 1
260 660 m 5
 564 660 l 5
 555 600 l 1
 251 600 l 1
 260 660 l 5
454 730 m 1
 404 730 l 5
 507 870 l 5
 597 870 l 1
 454 730 l 1
EndSplineSet
EndChar

StartChar: uni1E18
Encoding: 7704 7704 374
Width: 670
VWidth: 0
Flags: HW
LayerCount: 2
Fore
SplineSet
164 393 m 1
 624 393 l 1
 613 323 l 1
 153 323 l 1
 164 393 l 1
214 700 m 1
 724 700 l 1
 713 630 l 1
 203 630 l 1
 214 700 l 1
111 70 m 5
 621 70 l 5
 610 0 l 1
 100 0 l 1
 111 70 l 5
214 700 m 1
 284 700 l 1
 170 0 l 1
 100 0 l 1
 214 700 l 1
394 -160 m 1
 310 -60 l 1
 380 -60 l 1
 464 -160 l 1
 394 -160 l 1
310 -60 m 1
 380 -60 l 1
 264 -160 l 1
 194 -160 l 1
 310 -60 l 1
EndSplineSet
EndChar

StartChar: uni1E19
Encoding: 7705 7705 375
Width: 615
VWidth: 0
Flags: HMW
LayerCount: 2
Fore
SplineSet
607 260 m 1
 604 240 l 1
 539 240 l 1
 542 260 l 1
 607 260 l 1
539 240 m 1
 133 240 l 1
 142 297 l 1
 548 297 l 1
 539 240 l 1
542 260 m 1
 563 389 504 470 387 470 c 0
 270 470 183 389 162 260 c 1
 97 260 l 1
 123 419 257 530 396 530 c 0
 535 530 633 419 607 260 c 1
 542 260 l 1
97 260 m 1
 162 260 l 1
 141 131 211 50 328 50 c 0
 402 50 473 85 518 134 c 5
 553 92 l 1
 496 28 405 -10 318 -10 c 0
 169 -10 71 101 97 260 c 1
352 -170 m 1
 269 -70 l 1
 339 -70 l 1
 422 -170 l 1
 352 -170 l 1
269 -70 m 1
 339 -70 l 1
 222 -170 l 1
 152 -170 l 1
 269 -70 l 1
EndSplineSet
EndChar

StartChar: uni1E1A
Encoding: 7706 7706 376
Width: 670
VWidth: 0
Flags: HW
LayerCount: 2
Fore
SplineSet
164 393 m 1xfd
 624 393 l 1
 613 323 l 1
 153 323 l 1
 164 393 l 1xfd
214 700 m 1
 724 700 l 1
 713 630 l 1
 203 630 l 1
 214 700 l 1
111 70 m 5
 621 70 l 5
 610 0 l 1
 100 0 l 1
 111 70 l 5
214 700 m 1
 284 700 l 1
 170 0 l 1
 100 0 l 1
 214 700 l 1
192 -200 m 1xfb
 136 -180 l 1
 153 -102 207 -63 258 -63 c 0
 322 -63 375 -137 419 -137 c 4
 464 -137 479 -97 485 -60 c 1
 532 -80 l 1
 513 -168 462 -197 412 -197 c 0
 350 -197 300 -123 257 -123 c 0
 213 -123 198 -163 192 -200 c 1xfb
EndSplineSet
EndChar

StartChar: uni1E1B
Encoding: 7707 7707 377
Width: 615
VWidth: 0
Flags: HMW
LayerCount: 2
Fore
SplineSet
607 260 m 1
 604 240 l 1
 539 240 l 1
 542 260 l 1
 607 260 l 1
539 240 m 1
 133 240 l 1
 142 297 l 1
 548 297 l 1
 539 240 l 1
542 260 m 1
 563 389 504 470 387 470 c 0
 270 470 183 389 162 260 c 1
 97 260 l 1
 123 419 257 530 396 530 c 0
 535 530 633 419 607 260 c 1
 542 260 l 1
97 260 m 1
 162 260 l 1
 141 131 211 50 328 50 c 0
 402 50 473 85 518 134 c 5
 553 92 l 1
 496 28 405 -10 318 -10 c 0
 169 -10 71 101 97 260 c 1
151 -210 m 1
 94 -190 l 1
 111 -112 165 -73 216 -73 c 0
 280 -73 334 -147 378 -147 c 4
 423 -147 438 -107 444 -70 c 1
 490 -90 l 1
 471 -178 420 -207 370 -207 c 0
 308 -207 259 -133 216 -133 c 0
 172 -133 157 -173 151 -210 c 1
EndSplineSet
EndChar

StartChar: uni1E1C
Encoding: 7708 7708 378
Width: 670
VWidth: 0
Flags: HW
LayerCount: 2
Fore
SplineSet
164 393 m 1x9f
 624 393 l 1
 613 323 l 1
 153 323 l 1
 164 393 l 1x9f
214 700 m 1
 724 700 l 1
 713 630 l 1
 203 630 l 1
 214 700 l 1
111 70 m 5xdf
 621 70 l 5
 610 0 l 1
 100 0 l 1
 111 70 l 5xdf
214 700 m 1
 284 700 l 1
 170 0 l 1
 100 0 l 1
 214 700 l 1
336 7 m 5xbf80
 376 7 l 5
 420 -27 479 -67 470 -125 c 4
 462 -172 434 -207 367 -207 c 4
 330 -207 295 -193 276 -178 c 5
 301 -148 l 5
 310 -151 327 -163 357 -163 c 4
 388 -163 414 -154 419 -122 c 4
 425 -87 377 -32 336 7 c 5xbf80
492 840 m 1
 432 840 392 874 400 922 c 1
 334 916 l 1
 320 827 381 770 480 770 c 1
 492 840 l 1
492 840 m 1
 480 770 l 1
 579 770 660 827 674 916 c 1
 610 922 l 5x9f40
 602 874 552 840 492 840 c 1
EndSplineSet
EndChar

